<?xml version="1.0" standalone="no"?><!DOCTYPE svg PUBLIC "-//W3C//DTD SVG 1.1//EN" "http://www.w3.org/Graphics/SVG/1.1/DTD/svg11.dtd"><svg t="1766400141054" class="icon" viewBox="0 0 1024 1024" version="1.1" xmlns="http://www.w3.org/2000/svg" p-id="36743" xmlns:xlink="http://www.w3.org/1999/xlink" width="200" height="200"><path d="M932 897.3c0 8.3-3.4 15.9-8.9 21.4s-13 8.9-21.4 8.9H122.2c-16.7 0-30.2-13.5-30.2-30.2 0-8.3 3.4-15.9 8.9-21.4s13-8.9 21.4-8.9h779.5c16.7 0 30.2 13.5 30.2 30.2z" fill="#00D16C" p-id="36744"></path><path d="M474.8 635h71.5v232.1h-71.5z" fill="#B05C25" p-id="36745"></path><path d="M510.6 635h35.8v232.1h-35.8z" fill="#8E4A1F" p-id="36746"></path><path d="M932 897.3c0 8.3-3.4 15.9-8.9 21.4s-13 8.9-21.4 8.9H510.6v-60.5h391.2c16.7 0 30.2 13.5 30.2 30.2z" fill="#00AD95" p-id="36747"></path><path d="M752.4 812.9c0.2 0.9 7.2 28.1 25.6 38 0 0-73.2-14.5-95-60.3 0 0-15 15.5 0 37.3 0 0-47.5-21.2-53.1-82.9 0 0-9.3 24.3 5.6 61.7 0 0-33.2-1.2-59.1-73.5 0 0-11.3 28.3 5.5 62.9-1-1.1-60.8-70.5-69.8-121.1-0.4 2.1-0.8 4.3-1.4 6.5-12.7 49.9-67.6 113.5-68.5 114.7 16.8-34.6 5.5-62.9 5.5-62.9-25.8 72.3-59.1 73.5-59.1 73.5 14.8-37.5 5.6-61.7 5.6-61.7-5.6 61.7-53.1 82.9-53.1 82.9 15-21.9 0-37.3 0-37.3-21.8 45.8-95 60.3-95 60.3 18.4-9.9 25.4-37.1 25.6-38-44.5 48-141.7 43.2-141.7 43.2C260 819.4 409.9 656.3 476.7 577c18-21.4 30-36.6 33.9-41.7 0.9-1.2 1.4-1.8 1.4-1.8s208.7 273.6 382 322.7c0 0-97.2 4.8-141.6-43.3z" fill="#00AD95" p-id="36748"></path><path d="M752.4 812.9c0.2 0.9 7.2 28.1 25.6 38 0 0-73.2-14.5-95-60.3 0 0-15 15.5 0 37.3 0 0-47.5-21.2-53.1-82.9 0 0-9.3 24.3 5.6 61.7 0 0-33.2-1.2-59.1-73.5 0 0-11.3 28.3 5.5 62.9-1-1.1-60.8-70.5-69.8-121.1-0.4 2.1-0.8 4.3-1.4 6.5V535.3c0.9-1.2 1.4-1.8 1.4-1.8s208.7 273.6 382 322.7c-0.1 0-97.3 4.8-141.7-43.3z" fill="#008486" p-id="36749"></path><path d="M737.2 683.4c0.2 0.8 6.7 26.3 24 35.6 0 0-68.6-13.6-89-56.5 0 0-14.1 14.5 0 35 0 0-44.5-19.8-49.8-77.6 0 0-8.7 22.7 5.2 57.8 0 0-31.2-1.1-55.3-68.8 0 0-10.6 26.5 5.1 58.9-0.9-1.1-57-66-65.4-113.5-0.4 2.1-0.8 4.2-1.4 6.4-11.9 46.7-63.1 106-64 107.1 15.7-32.4 5.1-58.9 5.1-58.9-24.2 67.7-55.3 68.8-55.3 68.8 13.9-35.1 5.2-57.8 5.2-57.8-5.2 57.8-49.8 77.6-49.8 77.6 14.1-20.5 0-35 0-35-20.5 42.9-89 56.5-89 56.5 17.3-9.3 23.8-34.8 24-35.6-41.6 45-132.6 40.6-132.6 40.6C276 689.5 416.4 536.7 478.9 462.5c16.8-19.9 27.9-34.1 31.7-39 0.9-1.2 1.4-1.8 1.4-1.8S707.5 678 869.8 724c0 0-91 4.4-132.6-40.6z" fill="#00D16C" p-id="36750"></path><path d="M737.2 683.4c0.2 0.8 6.7 26.3 24 35.6 0 0-68.6-13.6-89-56.5 0 0-14.1 14.5 0 35 0 0-44.5-19.8-49.8-77.6 0 0-8.7 22.7 5.2 57.8 0 0-31.2-1.1-55.3-68.8 0 0-10.6 26.5 5.1 58.9-0.9-1.1-57-66-65.4-113.5-0.4 2.1-0.8 4.2-1.4 6.4V423.5c0.9-1.2 1.4-1.8 1.4-1.8S707.5 678 869.8 724c0 0-91 4.4-132.6-40.6zM510.6 338.3v121.9c-10.8 41.3-55.8 93.4-56.6 94.3 13.9-28.8 4.5-52.2 4.5-52.2-21.4 60-49 61-49 61 12.3-31.1 4.6-51.2 4.6-51.2C409.5 563.4 370 581 370 581c12.5-18.2 0-31 0-31-18.1 38-78.9 50.1-78.9 50.1 15.3-8.2 21.1-30.8 21.2-31.5-36.8 39.9-117.5 35.9-117.5 35.9 107.9-30.6 232.3-166 287.8-231.8 14.7-17.4 24.5-29.9 28-34.4z" fill="#00AD95" p-id="36751"></path><path d="M711.6 568.5c0.2 0.7 6 23.3 21.2 31.5 0 0-60.8-12.1-78.9-50.1 0 0-12.5 12.8 0 31 0 0-39.5-17.6-44.1-68.8 0 0-7.7 20.1 4.6 51.2 0 0-27.6-1-49-61 0 0-9.4 23.5 4.5 52.2-0.8-1-50.5-58.5-58-100.6-0.4 2.1-0.8 4.2-1.4 6.3V338.3c0.9-1.2 1.4-1.8 1.4-1.8S685.1 563.7 829 604.4c0.1 0.1-80.6 4-117.4-35.9z" fill="#008486" p-id="36752"></path><path d="M682.7 469.8s4.9 19.8 18.2 27c0 0-52-10.3-67.5-42.8 0 0-10.7 11 0 26.5 0 0-33.8-15-37.7-58.8 0 0-6.6 17.2 4 43.8 0 0-23.6-0.9-41.9-52.2 0 0-8 20.1 3.9 44.7-0.7-0.8-43.2-50.1-49.6-86-0.3 2-0.8 4.1-1.4 6.2-9.6 35.2-47.5 79.1-48.2 79.9 11.9-24.6 3.9-44.7 3.9-44.7-18.3 51.3-41.9 52.2-41.9 52.2 10.5-26.6 4-43.8 4-43.8-4 43.8-37.7 58.8-37.7 58.8 10.7-15.5 0-26.5 0-26.5-15.5 32.5-67.5 42.8-67.5 42.8 13.3-7.1 18.2-27 18.2-27C310 504 241 500.7 241 500.7 302.5 483.3 370.3 426 422.8 373c46.5-46.9 80.8-90.4 88.1-99.7 0.9-1.2 1.4-1.8 1.4-1.8s148.2 194.3 271.2 229.2c-0.3-0.1-69.3 3.2-100.8-30.9z" fill="#90EB7A" p-id="36753"></path><path d="M682.7 469.8s4.9 19.8 18.2 27c0 0-52-10.3-67.5-42.8 0 0-10.7 11 0 26.5 0 0-33.8-15-37.7-58.8 0 0-6.6 17.2 4 43.8 0 0-23.6-0.9-41.9-52.2 0 0-8 20.1 3.9 44.7-0.7-0.8-43.2-50.1-49.6-86-0.3 2-0.8 4.1-1.4 6.2v-105c0.9-1.2 1.4-1.8 1.4-1.8s148.2 194.3 271.2 229.2c-0.1 0-69.1 3.3-100.6-30.8zM372.1 407.2c0.2-0.1 2.9-1.3 7.2-3.5-2.4 1.7-4.9 2.9-7.2 3.5z" fill="#00D16C" p-id="36754"></path><path d="M644.7 403.8c4.3 2.1 7 3.3 7.2 3.5-2.3-0.7-4.8-1.9-7.2-3.5zM644.7 403.8c-24-11.7-99.5-51-104-82.8l-28.5 65.2-1.5-3.5-27.4-61.7c-4.5 31.8-80 71.1-104 82.8 19.5-12.8 40.7-52.2 40.7-52.2-41.5 34-131.7 40-131.7 40 94.9-26.9 207.9-168.6 222.3-187.1 1-1.3 1.5-2 1.5-2s122 160.3 223.5 189.1c0 0-90.2-6-131.7-40 0.1 0 21.3 39.4 40.8 52.2z" fill="#00D16C" p-id="36755"></path><path d="M644.7 403.8c4.3 2.1 7 3.3 7.2 3.5-2.3-0.7-4.8-1.9-7.2-3.5z" fill="#00D16C" p-id="36756"></path><path d="M644.7 403.8c-24-11.7-99.5-51-104-82.8l-28.5 65.2-1.5-3.5V204.5c1-1.3 1.5-2 1.5-2s122 160.3 223.5 189.1c0 0-90.2-6-131.7-40 0 0 21.2 39.4 40.7 52.2z" fill="#00AD95" p-id="36757"></path><path d="M400.7 315.6c0.2-0.1 2.3-1.1 5.8-2.8-1.9 1.3-3.9 2.3-5.8 2.8zM617.5 312.8c3.5 1.7 5.6 2.7 5.8 2.8-1.9-0.5-3.9-1.5-5.8-2.8z" fill="#90EB7A" p-id="36758"></path><path d="M617.5 312.8c-19.1-9.4-79.1-40.6-82.6-65.9l-22.7 51.9-1.5-3.4-21.4-48.4c-3.5 25.3-63.5 56.5-82.6 65.9 15.5-10.2 32.3-41.5 32.3-41.5-33 27-104.7 31.8-104.7 31.8C409 282 498 170.8 510.6 154.7c1-1.3 1.5-1.9 1.5-1.9s97 127.5 177.8 150.4c0 0-71.8-4.8-104.7-31.8 0-0.1 16.8 31.2 32.3 41.4z" fill="#90EB7A" p-id="36759"></path><path d="M617.5 312.8c3.5 1.7 5.6 2.7 5.8 2.8-1.9-0.5-3.9-1.5-5.8-2.8zM617.5 312.8c-19.1-9.4-79.1-40.6-82.6-65.9l-22.7 51.9-1.5-3.4V154.7c1-1.3 1.5-1.9 1.5-1.9s97 127.5 177.8 150.4c0 0-71.8-4.8-104.7-31.8-0.1-0.1 16.7 31.2 32.2 41.4z" fill="#00D16C" p-id="36760"></path><path d="M425.2 238c0.3-0.1 1.9-0.9 4.4-2.1-1.4 0.9-2.9 1.7-4.4 2.1zM594.3 235.9c2.5 1.2 4.1 2 4.4 2.1-1.4-0.4-2.9-1.2-4.4-2.1zM594.3 235.9c-14.9-7.3-61.8-31.7-64.5-51.4l-17.7 40.4-1.5-3.4-16.4-37.1c-2.8 19.7-49.7 44.1-64.5 51.4 12.1-8 25.3-32.4 25.3-32.4-25.7 21.1-81.7 24.8-81.7 24.8 57.8-16.4 126.5-101.5 137.3-115.4 1-1.2 1.5-1.9 1.5-1.9s75.7 99.4 138.7 117.3c0 0-56-3.7-81.7-24.8 0 0.1 13.1 24.5 25.2 32.5z" fill="#00D16C" p-id="36761"></path><path d="M456.1 165c0.2-0.1 1.2-0.6 2.9-1.4-1 0.7-2 1.2-2.9 1.4zM565 163.7c1.6 0.8 2.7 1.3 2.9 1.4-0.9-0.3-1.9-0.8-2.9-1.4z" fill="#90EB7A" p-id="36762"></path><path d="M565 163.7c-9.6-4.7-39.8-20.4-41.6-33.1L512 156.7l-1.5-3.3-10.1-22.8c-1.8 12.7-32 28.4-41.6 33.1 7.7-5 16-20.3 16.3-20.9-16.6 13.6-52.6 16-52.6 16 36.5-10.3 79.6-63.1 88-73.7 1-1.2 1.5-1.9 1.5-1.9s48.8 64.1 89.4 75.6c0 0-36.1-2.4-52.6-16 0.3 0.5 8.6 15.8 16.2 20.9z" fill="#90EB7A" p-id="36763"></path><path d="M565 163.7c1.6 0.8 2.7 1.3 2.9 1.4-0.9-0.3-1.9-0.8-2.9-1.4z" fill="#00D16C" p-id="36764"></path><path d="M594.3 235.9c-14.9-7.3-61.8-31.7-64.5-51.4l-17.7 40.4-1.5-3.4V112.9c1-1.2 1.5-1.9 1.5-1.9s75.7 99.4 138.7 117.3c0 0-56-3.7-81.7-24.8 0 0 13.1 24.4 25.2 32.4z" fill="#00AD95" p-id="36765"></path><path d="M565 163.7c-9.6-4.7-39.8-20.4-41.6-33.1L512 156.7l-1.5-3.3V85.1c1-1.2 1.5-1.9 1.5-1.9s48.8 64.1 89.4 75.6c0 0-36.1-2.4-52.6-16 0.3 0.5 8.6 15.8 16.2 20.9zM594.3 235.9c2.5 1.2 4.1 2 4.4 2.1-1.4-0.4-2.9-1.2-4.4-2.1z" fill="#00D16C" p-id="36766"></path><path d="M927.9 873.6l-2.4-2.4c-2.1-1.9-4.4-3.5-6.9-4.9-0.5-0.3-1-0.5-1.5-0.8-1-0.5-2.1-0.9-3.2-1.3-0.6-0.2-1.3-0.4-2.1-0.7-3.1-0.9-6.4-1.4-9.6-1.4 1-1.3 1.6-2.8 1.8-4.5 0.7-4.9-2.4-9.6-7.2-11-72.3-20.5-151.6-82-216.6-143.1 2.6-3.4 2.7-8.1 0.2-11.7-0.9-1.3-1.7-2.6-2.3-3.9 29.4 30.2 78.6 40.3 81.1 40.8 0.7 0.1 1.3 0.2 2 0.2 4.1 0 8-2.6 9.4-6.6 0.5-1.5 0.7-3.1 0.5-4.6 9.6 4 20.2 7.3 31.7 9.9 25.2 5.6 48.6 6.5 60.3 6.5 4.4 0 7.1-0.1 7.2-0.1 4.9-0.2 8.9-4 9.5-8.9 0.6-4.9-2.5-9.4-7.2-10.8-32.5-9.2-69.2-28.1-108.9-56.2-26.4-18.6-54.3-41.4-83.1-67.9 23.6 14 48.7 19.2 50.4 19.5 0.7 0.1 1.3 0.2 2 0.2 4.1 0 8-2.6 9.4-6.6 0.3-0.9 0.5-1.8 0.6-2.7 7.9 3.2 16.6 5.9 26 8 22.5 5.1 43.3 5.9 53.7 5.9 2.3 0 4 0 5.1-0.1 0.6 0 1.1 0 1.5-0.1 6.1-0.3 8.4-4.4 9.2-6.2 1.1-2.6 1-5.6-0.2-8.2-1.2-2.6-3.5-4.5-6.3-5.3-29.8-8.4-63.4-26-100-52.3-16.7-12-34-25.8-51.9-41.4 10.5 3.7 18.3 5.3 19.1 5.5 0.7 0.1 1.3 0.2 1.9 0.2 4.1 0 8-2.6 9.4-6.6l0.3-0.9c26.6 10.2 56.1 11.4 68.5 11.4h4.4c4.4 0 8.5-3 9.7-7.4 1.3-4.7-1.1-9.5-5.3-11.6-0.6-0.3-1.2-0.5-1.8-0.7-11.4-3.2-23.5-8.1-36.2-14.4-27.6-13.9-57.8-35-90.2-62.9 0.3-0.4 0.6-0.7 0.8-1.2 2.4-3.9 1.7-9-1.5-12.2-1.3-1.3-2.4-1.8-5.4-3.3-1-0.5-2.3-1.1-3.8-1.8-0.8-0.5-1.6-1.1-2.4-1.8-4.3-3.4-8.6-8.2-12.7-13.3 44.3 17.6 97.4 21.3 100.3 21.5H736c4.8 0 9-3.5 9.8-8.3 0.9-5-2.2-9.9-7.1-11.3-30.2-8.6-65.6-30.4-105.2-64.9 0.6-4.2-1.5-8.4-5.4-10.4-0.1 0-0.4-0.2-0.9-0.4-0.8-0.4-2.3-1.1-4.3-2.1-0.5-0.4-1.1-0.8-1.7-1.3-1.5-1.2-3-2.6-4.5-4.2 33.8 11.7 70.7 14.3 72.8 14.5H690.3c4.8 0 9-3.5 9.8-8.3 0.9-5-2.2-9.9-7.1-11.3-23.9-6.8-52.8-24.8-84.5-52.6v-0.1c1.2-3.7 0-7.6-2.6-10.2 22.4 5.9 43.1 7.4 44.5 7.5h0.7c4.8 0 9-3.5 9.8-8.3 0.1-0.7 0.2-1.4 0.1-2-0.1-4.3-3-8.2-7.3-9.4-21.2-6-47.2-23.4-76.1-50.5 0.3-0.9 0.4-1.7 0.4-2.6 11.4 2.5 20.9 3.2 22.8 3.3h0.7c4.8 0 9-3.5 9.8-8.3 0.9-5-2.2-9.9-7.1-11.3-4.6-1.3-9.7-3.6-15.2-6.7-1.2-0.7-2.4-1.4-3.6-2.2-2.3-1.5-4.8-3.1-7.3-4.9-2.4-1.7-4.8-3.6-7.3-5.5-4-3.2-8.2-6.8-12.4-10.7-0.6-0.5-1.1-1.1-1.7-1.6-1.1-1-2.2-2.1-3.3-3.2-19-18.5-33.3-37.1-33.5-37.3-1.9-2.5-4.8-3.9-8-3.9h-0.2c-3.2 0-6.1 1.6-8 4.2-0.1 0.1-0.1 0.2-0.2 0.2-0.2 0.2-0.5 0.6-0.9 1.1l-0.2 0.2c-4.6 5.8-17 21-32.6 36-19.3 18.6-36.7 30.5-50.3 34.3-4.9 1.4-8 6.3-7.1 11.3 0.8 4.8 5 8.3 9.8 8.3h0.7c2-0.1 11.5-0.9 22.9-3.4 0 0.9 0.2 1.8 0.5 2.7-28.9 27.1-54.9 44.4-76 50.4-4.9 1.4-8 6.3-7.1 11.3 0.8 4.8 5 8.3 9.8 8.3h0.7c1.4-0.1 22-1.5 44.4-7.5-2.7 2.5-3.8 6.4-2.7 10.1 0 0.1 0.1 0.2 0.1 0.3-31.7 27.7-60.4 45.6-84.2 52.4-4.9 1.4-8 6.3-7.1 11.3 0.8 4.8 5 8.3 9.8 8.3h0.7c2.2-0.1 39.2-2.8 73-14.5-1.9 2-3.8 3.7-5.6 5.1-0.1 0.1-0.3 0.1-0.5 0.2-2.3 1.1-4 1.9-4.8 2.3-0.5 0.2-0.8 0.4-0.9 0.4-4 2-6.1 6.3-5.4 10.5-39.7 34.5-75 56.2-105.3 64.8-4.9 1.4-8 6.3-7.1 11.3 0.8 4.8 5 8.3 9.8 8.3h0.7c2.9-0.2 56.1-3.9 100.4-21.5-4.9 6.1-10 11.5-14.7 14.8h-0.1c-3.3 1.7-5.6 2.7-6.4 3.1-0.3 0.1-0.5 0.2-0.6 0.3-4.6 2.3-6.7 7.7-4.9 12.5 0.4 1.2 1.1 2.2 1.9 3.1-15.6 13.4-30.7 25.3-45.2 35.5-29.6 20.8-56.9 34.9-81.1 41.7-4.7 1.3-7.8 5.9-7.2 10.8 0.6 4.9 4.6 8.6 9.5 8.9 0.1 0 2.1 0.1 5.5 0.1 9 0 26.9-0.6 46.2-5 7.7-1.7 14.9-3.9 21.4-6.4 0.1 0.3 0.2 0.6 0.3 0.8 1.4 4 5.3 6.6 9.4 6.6 0.6 0 1.3-0.1 1.9-0.2 0.8-0.2 8.3-1.7 18.3-5.2-17.6 15.3-34.8 29-51.3 40.9-36.7 26.4-70.4 44.1-100.2 52.5-4.7 1.3-7.8 5.9-7.2 10.8 0.6 4.9 4.5 8.6 9.4 8.9 0.1 0 2.5 0.1 6.7 0.1 10.4 0 31.3-0.8 53.7-5.8 9.6-2.2 18.4-4.9 26.5-8.1 0.1 0.9 0.2 1.8 0.6 2.7 1.4 4 5.3 6.6 9.4 6.6 0.6 0 1.3-0.1 2-0.2 1.7-0.3 26.9-5.5 50.5-19.6-28.9 26.5-56.8 49.3-83.2 67.9-39.7 28-76.3 46.9-108.9 56.1-4.7 1.3-7.8 5.9-7.2 10.8 0.6 4.9 4.6 8.6 9.5 8.9 0.1 0 2.7 0.1 7.2 0.1 11.7 0 35.1-0.8 60.3-6.5 11.6-2.6 22.2-5.9 31.7-9.9-0.2 1.5 0 3.1 0.5 4.6 1.4 4 5.3 6.6 9.4 6.6 0.6 0 1.3-0.1 2-0.2 2.5-0.5 51.7-10.6 81.1-40.9-0.6 1.3-1.4 2.6-2.3 3.9-2.5 3.6-2.3 8.3 0.3 11.7-65 61.1-144.3 122.5-216.6 143-4.7 1.3-7.8 5.9-7.2 10.8 0.2 1.8 0.9 3.4 1.9 4.8-9.3 0.1-18 3.8-24.6 10.4C90.7 879.1 87 888 87 897.4c0 19.4 15.8 35.2 35.2 35.2h779.5c9.4 0 18.3-3.7 24.9-10.4 6.7-6.7 10.4-15.5 10.4-24.9 0-8.8-3.2-17.2-9.1-23.7zM188 862.1c4.5-0.8 9-1.6 13.7-2.7 12.7-2.9 24.3-6.5 34.8-10.9-0.5 1.9-0.4 3.9 0.3 5.9 1.4 4 5.3 6.6 9.4 6.6 0.6 0 1.3-0.1 1.9-0.2 2.7-0.5 57.8-11.8 88.7-46-0.8 2.5-2.1 5-3.9 7.5-2.5 3.7-2.3 8.6 0.6 12.1 1.9 2.3 4.8 3.6 7.7 3.6 1.4 0 2.8-0.3 4.1-0.9 0.6-0.2 13.8-6.3 27.6-20.5 2-2.1 4.1-4.4 6.3-7.1 0.3 1.1 0.8 2.1 1.4 3 1.9 2.7 4.9 4.2 8.2 4.2h0.4c1.9-0.1 12.3-1 25.8-11.9 8.8-7.1 17-16.9 24.3-29.1-1.3 5.1-3.2 10.4-5.9 16-2.3 4.6-0.6 10.2 3.8 12.9 1.6 1 3.4 1.5 5.2 1.5 3 0 5.9-1.3 7.9-3.8 0.1-0.1 0.3-0.3 0.5-0.6 4.1-4.9 11.2-13.6 19.3-24.5V862H188z m291.8-98.7c11.6-16.7 23.7-36.4 32.3-55.8 6.7 15.5 16.6 32.8 29.3 51.7v102.9h-61.6v-98.8z m71.6 10.1c12.8 17.6 23 29.3 23.1 29.4 2 2.2 4.7 3.3 7.4 3.3 1.9 0 3.9-0.6 5.6-1.7 4.1-2.8 5.6-8.2 3.4-12.6-2.7-5.6-4.6-11-5.9-16.1 7.4 12.3 15.5 22.1 24.4 29.2 13.5 10.9 23.8 11.8 25.8 11.9h0.4c3.2 0 6.3-1.6 8.2-4.2 0.6-0.9 1.1-1.9 1.4-3 1.9 2.4 4 4.7 6.3 7 13.8 14.2 27 20.2 27.6 20.5 1.3 0.6 2.7 0.9 4.1 0.9 2.9 0 5.7-1.3 7.7-3.6 2.9-3.4 3.1-8.4 0.6-12.1-1.8-2.6-3-5.1-3.9-7.5 30.9 34.2 86 45.5 88.7 46 0.7 0.1 1.3 0.2 1.9 0.2 4.1 0 8-2.6 9.4-6.6 0.7-1.9 0.8-3.9 0.3-5.8 11.5 4.9 24.5 8.8 38.7 11.8 3.3 0.7 6.5 1.3 9.6 1.8H551.4v-88.8zM401.8 660.2c5.6-25-0.2-40.3-0.2-40.3-5.2 57.8-49.8 77.6-49.8 77.6 14.1-20.5 0-35 0-35-20.5 42.9-89 56.5-89 56.5 17.3-9.3 23.8-34.8 24-35.6-34.8 37.6-104.2 40.7-125.9 40.7-4.3 0-6.7-0.1-6.7-0.1 73-20.7 152.7-83.8 218.3-147.1 8.2-16-2.5-26.9-2.5-26.9-18.1 38-78.9 50.1-78.9 50.1 15.3-8.2 21.1-30.8 21.2-31.5-30.7 33.2-91.8 36-111.3 36-3.9 0-6.2-0.1-6.2-0.1 67.4-19.1 141.3-79.2 200.7-137.6 0-7.9-4.7-12.8-4.7-12.8-15.5 32.5-67.5 42.8-67.5 42.8 13.3-7.1 18.2-27 18.2-27-26.4 28.6-79.1 30.9-95.5 30.9-3.2 0-5-0.1-5-0.1C285.9 488 334.1 454 377.3 416c2.6-1 5.1-2.3 7.6-4 0.4-0.3 0.8-0.6 1.1-0.9 0.5-0.5 1-1 1.4-1.5 0.9-1.2 1.5-2.6 1.7-4.2 5.5-5 10.9-10.1 16.1-15.1-6.3 3.5-12.1 6.5-17 9-0.3-0.7-0.7-1.3-1.2-1.9 17-16.2 32.9-45.8 32.9-45.8-41.5 34-131.7 40-131.7 40C324 381.5 362.4 355 397 324.9c1.1 0.4 2.3 0.7 3.6 0.7 0.8 0 1.7-0.1 2.5-0.3 2.9-0.8 5.8-2.1 8.7-4.1 0.4-0.3 0.8-0.6 1.1-0.9 0.6-0.5 1.1-1 1.5-1.6 1.2-1.6 1.9-3.7 1.9-5.9 0-2.4-0.8-4.6-2.2-6.3 12.9-13.1 24.7-35.1 24.7-35.1-33 27-104.7 31.8-104.7 31.8 29.3-8.3 60.8-30.5 89.1-55.4 0.6 0.1 1.2 0.2 1.8 0.2 0.9 0 1.7-0.1 2.6-0.3 2.3-0.6 4.6-1.7 7-3.2l1.2-0.9c0.6-0.5 1.2-1.1 1.7-1.8 1.2-1.6 1.9-3.7 1.9-5.9 0-0.9-0.1-1.8-0.4-2.6 1.9-1.8 3.8-3.6 5.6-5.4-2.3 1.2-4.4 2.4-6.4 3.4-0.4-0.7-0.9-1.4-1.4-2.1 9.5-10.3 17.9-25.9 17.9-25.9-25.7 21.1-81.7 24.8-81.7 24.8 34.1-9.7 71.9-43.2 99.5-72-5.6 3.2-10.7 5.8-13.8 7.4-1 0.7-2 1.2-2.9 1.4 0.2-0.1 1.1-0.6 2.7-1.3 7.7-5 16-20.3 16.3-20.9-16.6 13.6-52.6 16-52.6 16 36.5-10.3 79.6-63.1 88-73.7 0.5-0.6 0.9-1.1 1.1-1.4 0.1-0.2 0.2-0.3 0.3-0.4l0.1-0.1s14.6 19.2 34.5 38.4c1.1 1.1 2.3 2.2 3.5 3.3 0.6 0.5 1.2 1.1 1.8 1.6 4.1 3.8 8.5 7.6 12.9 11.1 2.5 2 5.1 4 7.7 5.8 2.6 1.9 5.2 3.6 7.8 5.3l3.9 2.4c5.9 3.4 11.7 6 17.5 7.6 0 0-36.1-2.4-52.6-16 0.1 0.1 0.8 1.5 2 3.4 0.8 1.3 1.7 2.8 2.8 4.5 0.7 1.1 1.5 2.3 2.4 3.4 0.6 0.9 1.3 1.7 1.9 2.5-0.6 0.7-1.2 1.4-1.7 2.2 0 0.1-0.1 0.1-0.1 0.2-1.4-0.7-2.8-1.5-4.2-2.4 1.2 1.2 2.4 2.5 3.6 3.8-1.5 4.4 0.2 9.3 4.3 11.8 1.7 1 3.3 1.8 4.9 2.3 1 0.3 2.1 0.5 3.2 0.5 0.7 0 1.5-0.1 2.2-0.3 24.6 23.3 53.8 45.7 80.7 53.4h-0.4c0.1 0 0.3 0.1 0.4 0.1 0 0-55.9-3.7-81.6-24.7 0.8 1.6 8.7 15.9 17.7 25.7-0.5 0.6-1 1.2-1.4 1.9 0 0.1-0.1 0.1-0.1 0.2-1.7-0.9-3.6-1.9-5.5-3 1.6 1.5 3.2 3.1 4.8 4.6-1.3 4.3 0.5 9 4.4 11.4 1.8 1.1 4.2 2.4 6.8 3.1 0.9 0.3 1.8 0.4 2.8 0.4 0.7 0 1.4-0.1 2.1-0.2 28.3 24.9 59.8 47.1 89.2 55.4h-0.1s-71.6-4.8-104.5-31.7c0.9 1.7 12.2 22.3 24.5 34.8-0.4 0.4-0.7 0.9-1 1.4-0.1 0.2-0.2 0.3-0.3 0.5 0 0-0.1 0-0.1-0.1l0.1 0.1c-2.2 4.4-0.9 9.9 3.3 12.7 3 2 6 3.4 8.9 4.2 0.8 0.2 1.7 0.3 2.5 0.3 1.3 0 2.5-0.2 3.7-0.7 34.6 30.1 73 56.5 108.7 66.7h-0.1s-89.9-6-131.5-39.9c1.2 2.2 16.6 30.2 32.9 45.8-0.3 0.4-0.7 0.9-0.9 1.3-0.1 0.2-0.2 0.3-0.3 0.5-4.6-2.4-10-5.2-15.7-8.3 4.8 4.6 9.7 9.2 14.7 13.8 0.3 2.9 1.8 5.6 4.4 7.3 2.8 1.8 5.7 3.3 8.6 4.3 31 27.2 64.6 52.4 97.7 69 12.8 6.4 25.5 11.6 37.9 15.1h-0.1c0.1 0 0.2 0.1 0.3 0.1H779c-12 0-46-1.1-73.4-14.5-0.3-0.2-0.7-0.3-1-0.5s-0.7-0.3-1-0.5c-3.7-1.9-7.2-4-10.5-6.3-1.5-1.1-3-2.2-4.4-3.4-1-0.9-2-1.7-3-2.7-1.1-1-2.1-2-3.1-3.1 0 0 4.9 19.8 18.2 27 0 0-52-10.3-67.5-42.8 0 0-5 5.1-4.7 13.3C688 525.6 761.7 585.4 829 604.4c0 0-2.4 0.1-6.5 0.1-19.9 0-80.5-3-110.9-36 0.2 0.7 6 23.3 21.2 31.5 0 0-60.8-12.1-78.9-50.1 0 0-10.6 10.9-2.5 26.8C717 640 796.8 703.3 869.8 724c0 0-2.4 0.1-6.7 0.1-21.8 0-91.1-3.1-125.9-40.7 0.2 0.8 6.7 26.3 24 35.6 0 0-68.6-13.6-89-56.5 0 0-14.1 14.5 0 35 0 0-44.5-19.8-49.8-77.6 0 0-5.8 15.3-0.3 40.2 75.7 78.7 178.9 169.8 272 196.1 0 0-2.7 0.1-7.4 0.1h-0.5c-22.6 0-88.9-3.2-127.2-37-2.3-2-4.5-4.2-6.6-6.4 0.2 0.9 7.2 28.1 25.6 38 0 0-73.2-14.5-95-60.3 0 0-15 15.5 0 37.3 0 0-47.5-21.2-53.1-82.9 0 0-9.3 24.3 5.6 61.7 0 0-33.2-1.2-59.1-73.5 0 0-11.3 28.3 5.5 62.9-1-1.1-60.8-70.5-69.8-121.1-0.4 2.1-0.8 4.3-1.4 6.5-12.7 49.9-67.6 113.5-68.5 114.7 16.8-34.6 5.5-62.9 5.5-62.9-25.8 72.3-59.1 73.5-59.1 73.5 14.8-37.5 5.6-61.7 5.6-61.7-5.6 61.7-53.1 82.9-53.1 82.9 15-21.9 0-37.3 0-37.3-21.8 45.8-95 60.3-95 60.3 18.4-9.9 25.4-37.1 25.6-38-37.1 40-110.8 43.3-134.3 43.3-4.7 0-7.4-0.1-7.4-0.1 93-26.3 196.2-117.3 271.8-196z m517.8 255c-4.8 4.8-11.1 7.4-17.9 7.4H122.2c-13.9 0-25.2-11.3-25.2-25.2 0-6.7 2.6-13.1 7.4-17.9s11.1-7.4 17.9-7.4h779.5c2.4 0 4.8 0.3 7.2 1 0.5 0.2 1 0.3 1.5 0.5 0.8 0.3 1.5 0.6 2.3 1 0.4 0.2 0.7 0.4 1.1 0.6 1.8 1 3.4 2.1 4.9 3.5 0.6 0.5 1.2 1.1 1.7 1.7 4.2 4.6 6.5 10.7 6.5 17 0 6.6-2.6 13-7.4 17.8z" fill="#005E5E" p-id="36767"></path><path d="M414.1 512.1c-1.1 12.4-4.3 22.9-8.5 31.6 3.7-3.8 7.2-7.5 10.8-11.2 0.6-12.9-2.3-20.4-2.3-20.4zM618.2 543.5c-4.1-8.7-7.3-19-8.4-31.4 0 0-2.8 7.4-2.3 20.2 3.5 3.7 7 7.4 10.7 11.2zM428.5 421.8c-0.5 5.1-1.4 9.8-2.5 14.2 1.5-1.5 2.9-3.1 4.3-4.6-0.5-6.2-1.8-9.6-1.8-9.6zM595.7 421.7s-1.4 3.6-1.9 10l4.5 4.8c-1.2-4.5-2.1-9.4-2.6-14.8z" fill="#005E5E" p-id="36768"></path></svg>