<?xml version="1.0" standalone="no"?><!DOCTYPE svg PUBLIC "-//W3C//DTD SVG 1.1//EN" "http://www.w3.org/Graphics/SVG/1.1/DTD/svg11.dtd"><svg t="1766400327531" class="icon" viewBox="0 0 1174 1024" version="1.1" xmlns="http://www.w3.org/2000/svg" p-id="51697" xmlns:xlink="http://www.w3.org/1999/xlink" width="229.296875" height="200"><path d="M1107.2 177.066667h-4.266667c-10.666667 2.133333-27.733333 38.4-29.866666 51.2-2.133333 12.8-42.666667 4.266667-53.333334 4.266666s-19.2-6.4-12.8-23.466666c6.4-14.933333 0-44.8-10.666666-36.266667-12.8 8.533333 4.266667 23.466667-8.533334 27.733333-12.8 6.4-12.8-4.266667-12.8-23.466666 0-14.933333 12.8-38.4-2.133333-42.666667-2.133333 0-4.266667-2.133333-8.533333-2.133333s-12.8-8.533333-21.333334-12.8c-8.533333-4.266667-17.066667-6.4-10.666666-14.933334 4.266667-8.533333 8.533333-19.2 8.533333-25.6 0-6.4-2.133333-8.533333-2.133333-8.533333 2.133333-4.266667 0-12.8 0-12.8s-2.133333-21.333333-8.533334-25.6c-6.4-4.266667-29.866667 2.133333-38.4 4.266667-34.133333 6.4-51.2 25.6-59.733333-6.4-8.533333-32-66.133333-38.4-72.533333-14.933334-4.266667 23.466667 2.133333 61.866667-12.8 68.266667-14.933333 8.533333-17.066667 19.2-32-6.4s-46.933333-6.4-46.933334 6.4c2.133333 12.8-25.6-4.266667-23.466666 23.466667 4.266667 25.6-19.2 36.266667-23.466667 44.8-4.266667 8.533333-27.733333 21.333333-23.466667-8.533334 4.266667-29.866667-2.133333-42.666667-12.8-53.333333-12.8-10.666667-23.466667-6.4-14.933333 14.933333 10.666667 21.333333 10.666667 38.4 2.133333 40.533334-8.533333 0-27.733333 4.266667-27.733333 4.266666 10.666667 6.4 4.266667 0 10.666667 4.266667 4.266667 4.266667-2.133333 14.933333-12.8 2.133333s-21.333333-17.066667-23.466667-23.466666c-2.133333-8.533333-6.4-10.666667-12.8-10.666667s-12.8-12.8-14.933333-19.2c-2.133333-6.4-10.666667-8.533333-19.2 2.133333S469.333333 128 456.533333 128s-44.8 2.133333-44.8 19.2c0 12.8-2.133333 23.466667 0 34.133333 0 4.266667 2.133333 6.4 2.133334 8.533334 4.266667 6.4 12.8 14.933333 19.2 6.4 4.266667-8.533333 12.8-2.133333 17.066666 8.533333 6.4 8.533333-4.266667 25.6 6.4 29.866667s29.866667 2.133333 40.533334-6.4c10.666667-10.666667 17.066667-10.666667 17.066666-10.666667 17.066667 6.4 23.466667 17.066667 27.733334 23.466667 4.266667 6.4 0 6.4 4.266666 19.2 0 17.066667 0 36.266667-8.533333 44.8-8.533333 8.533333-14.933333 6.4-23.466667 0-6.4-6.4-12.8-2.133333-19.2 2.133333-6.4 4.266667-14.933333 4.266667-21.333333 4.266667-12.8-2.133333-23.466667 6.4-34.133333 4.266666-4.266667-2.133333-14.933333 2.133333-23.466667 8.533334-6.4 4.266667-21.333333-12.8-29.866667-19.2-8.533333-8.533333-23.466667-2.133333-36.266666 6.4-6.4 4.266667-12.8 2.133333-17.066667-2.133334 2.133333 6.4 4.266667 14.933333 6.4 23.466667-2.133333 14.933333-6.4 21.333333-6.4 23.466667 0 4.266667-12.8 25.6-14.933333 32-4.266667 6.4-17.066667-8.533333-34.133334 0s-23.466667 17.066667-32 19.2c-8.533333 2.133333-10.666667-8.533333-25.6-4.266667-12.8 2.133333-29.866667 6.4-49.066666-10.666667-19.2-19.2-19.2-29.866667-38.4-10.666666-19.2 19.2-25.6 46.933333-44.8 14.933333-19.2-32-21.333333-42.666667-38.4-17.066667C40.533333 405.333333 27.733333 426.666667 14.933333 430.933333c-8.533333 2.133333-14.933333 14.933333-14.933333 21.333334 0 2.133333 2.133333 4.266667 4.266667 4.266666s6.4-10.666667 12.8-6.4 8.533333 8.533333 10.666666 14.933334c2.133333 6.4 4.266667 14.933333 2.133334 19.2-4.266667 4.266667-12.8 12.8-10.666667 17.066666 0 6.4 2.133333 10.666667 4.266667 19.2s4.266667 19.2 2.133333 21.333334c-2.133333 4.266667-4.266667 6.4-4.266667 8.533333 0 10.666667 4.266667 17.066667 19.2 19.2 19.2 2.133333 40.533333 6.4 40.533334-2.133333s6.4-27.733333 21.333333-21.333334c12.8 4.266667 25.6 10.666667 34.133333 4.266667 2.133333 0 2.133333-2.133333 4.266667-4.266667 8.533333-12.8 19.2-10.666667 23.466667 0 2.133333 10.666667 0 12.8 8.533333 17.066667 8.533333 2.133333 12.8 2.133333 17.066667 17.066667 6.4 14.933333 17.066667 32 6.4 40.533333-10.666667 6.4-17.066667 10.666667-21.333334 29.866667-4.266667 21.333333-14.933333 29.866667-19.2 44.8-6.4 12.8-8.533333 46.933333-14.933333 51.2-6.4 4.266667-25.6 4.266667-14.933333 25.6s21.333333 21.333333 21.333333 29.866666c0 8.533333-2.133333 12.8 6.4 6.4s14.933333-10.666667 14.933333 6.4c0 19.2 2.133333 14.933333 8.533334 21.333334 8.533333 8.533333 2.133333 17.066667 14.933333 19.2 12.8 4.266667 25.6 10.666667 23.466667 17.066666 0 8.533333-12.8-4.266667-14.933334 4.266667-2.133333 10.666667-23.466667 21.333333-17.066666 29.866667 6.4 8.533333 10.666667 10.666667-10.666667 34.133333S149.333333 970.666667 147.2 985.6c2.133333 17.066667-4.266667 17.066667 4.266667 38.4 2.133333 0 21.333333-6.4 42.666666-23.466667s27.733333-25.6 51.2-53.333333c25.6-27.733333 40.533333-29.866667 85.333334-8.533333 46.933333 21.333333 83.2 46.933333 113.066666 59.733333 29.866667 12.8 27.733333 4.266667 49.066667-12.8 21.333333-17.066667 19.2-23.466667 36.266667-46.933333 17.066667-23.466667 38.4-25.6 64-32 25.6-6.4 42.666667-12.8 57.6-14.933334 12.8-4.266667 0-25.6 2.133333-42.666666 4.266667-14.933333 17.066667-23.466667 34.133333-29.866667 17.066667-6.4 34.133333 17.066667 34.133334 25.6-2.133333 10.666667 4.266667 14.933333 8.533333 14.933333s6.4 6.4 6.4 17.066667 14.933333 10.666667 12.8 21.333333c0 10.666667 10.666667 2.133333 23.466667-10.666666 12.8-10.666667 17.066667-6.4 17.066666 4.266666s0 12.8 8.533334 10.666667c8.533333-2.133333 6.4 0 8.533333 14.933333 0 12.8 4.266667 10.666667 42.666667 0 40.533333-10.666667 29.866667-25.6 32-46.933333 2.133333-19.2 19.2-12.8 25.6-23.466667 6.4-12.8 17.066667-4.266667 27.733333-2.133333s23.466667 23.466667 36.266667 29.866667c12.8 8.533333 6.4-10.666667 6.4-19.2 0-10.666667 6.4-17.066667 12.8-32 4.266667-8.533333 8.533333-8.533333 12.8-8.533334 4.266667 2.133333 8.533333 6.4 10.666666 12.8 2.133333 12.8 25.6 8.533333 42.666667 12.8 14.933333 4.266667 14.933333-6.4 12.8-8.533333-2.133333-4.266667-12.8 4.266667-4.266667-21.333333 8.533333-23.466667-19.2 0-23.466666-8.533334-2.133333-2.133333 0-6.4 4.266666-8.533333 4.266667-2.133333 4.266667-12.8 17.066667-17.066667 12.8-4.266667 17.066667-4.266667 29.866667 6.4 29.866667 23.466667 32 2.133333 42.666666-17.066666 6.4-10.666667 8.533333-19.2 14.933334-25.6 2.133333-2.133333 4.266667-6.4 4.266666-10.666667V725.333333c6.4-4.266667 8.533333-19.2 4.266667-21.333333-2.133333-2.133333-10.666667-14.933333-10.666667-27.733333 0-12.8-17.066667-6.4-27.733333-10.666667-10.666667-6.4 6.4-32 17.066667-44.8 8.533333-12.8 0-23.466667-8.533334-32-8.533333-8.533333-6.4-14.933333 4.266667-14.933333s10.666667-10.666667 23.466667-10.666667c12.8-2.133333 8.533333-19.2 4.266666-25.6-4.266667-8.533333 0-12.8 10.666667-14.933333 8.533333-2.133333-4.266667-14.933333-8.533333-29.866667-6.4-14.933333-19.2-17.066667-27.733334-19.2-8.533333-2.133333-25.6 6.4-36.266666 12.8s-12.8 0-19.2 0c-6.4 0-19.2 10.666667-34.133334 12.8-14.933333 2.133333-19.2-8.533333-12.8-12.8 6.4-4.266667 10.666667-10.666667 12.8-21.333333 2.133333-10.666667 8.533333-12.8 21.333334-21.333334s14.933333-14.933333 21.333333-25.6c4.266667-10.666667 10.666667-14.933333 21.333333-10.666666 10.666667 4.266667 14.933333 0 14.933334-8.533334s12.8-14.933333 25.6-23.466666c12.8-8.533333-2.133333-29.866667-8.533334-34.133334s-23.466667-42.666667-14.933333-57.6c8.533333-14.933333-4.266667-12.8-6.4-19.2s4.266667-21.333333 10.666667-29.866666c6.4-10.666667 0-14.933333-10.666667-17.066667-10.666667-4.266667-6.4-12.8-8.533333-21.333333-2.133333-2.133333-4.266667-10.666667-4.266667-19.2" fill="#00A95D" p-id="51698"></path></svg>