<?xml version="1.0" standalone="no"?><!DOCTYPE svg PUBLIC "-//W3C//DTD SVG 1.1//EN" "http://www.w3.org/Graphics/SVG/1.1/DTD/svg11.dtd"><svg t="1725601639338" class="icon" viewBox="0 0 1024 1024" version="1.1" xmlns="http://www.w3.org/2000/svg" p-id="3556" xmlns:xlink="http://www.w3.org/1999/xlink" width="200" height="200"><path d="M358.4 468.114286H241.371429A102.4 102.4 0 0 1 138.971429 365.714286V248.685714A102.4 102.4 0 0 1 241.371429 146.285714h117.028571a102.4 102.4 0 0 1 102.4 102.4V365.714286a102.4 102.4 0 0 1-102.4 102.4zM241.371429 204.8a43.885714 43.885714 0 0 0-43.885715 43.885714V365.714286a43.885714 43.885714 0 0 0 43.885715 43.885714h117.028571a43.885714 43.885714 0 0 0 43.885714-43.885714V248.685714a43.885714 43.885714 0 0 0-43.885714-43.885714z" fill="#333333" p-id="3557"></path><path d="M248.685714 256m29.257143 0l43.885714 0q29.257143 0 29.257143 29.257143l0 43.885714q0 29.257143-29.257143 29.257143l-43.885714 0q-29.257143 0-29.257143-29.257143l0-43.885714q0-29.257143 29.257143-29.257143Z" fill="#333333" p-id="3558"></path><path d="M248.685714 665.6m29.257143 0l43.885714 0q29.257143 0 29.257143 29.257143l0 43.885714q0 29.257143-29.257143 29.257143l-43.885714 0q-29.257143 0-29.257143-29.257143l0-43.885714q0-29.257143 29.257143-29.257143Z" fill="#333333" p-id="3559"></path><path d="M548.571429 555.885714m29.257142 0l14.628572 0q29.257143 0 29.257143 29.257143l0 153.6q0 29.257143-29.257143 29.257143l-14.628572 0q-29.257143 0-29.257142-29.257143l0-153.6q0-29.257143 29.257142-29.257143Z" fill="#333333" p-id="3560"></path><path d="M548.571429 797.257143m29.257142 0l14.628572 0q29.257143 0 29.257143 29.257143l0 21.942857q0 29.257143-29.257143 29.257143l-14.628572 0q-29.257143 0-29.257142-29.257143l0-21.942857q0-29.257143 29.257142-29.257143Z" fill="#333333" p-id="3561"></path><path d="M680.228571 555.885714m29.257143 0l14.628572 0q29.257143 0 29.257143 29.257143l0 43.885714q0 29.257143-29.257143 29.257143l-14.628572 0q-29.257143 0-29.257143-29.257143l0-43.885714q0-29.257143 29.257143-29.257143Z" fill="#333333" p-id="3562"></path><path d="M680.228571 687.542857m29.257143 0l14.628572 0q29.257143 0 29.257143 29.257143l0 131.657143q0 29.257143-29.257143 29.257143l-14.628572 0q-29.257143 0-29.257143-29.257143l0-131.657143q0-29.257143 29.257143-29.257143Z" fill="#333333" p-id="3563"></path><path d="M811.885714 555.885714m29.257143 0l14.628572 0q29.257143 0 29.257142 29.257143l0 117.028572q0 29.257143-29.257142 29.257142l-14.628572 0q-29.257143 0-29.257143-29.257142l0-117.028572q0-29.257143 29.257143-29.257143Z" fill="#333333" p-id="3564"></path><path d="M811.885714 760.685714m29.257143 0l14.628572 0q29.257143 0 29.257142 29.257143l0 58.514286q0 29.257143-29.257142 29.257143l-14.628572 0q-29.257143 0-29.257143-29.257143l0-58.514286q0-29.257143 29.257143-29.257143Z" fill="#333333" p-id="3565"></path><path d="M658.285714 256m29.257143 0l43.885714 0q29.257143 0 29.257143 29.257143l0 43.885714q0 29.257143-29.257143 29.257143l-43.885714 0q-29.257143 0-29.257143-29.257143l0-43.885714q0-29.257143 29.257143-29.257143Z" fill="#333333" p-id="3566"></path><path d="M358.4 877.714286H241.371429a102.4 102.4 0 0 1-102.4-102.4V658.285714a102.4 102.4 0 0 1 102.4-102.4h117.028571A102.4 102.4 0 0 1 460.8 658.285714v117.028572A102.4 102.4 0 0 1 358.4 877.714286zM241.371429 614.4a43.885714 43.885714 0 0 0-43.885715 43.885714v117.028572a43.885714 43.885714 0 0 0 43.885715 43.885714h117.028571a43.885714 43.885714 0 0 0 43.885714-43.885714V658.285714a43.885714 43.885714 0 0 0-43.885714-43.885714zM768 468.114286H650.971429A102.4 102.4 0 0 1 548.571429 365.714286V248.685714A102.4 102.4 0 0 1 650.971429 146.285714h117.028571a102.4 102.4 0 0 1 102.4 102.4V365.714286a102.4 102.4 0 0 1-102.4 102.4zM650.971429 204.8a43.885714 43.885714 0 0 0-43.885715 43.885714V365.714286a43.885714 43.885714 0 0 0 43.885715 43.885714h117.028571a43.885714 43.885714 0 0 0 43.885714-43.885714V248.685714a43.885714 43.885714 0 0 0-43.885714-43.885714z" fill="#333333" p-id="3567"></path></svg>