<?xml version="1.0" standalone="no"?><!DOCTYPE svg PUBLIC "-//W3C//DTD SVG 1.1//EN" "http://www.w3.org/Graphics/SVG/1.1/DTD/svg11.dtd"><svg t="1749520541422" class="icon" viewBox="0 0 1024 1024" version="1.1" xmlns="http://www.w3.org/2000/svg" p-id="9907" xmlns:xlink="http://www.w3.org/1999/xlink" width="200" height="200"><path d="M712.704 531.68v91.744h-78.048l2.048-118.24a27.392 27.392 0 0 0-7.936-19.712 32.8 32.8 0 0 0-19.456-17.28l-61.952-19.872a56.64 56.64 0 0 0 3.424-19.456v-26.752l106.016 20.32a32.096 32.096 0 0 0 37.856-25.632 32.384 32.384 0 0 0-25.632-37.856l-118.24-22.688v-31.488c0-31.168-25.632-56.8-56.768-56.8h-40.48c-31.168 0-56.768 25.632-56.768 56.8v124.064c0 7.648 1.536 14.976 4.352 21.664 1.792 11.584 9.888 21.824 21.6 25.92 2.848 1.856 5.888 3.488 9.056 4.832a28.16 28.16 0 0 0-2.4 11.392v207.936l0.032 1.152H383.36v78.336H224.064v86.496H32.448v91.744h272.576v-86.496h191.616v-78.336h159.296v-78.336h162.208v-91.744h167.136v-91.744h-272.608z m-226.848 168.928v-203.872l85.856 27.52-1.696 98.016v1.152h-24.448v78.336h-59.712v-1.152zM432 215.936a80.96 80.96 0 1 0 80.96-140.192 80.96 80.96 0 0 0-80.96 140.192z" p-id="9908" fill="#1296db"></path></svg>