<?xml version="1.0" standalone="no"?><!DOCTYPE svg PUBLIC "-//W3C//DTD SVG 1.1//EN" "http://www.w3.org/Graphics/SVG/1.1/DTD/svg11.dtd"><svg t="1769062116162" class="icon" viewBox="0 0 3638 1024" version="1.1" xmlns="http://www.w3.org/2000/svg" p-id="22371" xmlns:xlink="http://www.w3.org/1999/xlink" width="710.546875" height="200"><path d="M446.638298 0c-137.985816 0-281.78156 70.44539-376.192908 178.655319l119.829787 87.148936c68.992908-68.266667 154.689362-112.567376 252.731915-112.567376 107.483688 0 161.225532 47.931915 153.963121 120.556029-22.513475 214.967376-559.205674 374.740426-587.529078 641.270922L0 1002.212766h723.33617l16.703546-153.963121H226.587234c100.947518-166.30922 525.07234-299.211348 554.848227-575.909219C798.139007 116.198582 698.643972 0 446.638298 0zM3525.900709 619.483688L3625.395745 21.787234h-169.940426l-621.662411 612.221277-23.239717 140.164539h504.737589l-39.217021 234.575886h185.191489l39.217022-234.575886h108.209929l25.418439-155.415603h-108.209929z m-185.191489 0h-286.139007l342.785815-339.880851-56.646808 339.880851zM2407.489362 0c-137.985816 0-281.78156 70.44539-376.192908 178.655319l119.829787 87.148936c68.992908-68.266667 154.689362-112.567376 252.731915-112.567376 107.483688 0 161.225532 47.931915 153.963121 120.556029-22.513475 214.241135-559.205674 374.014184-587.529078 640.544681l-9.441135 87.148936h723.33617l16.703546-153.963121h-512.726241c100.947518-166.30922 525.07234-299.211348 554.848227-575.90922C2758.990071 116.198582 2659.495035 0 2407.489362 0zM1263.659574 307.2h-263.625531l-5.083688 39.217021h263.625532zM1244.777305 375.466667h-263.625532l-6.53617 39.217021h263.625532zM1228.073759 481.497872l5.809929-37.764539h-273.066667l-5.083688 37.764539h127.092199zM1224.442553 510.547518h-275.971631l-5.083688 39.217021h275.24539zM1301.424113 277.424113l5.80993-37.764539h-265.078015l-5.083688 37.764539h192.453901zM1722.643972 142.343262l5.083688-37.764539h-570.099291l-5.083688 37.764539h61.004255zM1540.357447 239.659574l-5.083688 37.764539h254.184397l5.083688-37.764539H1764.765957zM1455.387234 171.392908l-7.262411 39.217021H1764.765957l6.536171-39.217021h-119.103546zM1557.060993 346.417021h252.731915l6.53617-39.217021h-254.184397zM1638.4 75.529078l5.809929-39.217021H1262.207092l-5.083688 39.217021h339.15461zM1406.002837 210.609929l5.809929-39.217021h-316.641135l-5.083688 39.217021h26.870922zM1213.548936 578.814184h-274.519149l-5.083688 37.764539h273.792908zM1004.391489 849.702128l-5.083688 39.217021H1654.377305l7.262411-39.217021h-268.70922zM1204.107801 645.628369h-263.625531l-5.083688 39.217021H1198.297872zM1490.246809 713.895035l-5.083688 37.764539H1749.514894l5.809929-37.764539h-122.008511zM1506.950355 684.84539h262.89929l5.809929-39.217021h-263.625531zM1525.832624 616.578723h263.625532l6.53617-37.764539H1532.368794zM1551.251064 443.733333l-5.083688 37.764539h275.24539l5.809929-37.764539h-210.609929zM1555.608511 414.683688h265.804255l5.809929-39.217021h-265.078014zM1536.726241 549.764539h273.792908l7.262411-39.217021h-275.971631zM1209.191489 751.659574l5.809929-37.764539h-265.078014l-5.083688 37.764539h154.689362zM1449.577305 781.435461l-6.53617 39.217021h264.351773l7.262411-39.217021h-110.388652zM1230.978723 820.652482l5.809929-39.217021H973.163121l-5.083688 39.217021h103.126241zM1175.784397 984.782979l-5.809929 39.217021h265.078014l5.083688-39.217021h-149.605674zM1047.965957 917.968794l-5.809929 37.764539h538.144681l6.53617-37.764539H1387.120567z" fill="#FFC500" p-id="22372"></path></svg>