<?xml version="1.0" standalone="no"?><!DOCTYPE svg PUBLIC "-//W3C//DTD SVG 1.1//EN" "http://www.w3.org/Graphics/SVG/1.1/DTD/svg11.dtd"><svg t="1769070431778" class="icon" viewBox="0 0 1024 1024" version="1.1" xmlns="http://www.w3.org/2000/svg" p-id="24264" width="600" height="600" xmlns:xlink="http://www.w3.org/1999/xlink"><path d="M98.8 613.2l81.4-86.3c23.3-24.6 34.4-35.2 34.4-52.8 0-13.9-10.2-23.3-25.8-23.3-18.8 0-29.5 14.7-35.6 32.7l-51.6-13.9c9.8-43.8 44.6-68.8 86.8-68.8 57.3 0 83.5 34 83.5 69.6 0 26.2-18 50.7-43 77.3l-6.1 6.5c-7.8 8.2-24.6 18.8-24.6 18.8s20.9-2 28.2-2H274v47.1H98.8v-4.9zM281 510.9c0-65.1 54.4-110.1 113.4-110.1 59.3 0 113.8 45 113.8 110.1 0 64.7-54.4 110.9-113.8 110.9-59 0-113.4-46.2-113.4-110.9z m168.6 0c0-38.1-24.1-61-55.2-61-30.7 0-54.8 22.9-54.8 61s24.1 61.8 54.8 61.8c31 0 55.2-23.7 55.2-61.8zM508.5 613.2l81.4-86.3c23.3-24.6 34.4-35.2 34.4-52.8 0-13.9-10.2-23.3-25.8-23.3-18.8 0-29.5 14.7-35.6 32.7l-51.6-13.9c9.8-43.8 44.6-68.8 86.8-68.8 57.3 0 83.5 34 83.5 69.6 0 26.2-18 50.7-43 77.3l-6.1 6.5c-7.8 8.2-24.6 18.8-24.6 18.8s20.9-2 28.2-2h47.5v47.1H508.5v-4.9z" fill="#1296db" p-id="24265"></path><path d="M682.8 606.3l48.3-24.1c6.1 16 18 29.1 42.6 29.1 23.7 0 37.7-16.4 37.7-37.2 0-22.5-14.7-38.1-43-38.1-24.6 0-42.2 10.2-54.4 20.1l-4.9-2V404.5h139.1v45.8h-93.3v45c5.3-3.3 17.6-6.1 29.9-6.1 51.6 0 85.5 38.1 85.5 85.1 0 45.8-30.7 85.9-95.8 85.9-50.3 0.1-80.2-26.1-91.7-53.9z" fill="#1296db" p-id="24266"></path></svg>