<?xml version="1.0" standalone="no"?><!DOCTYPE svg PUBLIC "-//W3C//DTD SVG 1.1//EN" "http://www.w3.org/Graphics/SVG/1.1/DTD/svg11.dtd"><svg t="1743668808017" class="icon" viewBox="0 0 1691 1024" version="1.1" xmlns="http://www.w3.org/2000/svg" p-id="1493" xmlns:xlink="http://www.w3.org/1999/xlink" width="330.2734375" height="200"><path d="M238.191304 865.947826c4.452174 2.226087 11.130435 0 17.808696 0 4.452174-2.226087 11.130435-4.452174 15.582609-8.904348 4.452174-4.452174 11.130435-6.678261 17.808695-8.904348 13.356522-4.452174 31.165217-8.904348 48.973913-8.904347s35.617391-2.226087 53.426087-4.452174c4.452174 0 6.678261-2.226087 8.904348-2.226087h51.2c2.226087 0 4.452174-2.226087 6.678261-2.226087h57.878261c4.452174 0 6.678261-2.226087 8.904348-2.226087h6.678261c4.452174 0 8.904348-2.226087 13.356521 0h13.356522c2.226087 0 2.226087-2.226087 4.452174-2.226087 0 0 2.226087-2.226087 4.452174-2.226087h13.356522c13.356522-2.226087 26.713043-4.452174 42.295652-4.452174 15.582609-2.226087 26.713043-4.452174 37.843478-6.678261h8.904348c2.226087 0 2.226087 0 2.226087-2.226087v-2.226087c4.452174 0 8.904348-2.226087 13.356522-2.226087s8.904348 0 11.130434-2.226087c4.452174 0 11.130435-2.226087 15.582609-2.226087 4.452174-2.226087 8.904348-2.226087 11.130435-2.226087 6.678261-2.226087 11.130435-2.226087 11.130435-2.226087 2.226087 0 4.452174-2.226087 4.452174-2.226087 2.226087 0 2.226087 0 2.226087-2.226086-13.356522 0-24.486957 0-35.617392 2.226086s-22.26087 2.226087-33.391304 4.452174c-6.678261 0-13.356522 2.226087-22.26087 2.226087s-13.356522 0-17.808695 2.226087c-2.226087 0-6.678261 0-11.130435 2.226087s-8.904348 0-11.130435-2.226087c13.356522-2.226087 28.93913-4.452174 46.747826-6.678261 17.808696-2.226087 31.165217-4.452174 40.069565-8.904347h2.226087c4.452174 0 6.678261 0 6.678261-2.226087s2.226087-2.226087 6.678261-2.226087c2.226087 0 2.226087 0 2.226087-2.226087V779.130435c4.452174-2.226087 8.904348-2.226087 13.356522-2.226087s8.904348-2.226087 11.130435-4.452174c-4.452174-4.452174-8.904348-6.678261-15.582609-6.678261-6.678261-2.226087-11.130435-4.452174-13.356522-8.904348 0-4.452174 2.226087-8.904348 2.226087-11.130435 0-2.226087 0-4.452174-4.452174-11.130434-4.452174 0-8.904348 0-11.130435-2.226087-2.226087-2.226087-4.452174-2.226087-8.904347-4.452174-2.226087 0-2.226087 0-4.452174 2.226087 0 0-2.226087 2.226087-4.452174 2.226087s-4.452174 2.226087-6.678261 0h-6.678261c-4.452174 0-4.452174-2.226087-4.452174-8.904348-4.452174 0-8.904348 0-11.130435-2.226087-2.226087 2.226087-4.452174 4.452174-8.904348 4.452174h-8.904347c-11.130435 2.226087-22.26087 2.226087-35.617392 4.452174-13.356522 0-24.486957 2.226087-31.165217 4.452174-2.226087 0-4.452174 2.226087-6.678261 0h-6.678261l-66.782608 6.678261c-22.26087 2.226087-44.521739 4.452174-64.556522 4.452173 0-4.452174 2.226087-6.678261 4.452174-8.904347s4.452174-2.226087 6.678261-2.226087l2.226087-2.226087s0-2.226087 2.226086-2.226087c2.226087-2.226087 4.452174-4.452174 6.678261-4.452174 2.226087-2.226087 4.452174-4.452174 6.678261-4.452174h4.452174c4.452174-4.452174 8.904348-8.904348 11.130435-13.356522 2.226087-4.452174 6.678261-8.904348 11.130435-11.130435 2.226087-2.226087 4.452174-2.226087 4.452174-2.226087s4.452174 0 4.452174-2.226087c6.678261-4.452174 11.130435-11.130435 15.582608-17.808695 4.452174-6.678261 8.904348-11.130435 13.356522-17.808696h4.452174c2.226087 0 2.226087 0 2.226087-2.226087s0-2.226087 2.226087-2.226087c4.452174-4.452174 8.904348-8.904348 11.130435-13.356521s6.678261-8.904348 8.904347-11.130435c6.678261-4.452174 11.130435-8.904348 17.808696-13.356522s11.130435-8.904348 15.582609-13.356522c4.452174-4.452174 11.130435-8.904348 15.582608-15.582608 4.452174-6.678261 8.904348-11.130435 15.582609-15.582609 11.130435-8.904348 20.034783-20.034783 31.165218-31.165218 11.130435-11.130435 20.034783-20.034783 28.93913-31.165217l15.582609-15.582609c4.452174-4.452174 8.904348-8.904348 13.356521-15.582608 8.904348-8.904348 17.808696-17.808696 26.713044-28.939131 8.904348-8.904348 17.808696-20.034783 22.260869-28.93913l11.130435-11.130435c2.226087-2.226087 6.678261-6.678261 8.904348-11.130435v-4.452174c0-2.226087 2.226087-2.226087 2.226087-2.226087 2.226087 0 2.226087 0 4.452174-2.226087s2.226087-4.452174 4.452174-4.452173v-2.226087c0-2.226087 2.226087-2.226087 2.226087-4.452174 2.226087-2.226087 4.452174-2.226087 4.452174-4.452174 2.226087 0 2.226087-2.226087 4.452174-4.452174v-4.452174c2.226087 0 4.452174 0 6.67826-2.226087l2.226087-4.452174v-2.226087h2.226087c4.452174-6.678261 11.130435-15.582609 15.582609-24.486956 4.452174-8.904348 8.904348-15.582609 15.582609-20.034783 0-2.226087 2.226087-2.226087 2.226087-4.452174s0-2.226087 2.226087-4.452174c0-2.226087 2.226087-2.226087 2.226087-4.452174s2.226087-2.226087 2.226087-4.452174c4.452174-4.452174 4.452174-8.904348 4.452174-11.130434s0-2.226087 2.226086-2.226087c0 0 2.226087 0 2.226087-2.226087 2.226087-2.226087 2.226087-6.678261 4.452174-8.904348 0-4.452174 2.226087-6.678261 4.452174-6.678261 2.226087-2.226087 2.226087-4.452174 2.226087-8.904348s2.226087-6.678261 2.226087-8.904348c2.226087-11.130435 2.226087-20.034783 2.226087-26.713043s4.452174-20.034783 2.226087-28.939131c0 0 0-2.226087-2.226087-2.226087 0 0-2.226087 0-2.226087-2.226087-2.226087-4.452174-4.452174-8.904348-4.452174-13.356521s0-6.678261-4.452174-8.904348v-2.226087-4.452174h-2.226087v-4.452174l-2.226087-2.226087s-2.226087 0-2.226087-2.226087c0 0 0-2.226087-2.226086-6.678261 0-2.226087 0-4.452174-2.226087-4.452174-2.226087-2.226087-4.452174-4.452174-8.904348-6.67826-2.226087-2.226087-4.452174-4.452174-6.678261-4.452174-4.452174-2.226087-6.678261-4.452174-8.904348-6.678261-2.226087-2.226087-4.452174-4.452174-8.904348-6.678261l-2.226087-2.226087s-2.226087 0-2.226087-2.226087c-2.226087-2.226087-2.226087-2.226087-2.226087-4.452174s-2.226087-2.226087-2.226087-2.226087c-4.452174-2.226087-11.130435-4.452174-17.808695-6.678261-11.130435 0-17.808696-2.226087-22.26087-2.226087-4.452174-6.678261-8.904348-13.356522-15.582609-17.808695-4.452174-2.226087-6.678261-4.452174-6.67826-4.452174h-8.904348s-2.226087-2.226087-2.226087-4.452174-2.226087-2.226087-2.226087-4.452174c-2.226087 0-6.678261-2.226087-8.904348-2.226087s-6.678261 0-8.904348-2.226087c-6.678261 0-13.356522-2.226087-22.260869-2.226087s-17.808696 0-24.486957 2.226087c-22.26087 2.226087-44.521739 6.678261-69.008696 17.808696s-44.521739 17.808696-62.330434 28.93913c-4.452174 2.226087-6.678261 4.452174-8.904348 4.452174-2.226087 2.226087-4.452174 2.226087-6.678261 2.226087h-2.226087v2.226087c-2.226087 2.226087-2.226087 2.226087-4.452174 2.226087 0 0-2.226087 0-4.452174 2.226087l-2.226087 2.226087s0 2.226087-2.226087 2.226087c-2.226087 2.226087-4.452174 2.226087-4.452174 2.226087h-4.452174c-2.226087 2.226087-2.226087 4.452174-4.452173 4.452174 0 2.226087-2.226087 2.226087-4.452174 4.452173-4.452174 4.452174-8.904348 6.678261-13.356522 8.904348-4.452174 2.226087-8.904348 4.452174-11.130435 6.678261-6.678261 4.452174-13.356522 8.904348-15.582609 15.582609-4.452174 4.452174-8.904348 11.130435-13.356521 15.582609-4.452174 4.452174-8.904348 6.678261-11.130435 8.904347-4.452174 2.226087-6.678261 6.678261-11.130435 8.904348l-20.034782 20.034783-20.034783 20.034782c-2.226087 2.226087-4.452174 4.452174-8.904348 11.130435 0 0-2.226087 2.226087-2.226087 4.452174l-2.226087 2.226087-2.226087 2.226087c-2.226087 2.226087-2.226087 4.452174-2.226087 4.452174l-4.452174 4.452174c-2.226087 2.226087-2.226087 2.226087-4.452174 2.226087-2.226087 2.226087-2.226087 4.452174-4.452173 8.904348s-2.226087 4.452174-4.452174 6.678261V287.165217l-2.226087 2.226087s-2.226087 0-2.226087 2.226087c-2.226087 2.226087-2.226087 6.678261-2.226087 11.130435s-2.226087 6.678261-2.226087 8.904348c-2.226087 2.226087-2.226087 4.452174-4.452174 8.904348 0 2.226087-2.226087 4.452174-4.452174 8.904348s0 8.904348 4.452174 11.130434c0-4.452174 0-11.130435 4.452174-15.582608 2.226087-4.452174 6.678261-11.130435 8.904348-17.808696 0-2.226087 2.226087-4.452174 2.226087-4.452174 0-2.226087 0-2.226087 2.226087-4.452174l2.226086-2.226087s2.226087-2.226087 2.226087-4.452174c2.226087-4.452174 2.226087-6.678261 2.226087-8.904348 0-2.226087 0-4.452174 2.226087-6.67826 2.226087-2.226087 4.452174-4.452174 6.678261-4.452174s4.452174-2.226087 4.452174-4.452174 0-4.452174 2.226087-4.452174l4.452174-4.452174c2.226087-4.452174 4.452174-6.678261 8.904348-8.904348 2.226087-2.226087 6.678261-4.452174 8.904348-11.130435 4.452174-4.452174 11.130435-11.130435 15.582608-17.808695 4.452174-6.678261 11.130435-11.130435 17.808696-17.808696l15.582609-15.582609c6.678261-4.452174 11.130435-11.130435 15.582608-15.582608h4.452174c2.226087-2.226087 6.678261-4.452174 8.904348-8.904348 2.226087-2.226087 4.452174-4.452174 4.452174-6.678261h4.452174c2.226087 4.452174 4.452174 4.452174 4.452174 2.226087 2.226087-2.226087 4.452174-2.226087 4.452174-4.452174l8.904348-8.904348h4.452174c4.452174 0 4.452174-2.226087 4.452173-2.226087s0-2.226087 2.226087-2.226087c4.452174 0 6.678261-2.226087 6.678261-4.452174s2.226087-4.452174 4.452174-4.452174h4.452174v-2.226087h4.452174s2.226087-2.226087 2.226087-4.452173 0-2.226087 2.226087-4.452174h2.226087c2.226087 0 2.226087 0 4.452174-2.226087 2.226087 0 4.452174 0 4.452174-2.226087 2.226087 0 2.226087 0 4.452174-2.226087 0 2.226087 2.226087 0 2.226087-2.226087 4.452174-2.226087 8.904348-4.452174 15.582608-8.904348s11.130435-4.452174 15.582609-4.452174c2.226087 0 2.226087-2.226087 2.226087-2.226087 11.130435-2.226087 20.034783-6.678261 28.93913-11.130435 11.130435-4.452174 20.034783-6.678261 31.165218-8.904347s22.26087-4.452174 31.165217-4.452174c11.130435 0 20.034783 0 28.939131 2.226087h6.67826c2.226087 0 2.226087 0 4.452174 2.226087s4.452174 2.226087 8.904348 2.226086 4.452174 0 4.452174 4.452174c2.226087 0 2.226087 2.226087 4.452174 2.226087 0 0 0 2.226087-2.226087 2.226087-13.356522-4.452174-26.713043-4.452174-40.069565-2.226087-13.356522 2.226087-26.713043 4.452174-37.843478 6.678261-4.452174 2.226087-8.904348 4.452174-15.582609 4.452174s-11.130435 2.226087-15.582609 4.452174c-4.452174 2.226087-11.130435 4.452174-17.808695 4.452174-6.678261 2.226087-11.130435 4.452174-11.130435 4.452174s0 2.226087-2.226087 0h-4.452174V111.304348c0 2.226087 0 2.226087-2.226087 2.226087s-2.226087-2.226087-4.452174-2.226087c-2.226087 2.226087-4.452174 4.452174-8.904348 4.452174-2.226087 2.226087-4.452174 2.226087-6.678261 4.452174 0 0 0 2.226087-2.226087 0s-2.226087 0-4.452174 0v2.226087h-4.452173v4.452174H534.26087c-2.226087 0-2.226087 2.226087-2.226087 2.226086s0 2.226087-2.226087 2.226087-4.452174 2.226087-6.678261 2.226087c-2.226087 0-4.452174 2.226087-6.678261 4.452174s-4.452174 6.678261-6.678261 6.678261c-2.226087 2.226087-4.452174 2.226087-6.678261 2.226087s-2.226087 0-2.226087 2.226087v2.226087c-4.452174 2.226087-6.678261 2.226087-8.904348 2.226087s-2.226087 2.226087-4.452174 4.452174l-2.226086 2.226087s-2.226087 2.226087-4.452174 2.226087c-4.452174 4.452174-8.904348 6.678261-11.130435 8.904348s-6.678261 6.678261-11.130435 8.904347c-2.226087 2.226087-4.452174 4.452174-4.452174 6.678261l-4.452174 4.452174c-4.452174 0-8.904348 2.226087-11.130435 8.904348s-6.678261 8.904348-8.904347 8.904348c-2.226087 0-2.226087 0-2.226087 2.226087v2.226087c-6.678261 4.452174-15.582609 11.130435-22.26087 17.808695-8.904348 8.904348-13.356522 15.582609-15.582609 22.26087l-8.904347 8.904348c-4.452174 4.452174-6.678261 6.678261-6.678261 8.904348 0 4.452174-2.226087 6.678261-4.452174 6.678261-2.226087 2.226087-4.452174 2.226087-4.452174 6.67826v2.226087l-2.226087 2.226087c-2.226087 2.226087-2.226087 4.452174-2.226087 4.452174 0 2.226087 0 4.452174-2.226087 4.452174l-2.226087 2.226087c0 2.226087-2.226087 2.226087-2.226087 2.226087l-8.904348 17.808696c-4.452174 8.904348-6.678261 13.356522-6.678261 15.582608L333.913043 333.913043c2.226087 4.452174 2.226087 6.678261 4.452174 8.904348 2.226087 2.226087 4.452174 2.226087 11.130435 2.226087 4.452174-2.226087 6.678261-4.452174 4.452174-11.130435-2.226087-4.452174-2.226087-8.904348 0-13.356521 4.452174-4.452174 6.678261-6.678261 8.904348-11.130435 2.226087-4.452174 4.452174-8.904348 8.904348-13.356522h4.452174V289.391304s0-2.226087 2.226087-2.226087 2.226087-2.226087 2.226087-2.226087c4.452174-4.452174 6.678261-8.904348 11.130434-11.130434 4.452174-4.452174 6.678261-6.678261 8.904348-11.130435 4.452174-4.452174 6.678261-8.904348 11.130435-13.356522s6.678261-8.904348 11.130435-11.130435c2.226087-2.226087 4.452174-2.226087 6.678261-4.452174 2.226087 0 4.452174-2.226087 8.904347-4.452173 2.226087-2.226087 2.226087-4.452174 4.452174-4.452174 0-2.226087 2.226087-4.452174 4.452174-4.452174l6.678261-6.678261c2.226087-2.226087 4.452174-2.226087 6.678261-4.452174s2.226087-4.452174 2.226087-4.452174c2.226087 0 4.452174-2.226087 4.452174-2.226087s4.452174 0 4.452174-2.226087c2.226087-2.226087 4.452174-4.452174 4.452174-6.678261s4.452174-4.452174 4.452174-6.678261h8.904347c2.226087-2.226087 2.226087-2.226087 2.226087-4.452174 0 0 2.226087-2.226087 4.452174-2.226087s2.226087-2.226087 4.452174 0c2.226087 0 2.226087 0 4.452174-2.226086 0 0 2.226087 0 2.226087-2.226087s2.226087-2.226087 2.226087-4.452174c2.226087-2.226087 4.452174-2.226087 6.678261-2.226087s6.678261 0 8.904348-2.226087h-2.226087l-2.226087 2.226087-2.226087 2.226087c-2.226087 2.226087-4.452174 4.452174-6.678261 4.452174 0 2.226087-2.226087 4.452174-4.452174 4.452173-2.226087 2.226087-4.452174 4.452174-4.452174 6.678261-2.226087 2.226087-4.452174 4.452174-6.678261 4.452174-2.226087 2.226087-6.678261 2.226087-8.904348 4.452174l-2.226086 2.226087s0 2.226087-2.226087 2.226087-2.226087 2.226087-2.226087 2.226087-2.226087 0-4.452174 2.226087c-4.452174 4.452174-8.904348 6.678261-11.130435 13.356522-2.226087 4.452174-6.678261 8.904348-8.904348 11.130435 0 0-2.226087 2.226087-4.452174 2.226086s-2.226087 0-4.452174 2.226087c-4.452174 2.226087-6.678261 4.452174-8.904348 6.678261s-4.452174 6.678261-6.67826 11.130435c-2.226087 2.226087-6.678261 4.452174-8.904348 8.904348-4.452174 2.226087-6.678261 4.452174-8.904348 6.678261 0 2.226087-2.226087 4.452174-2.226087 4.452174s0 2.226087-2.226087 4.452174l-6.678261 6.67826c-2.226087 2.226087-4.452174 2.226087-6.678261 6.678261-4.452174 4.452174-6.678261 8.904348-8.904348 13.356522-2.226087 4.452174-4.452174 8.904348-8.904347 13.356522l-13.356522 20.034782c-4.452174 6.678261-4.452174 13.356522-2.226087 20.034783 0 0 2.226087 2.226087 4.452174 2.226087s2.226087 2.226087 2.226087 2.226087c2.226087 2.226087 2.226087 4.452174 2.226087 8.904348s2.226087 6.678261 6.678261 6.678261c2.226087 2.226087 2.226087 4.452174-2.226087 6.678261-2.226087 2.226087-2.226087 2.226087 2.226087 4.452173 0 0 2.226087-2.226087 2.226087-4.452173s2.226087-2.226087 2.226087-2.226087h13.356521c2.226087 0 2.226087-2.226087 4.452174-4.452174 0-2.226087 2.226087-4.452174 2.226087-4.452174 2.226087-2.226087 4.452174-4.452174 4.452174-6.678261 2.226087-2.226087 2.226087-4.452174 2.226087-6.678261s0-4.452174 2.226087-4.452174 2.226087-2.226087 4.452174-2.226087l4.452174-4.452174 4.452174-4.452174v-2.226087-2.226087c2.226087 0 4.452174 0 6.678261-2.226087 0-2.226087 2.226087-2.226087 2.226087-2.226087s2.226087 0 2.226086-2.226086v-2.226087-4.452174l8.904348-8.904348 8.904348-8.904348c2.226087-2.226087 4.452174-4.452174 8.904348-6.678261 2.226087-2.226087 2.226087-4.452174 4.452174-4.452174l4.452174-4.452174c2.226087-2.226087 4.452174-2.226087 4.452174-2.226087s4.452174 0 4.452174-2.226087 2.226087-2.226087 4.452174-4.452174 2.226087-2.226087 6.67826-4.452173c0 0 2.226087 0 2.226087-2.226087h4.452174c2.226087 0 4.452174-2.226087 4.452174-2.226087 0-2.226087 2.226087-4.452174 2.226087-6.678261h4.452174c2.226087-2.226087 4.452174-2.226087 6.678261-4.452174 2.226087-2.226087 2.226087-2.226087 4.452174-2.226087 2.226087-2.226087 2.226087-2.226087 2.226087-4.452174 0 0 0-2.226087 2.226087-2.226087h4.452174s2.226087 0 2.226087-2.226087 0-2.226087 2.226087-4.452174h4.452173c2.226087 0 4.452174-2.226087 6.678261-4.452174l4.452174-4.452174c2.226087-2.226087 4.452174-2.226087 4.452174-2.226087s4.452174 0 4.452174-2.226087c4.452174-4.452174 6.678261-8.904348 8.904348-11.130434 4.452174-2.226087 6.678261-4.452174 8.904348-4.452174 2.226087-2.226087 6.678261-4.452174 11.130435-4.452174 2.226087 0 2.226087-2.226087 2.226086-2.226087s2.226087-2.226087 2.226087-4.452174h4.452174v-11.130435h4.452174v-2.226087h22.26087v-4.452174c0-2.226087 0-2.226087 2.226087-2.226087H632.208696v-4.452174h4.452174v-2.226087h4.452173V178.086957H647.791304v-2.226087-2.226087h6.678261c4.452174-2.226087 6.678261-4.452174 8.904348-4.452174 2.226087-2.226087 6.678261-2.226087 8.904348-2.226087 2.226087 0 4.452174 0 2.226087-2.226087 0-2.226087 0-2.226087 2.226087-2.226087 2.226087-2.226087 4.452174-2.226087 8.904348-2.226087 2.226087 0 4.452174-2.226087 4.452174-2.226087h4.452173c2.226087-2.226087 6.678261-4.452174 8.904348-4.452174 4.452174-2.226087 6.678261 0 8.904348 0-2.226087 8.904348-6.678261 13.356522-13.356522 15.582609-2.226087 0-8.904348 4.452174-13.356521 8.904348 2.226087 0 6.678261-2.226087 11.130434-4.452174s6.678261-2.226087 8.904348 0c0 2.226087-2.226087 4.452174-2.226087 8.904347s-2.226087 4.452174-2.226087 6.678261v2.226087l-2.226087 2.226087c0 2.226087-2.226087 2.226087-2.226087 4.452174s0 2.226087-2.226087 4.452174c0 2.226087-2.226087 2.226087-4.452173 4.452174l-4.452174 4.452174-2.226087 4.452174c0 2.226087-2.226087 4.452174-4.452174 4.452174-2.226087 2.226087-2.226087 4.452174-4.452174 4.452174 0 2.226087 0 4.452174-2.226087 4.452174s-4.452174 2.226087-4.452174 2.226086v4.452174c0 2.226087-2.226087 4.452174-4.452174 6.678261-2.226087 4.452174-4.452174 6.678261-6.678261 8.904348l-6.678261 6.678261c-2.226087 6.678261-4.452174 8.904348-6.678261 8.904348-2.226087 2.226087-4.452174 2.226087-6.67826 4.452174V278.26087c-2.226087 2.226087-4.452174 4.452174-6.678261 4.452173s-4.452174 4.452174-4.452174 4.452174c0 4.452174-4.452174 8.904348-8.904348 11.130435-4.452174 4.452174-8.904348 6.678261-8.904348 8.904348v2.226087h-2.226087c-4.452174 4.452174-6.678261 8.904348-11.130435 11.130435-4.452174 4.452174-6.678261 6.678261-11.130434 8.904348v4.452173c-2.226087 2.226087-4.452174 2.226087-6.678261 4.452174-2.226087 0-4.452174 2.226087-6.678261 4.452174-4.452174 4.452174-8.904348 8.904348-13.356522 15.582609-4.452174 4.452174-8.904348 11.130435-13.356522 15.582609-8.904348 13.356522-20.034783 24.486957-33.391304 35.617391-11.130435 11.130435-24.486957 22.26087-33.391304 31.165217-6.678261 6.678261-11.130435 13.356522-17.808696 17.808696s-11.130435 11.130435-15.582609 15.582609c-2.226087 0-4.452174 2.226087-6.678261 4.452174-11.130435 8.904348-20.034783 20.034783-31.165217 28.93913s-20.034783 17.808696-28.93913 28.939131l-20.034783 20.034782c-6.678261 6.678261-11.130435 13.356522-17.808696 17.808696-2.226087 2.226087-4.452174 2.226087-6.67826 4.452174-2.226087 0-4.452174 2.226087-6.678261 4.452174s-2.226087 4.452174-4.452174 4.452174-2.226087 4.452174-4.452174 4.452173c-8.904348 8.904348-17.808696 15.582609-26.713044 22.26087s-17.808696 13.356522-24.486956 20.034783c-4.452174 4.452174-6.678261 6.678261-11.130435 8.904347-4.452174 2.226087-6.678261 6.678261-8.904348 8.904348-4.452174 4.452174-8.904348 6.678261-11.130435 8.904348-4.452174 2.226087-6.678261 4.452174-8.904347 8.904348-4.452174 2.226087-8.904348 4.452174-11.130435 8.904348-2.226087 2.226087-6.678261 6.678261-11.130435 8.904348l-8.904348 8.904347-8.904348 8.904348c-2.226087 2.226087-4.452174 2.226087-6.67826 4.452174-2.226087 0-4.452174 2.226087-6.678261 4.452174-4.452174 4.452174-8.904348 8.904348-15.582609 13.356522-4.452174 4.452174-11.130435 8.904348-15.582609 13.356522s0 13.356522-2.226087 15.582608c-2.226087 2.226087-6.678261 4.452174-11.130434 8.904348-6.678261 4.452174-11.130435 8.904348-15.582609 13.356522-4.452174 4.452174-8.904348 11.130435-13.356522 15.582608-2.226087 0-4.452174 2.226087-4.452174 4.452174s2.226087 4.452174 4.452174 4.452174c2.226087-4.452174 4.452174-4.452174 6.678261-4.452174 4.452174 0 8.904348-4.452174 11.130435-8.904347 2.226087-4.452174 4.452174-8.904348 6.678261-8.904348h4.452174l4.452173-4.452174c2.226087-4.452174 2.226087-6.678261 6.678261-6.678261 2.226087-2.226087 6.678261-4.452174 8.904348-8.904348 2.226087-2.226087 6.678261-4.452174 8.904348-8.904348 4.452174-2.226087 6.678261-4.452174 8.904348-6.678261s4.452174-4.452174 4.452174-6.67826c2.226087-2.226087 2.226087-2.226087 4.452174-2.226087s2.226087 0 4.452174-2.226087 6.678261-4.452174 8.904347-6.678261l8.904348-8.904348 6.678261-6.678261c2.226087-2.226087 4.452174-2.226087 4.452174-2.226087 4.452174 0 6.678261-2.226087 6.678261-4.452174l2.226087-4.452174c2.226087-2.226087 4.452174-2.226087 6.678261-2.226087 2.226087 0 4.452174 0 6.678261-2.226087l8.904347-8.904347c2.226087-2.226087 2.226087-4.452174 4.452174-4.452174l4.452174-4.452174c4.452174-4.452174 8.904348-8.904348 15.582609-11.130435s8.904348-6.678261 11.130435-11.130435h4.452174l6.67826-6.678261 6.678261-6.678261h4.452174s2.226087 0 4.452174-2.226087l11.130435-11.130434c4.452174-4.452174 8.904348-6.678261 11.130435-6.678261 2.226087 0 4.452174-2.226087 6.678261-6.678261 2.226087-2.226087 2.226087-4.452174 4.452173-6.678261h4.452174c2.226087 0 2.226087 0 2.226087-2.226087 4.452174-2.226087 8.904348-4.452174 11.130435-8.904348 2.226087-4.452174 4.452174-6.678261 8.904348-8.904348l6.678261-6.67826c2.226087-2.226087 4.452174-4.452174 6.678261-4.452174 2.226087 0 4.452174 0 4.452174-2.226087s2.226087-4.452174 4.452174-4.452174c2.226087-2.226087 6.678261-4.452174 8.904347-6.678261s6.678261-4.452174 11.130435-8.904348c2.226087-2.226087 4.452174-4.452174 6.678261-8.904348 2.226087-2.226087 4.452174-4.452174 4.452174-6.678261 2.226087 0 2.226087-2.226087 4.452174-2.226087 0 0 2.226087 0 4.452174-2.226086 4.452174-2.226087 6.678261-6.678261 8.904348-8.904348l8.904347-8.904348c6.678261-4.452174 13.356522-11.130435 20.034783-17.808696 6.678261-6.678261 11.130435-11.130435 20.034783-17.808695 6.678261-6.678261 15.582609-15.582609 22.260869-24.486957 8.904348-8.904348 15.582609-15.582609 22.26087-20.034783 4.452174-2.226087 8.904348-2.226087 8.904348-2.226087v-2.226086-4.452174c6.678261-6.678261 11.130435-13.356522 17.808695-17.808696 4.452174-6.678261 11.130435-13.356522 17.808696-20.034783 4.452174-4.452174 11.130435-8.904348 17.808696-15.582608 6.678261-4.452174 11.130435-11.130435 15.582608-15.582609 0 0 2.226087-2.226087 2.226087-4.452174s0-2.226087 2.226087-4.452174c2.226087-4.452174 4.452174-6.678261 8.904348-8.904348l8.904348-8.904348 8.904348-4.452173c2.226087-2.226087 4.452174-4.452174 6.67826-4.452174 2.226087-2.226087 2.226087-4.452174 2.226087-4.452174v-4.452174c2.226087-4.452174 4.452174-6.678261 8.904348-8.904348s6.678261-4.452174 11.130435-8.904348c8.904348-11.130435 17.808696-20.034783 24.486957-31.165217s15.582609-20.034783 24.486956-31.165218c0-2.226087 2.226087-4.452174 4.452174-6.67826 2.226087-2.226087 4.452174-2.226087 4.452174 2.226086-2.226087 0-4.452174 2.226087-6.678261 4.452174-2.226087 2.226087-2.226087 4.452174-2.226087 6.678261 0 2.226087-2.226087 4.452174-2.226087 2.226087h-2.226087v4.452174c0 2.226087 0 4.452174-2.226087 4.452174 0 0-2.226087 2.226087-4.452174 2.226087s-2.226087 2.226087-4.452174 2.226087c0 2.226087-2.226087 4.452174-2.226087 4.452174 0 2.226087 0 2.226087-2.226087 2.226087 0 0 0 2.226087-2.226086 2.226087 0 0-2.226087 0-2.226087 2.226087l-6.678261 6.678261c-2.226087 2.226087-4.452174 4.452174-6.678261 4.452174v4.452173l-2.226087 2.226087c-2.226087 0-2.226087 2.226087-2.226087 2.226087v4.452174c0 2.226087 0 2.226087-2.226087 4.452174 0 2.226087-2.226087 2.226087-4.452174 4.452174-2.226087 0-2.226087 2.226087-4.452174 2.226087-2.226087 2.226087-4.452174 4.452174-6.678261 8.904348-2.226087 2.226087-4.452174 6.678261-6.678261 11.130435-2.226087 2.226087-4.452174 2.226087-4.452174 4.452174-2.226087 2.226087-4.452174 2.226087-4.452173 2.226087v4.452173c-4.452174 4.452174-6.678261 8.904348-11.130435 11.130435s-6.678261 6.678261-11.130435 8.904348c-4.452174 4.452174-6.678261 8.904348-11.130435 11.130435-4.452174 2.226087-6.678261 6.678261-8.904348 11.130435l-13.356521 13.356521c-4.452174 4.452174-8.904348 11.130435-13.356522 15.582609-13.356522 13.356522-26.713043 28.93913-42.295652 42.295652-13.356522 13.356522-28.93913 26.713043-42.295652 40.069565-4.452174 4.452174-8.904348 8.904348-15.582609 13.356522s-11.130435 8.904348-15.582609 13.356522c-4.452174 4.452174-8.904348 8.904348-13.356522 15.582609s-8.904348 11.130435-13.356521 15.582608c0 2.226087-2.226087 2.226087-4.452174 2.226087h-4.452174c-2.226087 2.226087-2.226087 4.452174-2.226087 4.452174l-2.226087 4.452174c-4.452174 4.452174-11.130435 8.904348-15.582609 13.356522l-13.356521 13.356522c-4.452174 4.452174-11.130435 8.904348-15.582609 13.356521l-13.356522 13.356522c-2.226087 2.226087-4.452174 4.452174-6.678261 8.904348-2.226087 2.226087-4.452174 4.452174-8.904348 6.678261-2.226087 2.226087-4.452174 2.226087-4.452174 2.226087s-4.452174 0-4.452173 2.226087c0 0-2.226087 0-2.226087 2.226087s0 2.226087-2.226087 2.226087l-11.130435 11.130434h-4.452174c-2.226087 2.226087-4.452174 4.452174-4.452174 6.678261l-6.678261 6.678261h-4.452174c-2.226087 0-4.452174 2.226087-6.678261 6.678261s-4.452174 2.226087-6.67826-2.226087c0 0 2.226087 0 4.452173-2.226087l4.452174-2.226087c2.226087 0 2.226087-2.226087 2.226087-2.226087s-2.226087-2.226087-4.452174-2.226087c0 2.226087-2.226087 4.452174-4.452174 4.452174s-4.452174 0-4.452173 2.226087c-2.226087 2.226087-4.452174 4.452174-6.678261 4.452174-2.226087 2.226087-4.452174 2.226087-6.678261 4.452174-2.226087 0-2.226087 0-4.452174 2.226087s-2.226087 2.226087-2.226087 4.452174c-2.226087 0-4.452174 2.226087-4.452174 4.452174-2.226087 2.226087-2.226087 4.452174-4.452174 4.452174-2.226087 2.226087-4.452174 2.226087-6.678261 4.452173s-4.452174 0-6.678261 2.226087l-4.452174 4.452174-4.452173 4.452174c-4.452174 4.452174-8.904348 8.904348-13.356522 11.130435-4.452174 2.226087-8.904348 6.678261-11.130435 8.904348h-6.678261l-4.452174 4.452174c-2.226087 4.452174-2.226087 6.678261-4.452174 6.678261-4.452174 4.452174-6.678261 6.678261-8.904347 11.130434-2.226087 2.226087-4.452174 6.678261-8.904348 8.904348-4.452174 4.452174-11.130435 8.904348-15.582609 11.130435-4.452174 4.452174-8.904348 6.678261-13.356522 11.130435-2.226087 2.226087-4.452174 4.452174-6.678261 4.452174v6.678261c2.226087 4.452174 4.452174 4.452174 6.678261 2.226087 2.226087-2.226087 4.452174-2.226087 4.452174 2.226087-2.226087 0-2.226087 4.452174-2.226087 11.130434 4.452174 0 6.678261 2.226087 6.678261 6.678261s2.226087 6.678261 6.678261 4.452174c2.226087 2.226087 4.452174 6.678261 6.678261 8.904348s4.452174 4.452174 8.904348 4.452174c2.226087 0 4.452174 0 8.904347-2.226087 0 0 2.226087-2.226087 2.226087-4.452174s2.226087-2.226087 4.452174-4.452174c2.226087 0 4.452174-2.226087 8.904348-4.452174 2.226087 2.226087 4.452174 2.226087 4.452174 6.678261 0 4.452174 0 6.678261 2.226087 8.904348 2.226087 2.226087 2.226087 4.452174 0 8.904348-4.452174 2.226087-6.678261 8.904348-4.452174 17.808695 4.452174 0 6.678261 2.226087 8.904348 4.452174 2.226087 2.226087 4.452174 2.226087 8.904348-2.226087 4.452174 0 6.678261 0 8.904348-4.452174 2.226087-4.452174 4.452174-4.452174 6.67826-2.226087-2.226087 2.226087-4.452174 2.226087-6.67826 4.452174-2.226087 0-2.226087 4.452174-2.226087 8.904348 4.452174 0 11.130435 0 15.582608 2.226087zM823.652174 153.6c0-2.226087 2.226087-2.226087 4.452174-2.226087s2.226087 2.226087 4.452174 6.678261c0 4.452174-2.226087 4.452174-6.678261 0 2.226087 0 2.226087-2.226087-2.226087-4.452174zM322.782609 685.634783c-4.452174-2.226087-4.452174-2.226087-2.226087-4.452174s4.452174-2.226087 4.452174-4.452174c6.678261-4.452174 11.130435-8.904348 17.808695-15.582609l15.582609-15.582609c4.452174-4.452174 8.904348-8.904348 15.582609-13.356521 6.678261-4.452174 11.130435-8.904348 15.582608-13.356522 4.452174-2.226087 6.678261-4.452174 8.904348-8.904348 2.226087-2.226087 4.452174-6.678261 6.678261-8.904348 2.226087-2.226087 4.452174-4.452174 6.678261-4.452174 2.226087-2.226087 6.678261-4.452174 11.130435-4.452174 6.678261-6.678261 13.356522-13.356522 17.808695-20.034782 4.452174-6.678261 11.130435-13.356522 17.808696-17.808696 2.226087-2.226087 2.226087-4.452174 2.226087-6.678261h4.452174c2.226087-2.226087 4.452174-4.452174 8.904348-6.678261l6.678261-6.67826c4.452174-4.452174 8.904348-11.130435 15.582608-15.582609 4.452174-4.452174 11.130435-8.904348 15.582609-13.356522 20.034783-20.034783 40.069565-42.295652 57.878261-62.330435l22.260869-22.260869c8.904348-8.904348 15.582609-15.582609 22.26087-24.486957l6.678261-6.678261 6.678261-6.67826 8.904348-8.904348v-2.226087-2.226087c2.226087-2.226087 6.678261-4.452174 11.130434-11.130435l2.226087-2.226087s2.226087 0 4.452174-2.226087v-4.452174-2.226087l6.678261-6.678261 6.678261-6.678261c2.226087-2.226087 4.452174-4.452174 8.904348-6.67826 4.452174-2.226087 6.678261-4.452174 8.904348-6.678261v-4.452174-2.226087l4.452174-2.226087c2.226087 0 2.226087-2.226087 2.226086-4.452174 0 0 0-2.226087 2.226087-2.226087v-2.226087-2.226087l2.226087-2.226087c2.226087 0 2.226087 0 2.226087-2.226087 2.226087 0 2.226087-2.226087 2.226087-2.226087l-2.226087-2.226087c4.452174-2.226087 6.678261-2.226087 8.904348-2.226087v-2.226087-4.452174l2.226087-2.226086c2.226087 0 2.226087 0 2.226087-2.226087v-2.226087-4.452174s0-2.226087 2.226087-2.226087 2.226087 0 2.226087-2.226087v-4.452174l2.226087-2.226087s2.226087 0 2.226087-2.226087v-4.452174s2.226087-2.226087 4.452174-2.226087 2.226087-2.226087 2.226087-2.226087c2.226087-2.226087 2.226087-4.452174 2.226087-6.678261v-4.452174s2.226087-2.226087 2.226087 0c0 0 2.226087 0 2.226087-2.226087s0-2.226087 2.226087-2.226087 2.226087-2.226087 4.452174-2.226087v-11.130434c2.226087-4.452174 2.226087-8.904348 4.452173-11.130435 0-2.226087 2.226087-6.678261 4.452174-11.130435h2.226087c2.226087 0 2.226087 0 2.226087-2.226087v-4.452174s0-2.226087 2.226087-2.226087h2.226087c2.226087-2.226087 2.226087-4.452174 2.226087-6.678261v-6.67826c2.226087-2.226087 2.226087-6.678261 4.452174-11.130435 0-4.452174 4.452174-6.678261 11.130435-4.452174 4.452174 0 6.678261 2.226087 8.904348 4.452174v8.904348c0 2.226087-2.226087 6.678261-4.452174 8.904347-2.226087 4.452174-2.226087 6.678261-4.452174 8.904348 2.226087 6.678261 2.226087 8.904348 2.226087 11.130435s0 4.452174-2.226087 4.452174c0 0-2.226087 2.226087-2.226087 0v2.226087s0 2.226087-2.226087 4.452174-2.226087 4.452174-2.226087 4.452174c-2.226087 0-4.452174 0-6.678261 2.226087-2.226087 2.226087-2.226087 4.452174-2.226087 6.678261s0 4.452174-2.226087 6.67826c-2.226087 0-2.226087 2.226087-4.452174 0V240.417391l-2.226087 2.226087-4.452174 4.452174c-2.226087 2.226087-2.226087 2.226087-2.226087 4.452174v4.452174s-2.226087 2.226087-4.452173 2.226087-2.226087 0-4.452174 2.226087V267.130435l-8.904348 8.904348c-4.452174 8.904348-11.130435 17.808696-20.034783 26.713043-8.904348 8.904348-15.582609 17.808696-22.260869 26.713044-2.226087 2.226087-4.452174 4.452174-8.904348 6.67826-4.452174 2.226087-6.678261 4.452174-8.904348 8.904348l-8.904348 8.904348v4.452174c-4.452174 4.452174-11.130435 8.904348-17.808696 17.808696l-17.808695 17.808695c-15.582609 17.808696-33.391304 37.843478-53.426087 55.652174s-37.843478 37.843478-55.652174 55.652174l-11.130435 11.130435c-2.226087 4.452174-6.678261 6.678261-13.356522 11.130435l-17.808695 17.808695-20.034783 20.034783h-4.452174c-4.452174 2.226087-6.678261 6.678261-11.130435 11.130435l-11.130434 11.130435-2.226087 2.226086c0 2.226087-2.226087 2.226087-2.226087 2.226087h-2.226087-4.452174c-2.226087 2.226087-4.452174 6.678261-6.678261 8.904348s-4.452174 6.678261-6.678261 8.904348c-2.226087 2.226087-6.678261 4.452174-8.904348 4.452174s-6.678261 4.452174-8.904347 4.452174c-2.226087 2.226087-2.226087 4.452174-4.452174 6.678261s-2.226087 4.452174-6.678261 4.452174c-2.226087 0-4.452174 2.226087-11.130435 6.678261l-11.130435 11.130434c-4.452174 4.452174-11.130435 11.130435-17.808695 15.582609 0 11.130435-4.452174 17.808696-8.904348 22.26087zM1113.043478 968.347826c13.356522 2.226087 26.713043 0 42.295652-2.226087 15.582609-4.452174 26.713043-6.678261 33.391305-8.904348h4.452174c35.617391-8.904348 69.008696-20.034783 102.4-31.165217 11.130435-4.452174 20.034783-8.904348 28.93913-13.356522 2.226087 0 6.678261-2.226087 8.904348-2.226087 0 0 0-2.226087 2.226087-4.452174 4.452174-2.226087 6.678261-2.226087 8.904348-2.226087 2.226087 0 4.452174 0 8.904348-2.226087l4.452173-4.452174h2.226087s0-2.226087 2.226087-2.226086c4.452174-2.226087 6.678261-2.226087 8.904348-2.226087 2.226087 0 4.452174 0 11.130435-2.226087 0 0 2.226087-2.226087 2.226087-4.452174s0-2.226087 2.226087-2.226087c4.452174 0 8.904348 0 11.130435-2.226087 0 0 0-2.226087 2.226087-2.226087 2.226087-2.226087 2.226087-2.226087 2.226087-4.452174 2.226087 0 4.452174-2.226087 8.904347-2.226087 0-4.452174 2.226087-6.678261 4.452174-8.904348h4.452174l2.226087-2.226087s0-2.226087 2.226087-2.226087 2.226087-2.226087 4.452174-2.226087 2.226087 0 4.452174-2.226087 4.452174-4.452174 8.904348-4.452174c2.226087-2.226087 4.452174-2.226087 6.678261-4.452174 2.226087 0 2.226087-2.226087 4.452174-2.226086l2.226087-2.226087c4.452174-4.452174 11.130435-6.678261 15.582608-8.904348s8.904348-6.678261 13.356522-11.130435l6.678261-6.678261 6.678261-6.678261c6.678261-6.678261 13.356522-11.130435 20.034782-17.808695l17.808696-17.808696c4.452174-4.452174 6.678261-11.130435 8.904348-13.356522s6.678261-8.904348 8.904348-13.356522c2.226087-2.226087 4.452174-4.452174 4.452174-6.67826 2.226087-2.226087 4.452174-4.452174 4.452173-6.678261 2.226087-4.452174 2.226087-6.678261 4.452174-6.678261v-4.452174-4.452174h2.226087c2.226087 0 4.452174 0 4.452174-2.226087 2.226087-2.226087 2.226087-4.452174 4.452174-8.904348s2.226087-6.678261 2.226087-8.904348c0-4.452174 2.226087-6.678261 4.452174-8.904347 2.226087 0 2.226087-2.226087 2.226087-6.678261 0-2.226087 2.226087-2.226087 2.226087-2.226087 2.226087-2.226087 2.226087-6.678261 2.226087-11.130435s0-6.678261 2.226087-8.904348v-2.226087l2.226087-2.226087c4.452174-11.130435 4.452174-24.486957 4.452174-42.295652 0-17.808696-2.226087-28.93913-4.452174-37.843478v-8.904348c0-2.226087-2.226087-2.226087-2.226087-2.226087-2.226087-4.452174-2.226087-6.678261-2.226087-11.130435s0-6.678261-2.226087-8.904348l-2.226087-4.452174v-2.226086-4.452174s0-2.226087-2.226087-2.226087-2.226087 0-2.226087-2.226087c-2.226087-4.452174-2.226087-6.678261-4.452174-11.130435 0-4.452174-2.226087-6.678261-4.452174-8.904348 0 0 0-2.226087-2.226087-2.226087s-2.226087-2.226087-4.452174-2.226087l-2.226087-2.226087c0-2.226087 0-2.226087-2.226087-4.452174h-2.226086s-2.226087 0 0-2.226087V489.73913c-4.452174 0-8.904348-2.226087-11.130435-4.452173v-2.226087-4.452174l-4.452174-4.452174c-2.226087-4.452174-4.452174-6.678261-6.678261-8.904348l-4.452174-4.452174v-2.226087c0-2.226087 0-4.452174-2.226087-6.678261-2.226087-2.226087-2.226087-4.452174-4.452174-4.452174 0 0 0-2.226087-2.226087-2.226087s-2.226087-2.226087-4.452174-4.452174v4.452174c0-2.226087 0-2.226087-2.226087-4.452174s-4.452174-2.226087-6.678261-4.452174c-2.226087 0-4.452174-2.226087-6.67826-4.452173-2.226087-4.452174-2.226087-6.678261-4.452174-8.904348 0-2.226087-2.226087-4.452174-4.452174-6.678261s-4.452174-2.226087-4.452174-4.452174c-2.226087 0-4.452174-2.226087-6.678261-4.452174-2.226087-2.226087-4.452174-4.452174-4.452174-6.678261l-4.452174-4.452174c-4.452174-2.226087-8.904348-4.452174-11.130435-6.678261-4.452174-2.226087-6.678261-4.452174-8.904347-4.452174 0 0-2.226087 0-2.226087-2.226086s-2.226087-4.452174-2.226087-4.452174c-4.452174-2.226087-8.904348-2.226087-11.130435-4.452174-4.452174-2.226087-6.678261-2.226087-8.904348-4.452174-4.452174-2.226087-6.678261-2.226087-8.904348-4.452174l-4.452174-2.226087h-2.226087-4.452174s-2.226087 0-2.226087-2.226087 0-2.226087-2.226086-2.226087-4.452174-2.226087-4.452174-2.226087c-2.226087 0-2.226087 0-4.452174-2.226087-2.226087 0-2.226087-2.226087-2.226087-2.226087 0-2.226087 0-2.226087-2.226087-4.452174-4.452174-2.226087-8.904348-4.452174-13.356522-4.452174l-8.904348-4.452174c-2.226087 0-2.226087-2.226087-4.452174-2.226087-4.452174 0-6.678261-2.226087-6.678261-4.452173l-8.904347-4.452174c-4.452174 0-6.678261 0-8.904348-2.226087-4.452174-2.226087-6.678261-2.226087-8.904348-2.226087-4.452174-2.226087-8.904348-2.226087-11.130435-2.226087-4.452174 0-6.678261-2.226087-11.130435-4.452174-2.226087-2.226087-4.452174-2.226087-8.904347-2.226087H1291.130435c-6.678261 0-13.356522-2.226087-20.034783-2.226087s-13.356522-2.226087-20.034782-2.226087c-20.034783-2.226087-40.069565-2.226087-57.878261 0s-33.391304 4.452174-46.747826 4.452174h-8.904348c-2.226087 0-2.226087 2.226087-2.226087 2.226087h-2.226087v2.226087c-4.452174 2.226087-11.130435 2.226087-15.582609 4.452174-4.452174 0-8.904348 2.226087-11.130435 2.226087-2.226087 2.226087-4.452174 2.226087-4.452174 2.226087-2.226087 0-4.452174 0-4.452173 2.226087h-13.356522c0-4.452174 2.226087-8.904348 4.452174-11.130435 2.226087-2.226087 4.452174-4.452174 4.452174-6.678261v-2.226087h2.226087l6.67826-13.356522 6.678261-13.356522s2.226087-2.226087 4.452174-6.67826c0-2.226087 2.226087-4.452174 4.452174-6.678261l4.452174-4.452174v-4.452174h4.452174v-4.452174-4.452174h4.452174v-4.452174c0-2.226087 2.226087-2.226087 4.452174-2.226087h44.521739c15.582609 0 26.713043-2.226087 35.617391-4.452174h26.713044c2.226087 0 4.452174 0 4.452174-2.226087 2.226087 0 2.226087-2.226087 4.452174-2.226087 8.904348-2.226087 15.582609-2.226087 20.034782-2.226087 6.678261 0 11.130435 0 17.808696-2.226087 11.130435-2.226087 22.26087-4.452174 35.617391-4.452173 11.130435-2.226087 22.26087-4.452174 28.939131-4.452174 4.452174 0 8.904348-2.226087 13.356521-2.226087s8.904348 0 13.356522-2.226087c6.678261-2.226087 13.356522-4.452174 20.034783-4.452174 6.678261-2.226087 13.356522-4.452174 20.034782-4.452174 28.93913-6.678261 55.652174-13.356522 84.591305-20.034783 28.93913-6.678261 53.426087-15.582609 77.913043-26.713043-2.226087-24.486957-11.130435-42.295652-26.713043-53.426087-4.452174 0-6.678261 0-8.904348 2.226087-2.226087-2.226087-4.452174 0-8.904348 0-6.678261-2.226087-8.904348 0-8.904348 4.452174s-2.226087 6.678261-6.678261 6.678261c-2.226087-6.678261-4.452174-8.904348-8.904348-11.130435s-8.904348 0-15.582608 0c-2.226087 0-2.226087 0-4.452174 2.226087 0 0 0 2.226087-2.226087 4.452174 0 2.226087-2.226087 2.226087-2.226087 4.452174s-4.452174 0-6.678261 0c-37.843478 8.904348-75.686957 15.582609-115.756522 22.260869-40.069565 6.678261-77.913043 13.356522-117.982608 17.808696-8.904348 2.226087-20.034783 2.226087-31.165218 4.452174-11.130435 0-22.26087 2.226087-31.165217 2.226087l-2.226087 4.452174c-4.452174 0-6.678261 2.226087-11.130435 0s-4.452174-2.226087-4.452174-4.452174c2.226087-4.452174 2.226087-6.678261 2.226087-11.130435s2.226087-6.678261 6.678261-8.904348c6.678261-4.452174 13.356522-4.452174 20.034783-6.678261s13.356522 0 20.034782 0c22.26087-2.226087 44.521739-6.678261 66.782609-8.904348 22.26087-4.452174 44.521739-6.678261 64.556522-11.130434 6.678261 0 13.356522-2.226087 20.034782-4.452174 6.678261-2.226087 11.130435-2.226087 17.808696-4.452174h4.452174V111.304348c4.452174-2.226087 8.904348-2.226087 11.130435-2.226087s6.678261 0 11.130434-2.226087c11.130435-2.226087 22.26087-4.452174 31.165218-6.678261 11.130435-2.226087 20.034783-4.452174 28.93913-8.904348 11.130435 0 17.808696-2.226087 24.486957-4.452174 6.678261-2.226087 11.130435-4.452174 15.582608-8.904348-11.130435-8.904348-22.26087-11.130435-33.391304-6.67826-4.452174 2.226087-6.678261 4.452174-8.904348 6.67826s-4.452174 2.226087-6.678261 2.226087c-26.713043 4.452174-51.2 8.904348-75.686956 13.356522-24.486957 4.452174-48.973913 8.904348-75.686957 13.356522-26.713043 4.452174-51.2 8.904348-77.913043 11.130435-26.713043 4.452174-51.2 6.678261-77.913044 8.904348-2.226087-4.452174 0-8.904348 2.226087-13.356522 4.452174-4.452174 4.452174-6.678261 0-8.904348 0-4.452174-2.226087-8.904348-4.452174-11.130435-2.226087-2.226087-6.678261-4.452174-8.904347-6.678261-2.226087 4.452174-2.226087 8.904348-4.452174 15.582609-2.226087 4.452174-2.226087 11.130435-4.452174 15.582609-2.226087 4.452174-4.452174 8.904348-6.678261 11.130434s-6.678261 4.452174-13.356522 4.452174c0-4.452174 2.226087-8.904348 2.226087-13.356521 0-4.452174 2.226087-8.904348 2.226087-13.356522 0-4.452174 0-6.678261-2.226087-6.678261l2.226087-2.226087c4.452174-4.452174 4.452174-6.678261 0-11.130435l-4.452174-4.452174v-4.452174-4.452173c-4.452174-4.452174-11.130435-6.678261-17.808695-4.452174-4.452174 0-6.678261 0-6.678261 4.452174v8.904347c-4.452174 0-6.678261 0-6.678261 2.226087-2.226087 2.226087-2.226087 4.452174-2.226087 6.678261s0 4.452174-2.226087 6.678261h-2.226087V104.626087l-2.226087 2.226087s-2.226087 0-2.226087 2.226087c-2.226087 2.226087-2.226087 4.452174-2.226087 4.452174 0 2.226087 0 4.452174-2.226087 6.678261L1068.521739 111.304348c-2.226087 2.226087-4.452174 4.452174-6.678261 8.904348-2.226087 4.452174-2.226087 6.678261-4.452174 8.904347 0 2.226087-4.452174 4.452174-8.904347 4.452174h-20.034783c-8.904348 0-15.582609 2.226087-22.26087 4.452174h-73.460869c-6.678261 0-11.130435 2.226087-11.130435 4.452174h-4.452174c-4.452174 0-8.904348 2.226087-13.356522 2.226087s-4.452174 4.452174-2.226087 8.904348 6.678261 6.678261 15.582609 6.678261c-2.226087-2.226087-2.226087-4.452174-2.226087-6.678261 0-2.226087 2.226087-2.226087 6.678261-2.226087h91.269565c4.452174 0 8.904348 0 11.130435 4.452174-2.226087 4.452174-4.452174 8.904348-6.678261 11.130435-2.226087 4.452174-4.452174 6.678261-8.904348 8.904348-15.582609 2.226087-31.165217 2.226087-48.973913 2.226087-17.808696 0-31.165217 0-44.521739 2.226086-2.226087 4.452174-2.226087 6.678261 0 8.904348 2.226087 2.226087 4.452174 2.226087 4.452174 4.452174 6.678261 11.130435 13.356522 17.808696 24.486957 17.808696 2.226087 0 2.226087 2.226087 2.226087 2.226087l2.226086 2.226087c2.226087 4.452174 2.226087 6.678261 4.452174 6.678261 4.452174 2.226087 11.130435 2.226087 15.582609 2.226087 4.452174 0 8.904348 0 11.130435 4.452174 0 2.226087-4.452174 4.452174-11.130435 6.67826-4.452174-4.452174-8.904348-4.452174-15.582609-4.452174-2.226087 0-2.226087 0-2.226087 2.226087s2.226087 2.226087 4.452174 2.226087c4.452174 0 6.678261 2.226087 8.904348 2.226087 2.226087 0 4.452174 0 6.678261 2.226087-6.678261 13.356522-15.582609 24.486957-24.486956 40.069566-8.904348 13.356522-17.808696 26.713043-24.486957 35.617391-4.452174 6.678261-8.904348 11.130435-11.130435 17.808695s-6.678261 11.130435-8.904348 15.582609c-4.452174 6.678261-11.130435 13.356522-15.582608 17.808696 0 0-2.226087 2.226087-2.226087 6.678261l-4.452174 4.452174-4.452174 4.452174v4.452173c-2.226087 2.226087-4.452174 4.452174-6.678261 4.452174V398.469565s0 2.226087-2.226087 2.226087-2.226087 0-2.226087 2.226087v4.452174l-2.226087 2.226087c0 2.226087 0 2.226087-2.226087 4.452174l-4.452174 4.452174v2.226087c-2.226087 4.452174-4.452174 6.678261-8.904348 11.130435s-4.452174 6.678261-6.67826 11.130434c0 0 0 2.226087-2.226087 4.452174l-6.678261 6.678261c-2.226087 2.226087-4.452174 4.452174-4.452174 6.678261 0 0 0 2.226087-2.226087 2.226087-4.452174 4.452174-8.904348 8.904348-11.130435 13.356522-4.452174 4.452174-6.678261 8.904348-8.904348 13.356521-2.226087-2.226087-4.452174 0-6.678261 0-2.226087 0-2.226087 2.226087-4.452173 2.226087s-2.226087 2.226087 0 2.226087 2.226087 2.226087 0 2.226087c-2.226087 4.452174-6.678261 6.678261-8.904348 8.904348s-4.452174 6.678261-4.452174 11.130435c4.452174 0 8.904348-2.226087 11.130435-4.452174 2.226087 0 4.452174-2.226087 4.452173-4.452174 2.226087-2.226087 2.226087-4.452174 2.226087-4.452174 2.226087-2.226087 6.678261-4.452174 11.130435-4.452174 2.226087-2.226087 2.226087-4.452174 2.226087-6.678261 0-2.226087 2.226087-4.452174 4.452174-4.452174 0 6.678261 2.226087 11.130435 6.678261 11.130435 4.452174 0 8.904348 4.452174 11.130435 8.904348-2.226087 4.452174-2.226087 8.904348-2.226087 13.356522 0 4.452174 2.226087 8.904348 4.452174 15.582609h17.808695c4.452174-2.226087 8.904348-2.226087 13.356522-6.678261 2.226087-2.226087 4.452174-4.452174 8.904348-11.130435 4.452174-4.452174 6.678261-6.678261 8.904348-4.452174-4.452174 0-4.452174 2.226087-4.452174 4.452174s0 2.226087-2.226087 4.452174l-4.452174 4.452174c-4.452174 4.452174-6.678261 8.904348-11.130435 13.356521-4.452174 4.452174-6.678261 11.130435-6.678261 17.808696 4.452174 2.226087 8.904348 2.226087 11.130435 4.452174 2.226087 2.226087 6.678261 0 11.130435-4.452174 2.226087-2.226087 2.226087-4.452174 4.452174-6.678261 0-2.226087 2.226087-4.452174 4.452174-6.678261 2.226087-2.226087 4.452174-2.226087 6.678261-2.226087 2.226087 0 4.452174-2.226087 4.452173-2.226087l2.226087-2.226087v-2.226086-2.226087l13.356522-13.356522c4.452174-4.452174 8.904348-6.678261 13.356522-11.130435 0 2.226087 0 2.226087-2.226087 2.226087s-2.226087 2.226087-2.226087 2.226087c0 2.226087-2.226087 2.226087-2.226087 4.452174s-2.226087 2.226087-2.226087 4.452174-2.226087 4.452174-4.452174 4.452174-2.226087 4.452174-2.226087 4.452174l-4.452174 4.452174c-2.226087 2.226087-4.452174 2.226087-4.452174 6.67826 0 2.226087 0 2.226087-2.226087 2.226087 0 0-2.226087 0-2.226087 2.226087-2.226087 2.226087-4.452174 6.678261-6.67826 8.904348-2.226087 4.452174-4.452174 6.678261-4.452174 11.130435 2.226087 2.226087 2.226087 4.452174 4.452174 6.678261 0 2.226087 2.226087 6.678261 4.452174 8.904348 11.130435 2.226087 17.808696 2.226087 17.808695 0l8.904348-8.904348c2.226087-4.452174 4.452174-6.678261 6.678261-8.904348 2.226087-2.226087 6.678261-4.452174 11.130435-6.678261-2.226087 2.226087-4.452174 6.678261-8.904348 11.130435s-4.452174 6.678261 2.226087 8.904348c4.452174-8.904348 11.130435-15.582609 17.808695-22.26087 6.678261-6.678261 13.356522-11.130435 20.034783-15.582609 2.226087 0 2.226087-2.226087 4.452174-4.452173 0-2.226087 2.226087-2.226087 4.452174-4.452174 4.452174-2.226087 8.904348-4.452174 11.130435-4.452174 4.452174-2.226087 6.678261-4.452174 8.904347-8.904348l2.226087-2.226087s2.226087 0 6.678261-2.226087l4.452174-4.452174c0-2.226087 2.226087-2.226087 4.452174-4.452174h4.452174s2.226087 0 2.226087-2.226087 0-2.226087 2.226087-2.226087c0 0 0-2.226087 2.226087-2.226087 0 0 2.226087 0 2.226087-2.226087 0 0 2.226087-2.226087 4.452174-2.226087h2.226087l2.226087-2.226087c2.226087-2.226087 4.452174-2.226087 4.452174-2.226087 2.226087 0 4.452174 0 4.452174-2.226087h4.452173v-4.452173s2.226087-2.226087 4.452174 0 2.226087 0 4.452174 0v-2.226087-2.226087h4.452174v-4.452174h4.452174v-2.226087-2.226087h6.678261V467.478261c0-2.226087 2.226087-2.226087 4.452174-4.452174 2.226087 0 2.226087 0 4.452174-2.226087s4.452174-2.226087 6.678261-4.452174c2.226087 0 4.452174-2.226087 6.678261-2.226087 2.226087 0 2.226087 0 2.226086-2.226087v-2.226087c2.226087 0 4.452174-2.226087 6.678261 0s4.452174 0 6.678261-2.226087c4.452174-2.226087 11.130435-4.452174 17.808696-6.678261 6.678261-2.226087 11.130435-4.452174 15.582609-4.452174 2.226087 0 2.226087 0 2.226087-2.226086v-2.226087c4.452174-2.226087 8.904348-2.226087 13.356521-2.226087h4.452174c2.226087 0 6.678261-2.226087 8.904348-2.226087v-2.226087c2.226087-2.226087 4.452174-2.226087 4.452174-2.226087 2.226087 0 4.452174 0 4.452174-2.226087h15.582609c4.452174-2.226087 8.904348-2.226087 15.582608-4.452174 4.452174-2.226087 11.130435-2.226087 15.582609-2.226087 6.678261-2.226087 13.356522-2.226087 17.808696-2.226087s8.904348-2.226087 11.130434-2.226087h4.452174c40.069565-4.452174 77.913043-4.452174 117.982609 2.226087 0 4.452174 2.226087 6.678261 4.452174 8.904348 2.226087 2.226087 2.226087 4.452174 2.226087 4.452174 2.226087 0 4.452174 4.452174 6.678261 8.904348 0 2.226087 2.226087 4.452174 2.226087 6.67826 2.226087 2.226087 2.226087 4.452174 2.226087 4.452174 0 2.226087 2.226087 2.226087 2.226087 2.226087 2.226087 4.452174 4.452174 13.356522 6.67826 22.26087 0 4.452174 0 8.904348 2.226087 11.130435 2.226087 4.452174 2.226087 6.678261 2.226087 11.130434v24.486957c0 8.904348-2.226087 17.808696-4.452174 24.486956v17.808696h-2.226087c0 2.226087-2.226087 2.226087 0 4.452174v2.226087c-2.226087 4.452174-4.452174 6.678261-6.67826 11.130435-2.226087 4.452174-4.452174 6.678261-4.452174 8.904348 0 2.226087-2.226087 4.452174-2.226087 4.452173v6.678261s0 2.226087-2.226087 2.226087-2.226087 2.226087-4.452174 2.226087v22.26087c0 2.226087-2.226087 4.452174-4.452174 6.678261-2.226087 2.226087-4.452174 4.452174-4.452174 6.678261v4.452173c0 2.226087-2.226087 2.226087-2.226087 2.226087-2.226087 0-2.226087 2.226087-4.452174 2.226087-2.226087 2.226087-4.452174 4.452174-8.904348 4.452174v8.904348s-2.226087 2.226087-4.452174 2.226087-2.226087 0-2.226087 2.226087c-2.226087 0-2.226087 0-2.226086 2.226087s0 4.452174-2.226087 4.452174l-4.452174 4.452174c-2.226087 0-2.226087 2.226087-4.452174 2.226087l-20.034783 20.034782c-6.678261 6.678261-11.130435 13.356522-17.808696 17.808696 0 0-2.226087 2.226087-4.452173 2.226087h-4.452174c-2.226087 2.226087-4.452174 4.452174-4.452174 6.678261s-2.226087 4.452174-4.452174 6.678261c-4.452174 0-6.678261 0-8.904348 2.226087 0 0 0 2.226087-2.226087 2.226087l-2.226087 2.226087s0 2.226087-2.226087 2.226087c-4.452174 2.226087-11.130435 4.452174-17.808696 8.904347-6.678261 2.226087-11.130435 4.452174-15.582608 8.904348-2.226087 0-4.452174 2.226087-6.678261 4.452174-2.226087 2.226087-4.452174 2.226087-8.904348 2.226087s-6.678261 2.226087-8.904348 4.452174v4.452174H1208.765217c-2.226087 0-2.226087 2.226087-4.452174 2.226087 0 0-2.226087 0-4.452173 2.226087l2.226087 6.678261h-2.226087l-2.226087 2.226087h-2.226087-2.226087c-2.226087 0-2.226087 2.226087-4.452174 2.226087h-4.452174c-2.226087 2.226087-4.452174 4.452174-8.904348 4.452174h-2.226087-2.226087c-4.452174 0-6.678261 2.226087-11.130435 4.452173s-6.678261 4.452174-8.904347 4.452174l-8.904348 2.226087c-4.452174 0-8.904348 2.226087-11.130435 2.226087-2.226087 0-4.452174 2.226087-11.130435 2.226087l-26.713043 6.678261c-8.904348 2.226087-17.808696 4.452174-26.713044 4.452174-6.678261 2.226087-11.130435 2.226087-17.808695 4.452174-6.678261 0-11.130435 2.226087-17.808696 2.226087H1001.73913c-8.904348 0-17.808696-2.226087-24.486956-2.226087 0 0-2.226087 0-2.226087-2.226087 0 0 0-2.226087-2.226087-2.226087-6.678261-2.226087-13.356522-2.226087-17.808696-2.226087-4.452174 0-8.904348 0-11.130434-2.226087-2.226087-2.226087-4.452174-4.452174-4.452174-6.678261-4.452174 2.226087-8.904348 2.226087-13.356522 0-4.452174-2.226087-6.678261-2.226087-8.904348-4.452174-4.452174-2.226087-11.130435-4.452174-17.808696-6.678261-6.678261-2.226087-13.356522-6.678261-17.808695-11.130434 0-4.452174-2.226087-8.904348-2.226087-15.582609s-2.226087-11.130435-4.452174-13.356522c-4.452174-4.452174-8.904348-6.678261-15.582609-8.904348-6.678261 0-13.356522-2.226087-22.260869-2.226087-4.452174 8.904348-4.452174 17.808696-2.226087 24.486957s6.678261 13.356522 11.130434 17.808696v17.808695c2.226087 2.226087 4.452174 4.452174 4.452174 6.678261 2.226087 2.226087 4.452174 6.678261 4.452174 8.904348 2.226087 2.226087 6.678261 4.452174 11.130435 6.678261v8.904348c2.226087 2.226087 6.678261 6.678261 13.356522 15.582608 6.678261 6.678261 13.356522 11.130435 15.582609 11.130435 2.226087 0 2.226087 0 2.226086 2.226087v2.226087c2.226087 2.226087 4.452174 2.226087 8.904348 4.452174s4.452174 2.226087 6.678261 4.452174v2.226087h4.452174v4.452174H923.826087v6.678261h4.452174c2.226087 0 2.226087 0 4.452174 2.226087 0 2.226087 2.226087 2.226087 4.452174 4.452173 6.678261 4.452174 15.582609 8.904348 22.260869 13.356522s15.582609 8.904348 24.486957 13.356522c17.808696 6.678261 37.843478 13.356522 57.878261 17.808696 20.034783 4.452174 42.295652 8.904348 62.330434 11.130434h28.939131c11.130435 0 17.808696-2.226087 24.486956-2.226087 2.226087 0 4.452174-2.226087 8.904348 0s6.678261 0 8.904348 0c4.452174 0 11.130435-2.226087 13.356522-4.452173s8.904348 0 13.356522 4.452173c-13.356522 4.452174-26.713043 6.678261-40.069566 8.904348s-26.713043 4.452174-42.295652 8.904348h-22.260869c-2.226087 0 13.356522-2.226087 15.582608 0z m-15.582608-792.486956c0-6.678261 2.226087-13.356522 6.67826-20.034783 2.226087-6.678261 8.904348-8.904348 15.582609-4.452174-4.452174 4.452174-6.678261 8.904348-8.904348 15.582609-2.226087 4.452174-6.678261 8.904348-13.356521 8.904348z m-66.782609-4.452174c0 2.226087-2.226087 4.452174-8.904348 2.226087 2.226087-4.452174 4.452174-8.904348 6.678261-15.582609 2.226087-4.452174 6.678261-8.904348 13.356522-8.904348 0 4.452174 0 6.678261-2.226087 8.904348s-4.452174 2.226087-6.678261 4.452174c-2.226087 4.452174-2.226087 6.678261-2.226087 8.904348z m109.078261 4.452174c-4.452174-4.452174-4.452174-8.904348 0-13.356522s6.678261-6.678261 6.678261-11.130435c2.226087 2.226087 2.226087 4.452174-2.226087 11.130435-2.226087 2.226087-4.452174 8.904348-4.452174 13.356522z m-77.913044 62.330434c-2.226087-4.452174 0-6.678261 4.452174-6.678261h11.130435c-2.226087 4.452174-8.904348 6.678261-15.582609 6.678261z m169.182609-4.452174h-11.130435c-4.452174 0-4.452174 0-6.678261-2.226087 0 0 2.226087-2.226087 11.130435-2.226086h13.356522c-2.226087 4.452174-2.226087 4.452174-6.678261 4.452173zM821.426087 471.930435c-2.226087 0-2.226087-2.226087-2.226087-2.226087 2.226087 0 2.226087-2.226087 2.226087-4.452174 6.678261-6.678261 11.130435-13.356522 17.808696-20.034783 4.452174-6.678261 11.130435-15.582609 15.582608-24.486956 2.226087-4.452174 4.452174-6.678261 8.904348-8.904348 2.226087-2.226087 4.452174-4.452174 6.678261-8.904348l2.226087-2.226087s2.226087 0 2.226087-2.226087 0-4.452174 2.226087-4.452174l4.452174-4.452174c2.226087 0 2.226087-4.452174 4.452174-8.904347 2.226087 0 2.226087-2.226087 4.452174-2.226087 2.226087-2.226087 2.226087-2.226087 2.226087-4.452174 2.226087-2.226087 2.226087-4.452174 4.452173-6.678261 0-2.226087 2.226087-4.452174 4.452174-6.678261 0 0 2.226087-2.226087 4.452174-2.226087s2.226087-2.226087 4.452174-4.452174c0 0 2.226087-2.226087 2.226087-4.452174l2.226087-2.226087h2.226087c0-4.452174 0-8.904348 2.226087-11.130435l11.130435-11.130434v-6.678261c2.226087-2.226087 4.452174-2.226087 4.452174-4.452174 2.226087-2.226087 2.226087-4.452174 6.678261-6.678261 0 0 0-2.226087 2.226087-2.226087s2.226087 0 2.226087-2.226087c2.226087-2.226087 2.226087-2.226087 2.226086-4.452174s0-2.226087 2.226087-4.452174c0 0 2.226087-2.226087 2.226087 0 0 0 2.226087 0 2.226087-2.226087V289.391304v-2.226087-2.226087c2.226087-2.226087 4.452174-4.452174 4.452174-6.67826 4.452174-2.226087 6.678261-6.678261 8.904348-13.356522 4.452174-4.452174 6.678261-8.904348 11.130435-15.582609s8.904348-8.904348 15.582609-11.130435c-4.452174 6.678261-11.130435 13.356522-13.356522 20.034783l-13.356522 20.034783c-2.226087 2.226087-4.452174 4.452174-4.452174 6.67826-6.678261-2.226087-6.678261 2.226087-8.904348 4.452174 0 2.226087-2.226087 2.226087-2.226087 2.226087l-2.226087 2.226087c-2.226087 4.452174-2.226087 6.678261-4.452173 6.678261h-2.226087-2.226087c0 4.452174 0 8.904348-2.226087 11.130435-2.226087 2.226087-4.452174 4.452174-6.678261 4.452174-2.226087 2.226087-4.452174 4.452174-6.678261 4.452174v4.452174c-2.226087 2.226087-2.226087 4.452174-4.452174 6.678261 0 2.226087-2.226087 4.452174-4.452174 8.904347-4.452174 0-4.452174 2.226087-4.452174 4.452174s-2.226087 4.452174-2.226087 4.452174 0 2.226087-2.226087 4.452174h-2.226087l-2.226087 2.226087c-2.226087 2.226087-2.226087 4.452174-2.226087 6.678261s-2.226087 4.452174-4.452174 6.678261c-2.226087 0-4.452174 2.226087-4.452173 4.452174v4.452174c0 2.226087 0 4.452174-2.226087 4.452174h-4.452174c-2.226087 0-2.226087 0-2.226087 2.226086-2.226087 2.226087-2.226087 4.452174-2.226087 4.452174s0 4.452174-2.226087 4.452174l-2.226087 2.226087c-2.226087 0-2.226087 2.226087-4.452174 4.452174 0 0-2.226087 2.226087-2.226087 4.452174s0 2.226087-2.226087 2.226087c-2.226087 2.226087-4.452174 2.226087-4.452174 2.226087-2.226087 0-2.226087 2.226087-4.452174 2.226087-2.226087 2.226087-2.226087 4.452174-2.226087 4.452174s0 2.226087-2.226087 2.226087c0 0 0 2.226087-2.226087 4.452174l-2.226087 2.226087c-2.226087 2.226087-2.226087 2.226087-2.226087 4.452174v4.452174c2.226087 11.130435 0 11.130435-2.226087 13.356521-2.226087 0-2.226087 0-4.452173 2.226087-2.226087 4.452174-2.226087 6.678261-4.452174 8.904348l-6.678261 6.678261c-2.226087 2.226087-4.452174 2.226087-4.452174 6.678261-2.226087-2.226087-4.452174-2.226087-4.452174 0z m378.434783-233.739131h-60.104348c0-2.226087 0-2.226087 2.226087-2.226087s2.226087 0 4.452174-2.226087H1202.086957c0 4.452174 0 4.452174-2.226087 4.452174zM979.478261 369.530435c0-4.452174 4.452174-11.130435 11.130435-17.808696l4.452174-4.452174c2.226087 0 2.226087-2.226087 2.226087-2.226087 0-2.226087 0-2.226087 2.226086-4.452174 0 0 0-2.226087 2.226087-2.226087l4.452174-4.452174c0-2.226087 2.226087-4.452174 2.226087-4.452173 0-2.226087 2.226087-4.452174 4.452174-8.904348 2.226087-2.226087 6.678261-6.678261 8.904348-13.356522 0-2.226087 4.452174-6.678261 8.904348-15.582609 4.452174-4.452174 6.678261-11.130435 8.904348-15.582608l2.226087-2.226087c2.226087 0 2.226087-2.226087 4.452174-4.452174s2.226087-2.226087 2.226087-4.452174v-2.226087c0-2.226087 2.226087-4.452174 4.452173-6.678261 2.226087-2.226087 2.226087-4.452174 4.452174-8.904348h11.130435c-2.226087 6.678261-4.452174 13.356522-8.904348 17.808696-4.452174 4.452174-8.904348 8.904348-11.130434 15.582609l-13.356522 20.034782-13.356522 20.034783c0 2.226087-2.226087 2.226087-2.226087 4.452174l-2.226087 2.226087v4.452174c-2.226087 2.226087-4.452174 4.452174-4.452174 6.67826-2.226087 2.226087-2.226087 4.452174-4.452174 8.904348 0 0-2.226087 0-2.226087 2.226087s-2.226087 4.452174-4.452174 6.678261l-6.67826 6.678261c-2.226087 2.226087-4.452174 4.452174-4.452174 6.678261-2.226087-2.226087-6.678261 0-11.130435 0z m66.782609-28.939131c-2.226087 4.452174-6.678261 6.678261-13.356522 4.452174 0-4.452174 0-6.678261 2.226087-8.904348 0 0 2.226087-2.226087 4.452174-2.226087 2.226087-2.226087 2.226087-2.226087 2.226087-4.452173 4.452174-4.452174 6.678261-6.678261 6.678261-11.130435 2.226087-4.452174 4.452174-8.904348 6.67826-15.582609 0 0 2.226087-2.226087 4.452174-2.226087s2.226087 0 2.226087-2.226087v-4.452174h2.226087c2.226087-4.452174 4.452174-11.130435 8.904348-15.582608l6.678261-13.356522c2.226087-2.226087 4.452174-4.452174 6.678261-4.452174 2.226087-2.226087 2.226087-4.452174 4.452174-4.452174 0 0 2.226087-2.226087 2.226087-4.452174s0-4.452174 2.226087-4.452174h2.226087c2.226087 0 2.226087 0 2.226087-2.226087 2.226087 0 2.226087 2.226087 2.226086 2.226087v4.452174c-2.226087 2.226087-4.452174 4.452174-4.452173 6.678261-2.226087 2.226087-2.226087 4.452174-4.452174 6.678261-2.226087 4.452174-4.452174 8.904348-8.904348 13.356522-2.226087 4.452174-4.452174 8.904348-8.904348 13.356521 0 2.226087-2.226087 4.452174-6.678261 4.452174V302.747826l-4.452174 4.452174c-2.226087 2.226087-4.452174 4.452174-4.452174 8.904348 0 2.226087 0 4.452174-2.226087 6.678261-2.226087 2.226087-4.452174 4.452174-4.452174 6.678261-2.226087 2.226087-4.452174 6.678261-6.67826 11.130434z m40.069565 71.234783c2.226087-2.226087 4.452174-4.452174 8.904348-4.452174s6.678261-2.226087 8.904347-4.452174c2.226087-2.226087 4.452174-2.226087 11.130435-4.452174 4.452174 0 11.130435-2.226087 15.582609-4.452174 8.904348-2.226087 15.582609-4.452174 22.260869-6.678261s13.356522-4.452174 22.26087-8.904347c26.713043-6.678261 55.652174-11.130435 84.591304-11.130435s55.652174 6.678261 77.913044 20.034782c-2.226087 4.452174-6.678261 4.452174-11.130435 2.226087s-8.904348-2.226087-13.356522-2.226087h-15.582608c-6.678261 0-17.808696-2.226087-31.165218-2.226087-13.356522-2.226087-26.713043-2.226087-37.843478 0-26.713043 2.226087-51.2 6.678261-75.686957 13.356522-24.486957 2.226087-46.747826 8.904348-66.782608 13.356522z m-91.269565 71.234783c-2.226087 0-2.226087-2.226087-2.226087-6.678261 2.226087-4.452174 4.452174-4.452174 4.452174-4.452174 2.226087-4.452174 4.452174-6.678261 8.904347-8.904348s8.904348-4.452174 13.356522-4.452174c2.226087 0 2.226087-2.226087 4.452174-2.226087s2.226087 0 4.452174-2.226087 4.452174-2.226087 8.904348-4.452174 8.904348-2.226087 11.130435-4.452174c2.226087-2.226087 6.678261-2.226087 8.904347-4.452174s6.678261-2.226087 11.130435-4.452174c2.226087 0 4.452174 0 6.678261-2.226086 2.226087-2.226087 4.452174-2.226087 11.130435-4.452174 2.226087 0 4.452174-2.226087 8.904348-2.226087s6.678261-2.226087 8.904347-2.226087c6.678261-2.226087 15.582609-4.452174 26.713044-6.678261s20.034783-4.452174 31.165217-8.904348c4.452174 0 4.452174 0 4.452174 2.226087 0 0-2.226087 2.226087-4.452174 2.226087-17.808696 4.452174-35.617391 11.130435-53.426087 17.808696l-53.426087 22.260869c-2.226087 0-2.226087 2.226087-4.452174 2.226087 0 0-2.226087 0-4.452173 2.226087-2.226087 0-2.226087 2.226087-4.452174 2.226087l-2.226087 2.226087c-2.226087 2.226087-6.678261 2.226087-8.904348 2.226087-4.452174 0-6.678261 2.226087-8.904348 4.452174-2.226087 2.226087-4.452174 2.226087-6.678261 4.452174-2.226087 0-4.452174 2.226087-6.678261 4.452174 0 0 0 2.226087-2.226087 2.226087s-2.226087 2.226087-2.226087 2.226087c-2.226087 2.226087-4.452174 2.226087-4.452174 2.226087-4.452174-6.678261-4.452174-6.678261-4.452173-2.226087zM1502.608696 445.217391c-2.226087-2.226087-4.452174-4.452174-8.904348-4.452174-2.226087-2.226087-6.678261-4.452174-11.130435-6.67826l-2.226087-2.226087s-2.226087-2.226087-6.678261-4.452174-4.452174-6.678261-4.452174-8.904348-2.226087-4.452174-8.904348-11.130435c0-2.226087 2.226087-2.226087 2.226087 0 2.226087 2.226087 2.226087 2.226087 4.452174 0 2.226087 4.452174 6.678261 6.678261 8.904348 8.904348 4.452174 2.226087 6.678261 4.452174 11.130435 8.904348 8.904348 4.452174 13.356522 11.130435 15.582609 20.034782z m-142.469566 240.417392c-2.226087-2.226087-2.226087-4.452174 0-8.904348l6.678261-6.678261c2.226087-2.226087 4.452174-4.452174 4.452174-6.678261l6.678261-6.678261c4.452174-6.678261 6.678261-8.904348 6.678261-8.904348s0-2.226087 2.226087-2.226087 2.226087-2.226087 4.452174-2.226087c0-2.226087 2.226087-4.452174 2.226087-8.904347l6.678261-6.678261v-6.678261c0-2.226087 0-4.452174 2.226087-6.678261 0 0 2.226087 0 2.226087-2.226087s2.226087-2.226087 2.226087-4.452174c2.226087-2.226087 2.226087-4.452174 4.452173-8.904348 0-4.452174 2.226087-6.678261 2.226087-8.904348 2.226087-6.678261 4.452174-13.356522 4.452174-20.034782l4.452174-17.808696c2.226087-2.226087 2.226087-4.452174 2.226087-8.904348 0-2.226087-2.226087-6.678261-2.226087-11.130434 2.226087-2.226087 2.226087-4.452174 4.452174-4.452174v-11.130435-11.130435c0-4.452174-2.226087-8.904348-4.452174-13.356522 0-2.226087-2.226087-6.678261-2.226087-8.904347s0-6.678261-2.226087-11.130435h-2.226087s-2.226087 0-2.226087-2.226087v-4.452174c0-2.226087-2.226087-2.226087-2.226087-4.452174 0 0 0-2.226087-2.226087-4.452174v-2.226087c-2.226087-2.226087-2.226087-4.452174-4.452173-8.904348 0-2.226087-2.226087-6.678261-2.226087-8.904348 0-2.226087-2.226087-2.226087-4.452174-2.226086s-2.226087-2.226087 0-6.678261c8.904348 4.452174 20.034783 6.678261 28.93913 11.130434s17.808696 8.904348 24.486957 15.582609c0 15.582609 2.226087 31.165217 2.226087 46.747826 0 15.582609-2.226087 31.165217-6.678261 46.747826-2.226087 6.678261-4.452174 11.130435-6.678261 17.808696-2.226087 4.452174-4.452174 11.130435-8.904348 17.808696 0 0-2.226087 2.226087-2.226087 4.452174 0 0-2.226087 2.226087-2.226087 4.452173s-2.226087 4.452174-2.226087 4.452174c-2.226087 2.226087-2.226087 2.226087-2.226087 4.452174s-2.226087 4.452174-6.678261 6.678261c-2.226087 2.226087-4.452174 6.678261-8.904347 15.582609 0 0 0 2.226087-4.452174 2.226087-2.226087 0-2.226087 0-2.226087 2.226087v4.452174c0 2.226087-2.226087 2.226087-4.452174 4.452174s-4.452174 4.452174-4.452174 6.67826l-4.452174 4.452174c-4.452174 4.452174-8.904348 11.130435-15.582609 15.582609-2.226087 11.130435-6.678261 15.582609-11.130435 22.26087z m-405.147826-215.930435c-2.226087-2.226087-2.226087-6.678261 2.226087-8.904348 4.452174-4.452174 8.904348-6.678261 11.130435-6.678261-2.226087 4.452174-4.452174 6.678261-6.678261 8.904348s-4.452174 2.226087-6.678261 6.678261z m567.652174 71.234782c-2.226087 0-2.226087-2.226087-4.452174-2.226087h-2.226087s-2.226087-4.452174-2.226087-6.67826c0-2.226087-2.226087-4.452174-4.452173-6.678261 0-2.226087-2.226087-4.452174-4.452174-4.452174v-13.356522c4.452174 4.452174 8.904348 11.130435 11.130434 17.808696s6.678261 13.356522 8.904348 20.034782l-2.226087-4.452174z m-8.904348 55.652174c-4.452174 0-4.452174-2.226087-2.226087-6.678261 2.226087-2.226087 2.226087-6.678261 2.226087-8.904347 0-4.452174 0-6.678261-2.226087-6.678261 0-2.226087-2.226087-4.452174-2.226086-6.678261v-15.582609c0-4.452174 0-11.130435-2.226087-15.582608 2.226087 2.226087 4.452174 4.452174 8.904347 6.67826 4.452174 2.226087 6.678261 6.678261 6.678261 11.130435 0 6.678261 0 13.356522-4.452174 22.26087s-4.452174 15.582609-4.452174 20.034782z m60.104348 8.904348c-4.452174-2.226087-6.678261-4.452174-4.452174-8.904348 0-4.452174 0-8.904348-2.226087-13.356521l-2.226087-2.226087h-2.226087c0-6.678261 0-13.356522-2.226086-17.808696v-17.808696c2.226087 2.226087 4.452174 4.452174 2.226086 8.904348v8.904348l2.226087 2.226087 2.226087 2.226087v4.452174c0 4.452174 2.226087 8.904348 2.226087 13.356522 6.678261 6.678261 6.678261 13.356522 4.452174 20.034782z m-120.208695 86.817391c-4.452174 0-4.452174-2.226087-2.226087-2.226086l4.452174-4.452174c0-2.226087 2.226087-4.452174 2.226087-6.678261s2.226087-4.452174 2.226086-6.678261l2.226087-2.226087 4.452174-4.452174v-4.452174-2.226087c2.226087-2.226087 4.452174-2.226087 4.452174-4.452174 2.226087 0 2.226087-2.226087 2.226087-4.452174 2.226087 2.226087 2.226087 4.452174 2.226087 4.452174l-4.452174 4.452174c-2.226087 0-2.226087 2.226087 0 2.226087v2.226087c-4.452174 2.226087-6.678261 6.678261-11.130435 11.130435-2.226087 8.904348-4.452174 13.356522-6.67826 17.808695z m-133.565218 151.373914c-4.452174-2.226087-4.452174-2.226087 0 0v-4.452174c2.226087 0 4.452174-2.226087 4.452174-2.226087 2.226087 0 4.452174 0 4.452174-2.226087l2.226087-2.226087 2.226087-2.226087 2.226087-2.226087c2.226087 0 2.226087-2.226087 4.452174-2.226087 0 0 2.226087 0 4.452174-2.226087 0-2.226087 0-4.452174 2.226087-4.452174s2.226087 0 4.452174-2.226087" fill="#333333" p-id="1494"></path></svg>