<?xml version="1.0" standalone="no"?><!DOCTYPE svg PUBLIC "-//W3C//DTD SVG 1.1//EN" "http://www.w3.org/Graphics/SVG/1.1/DTD/svg11.dtd"><svg t="1768966908676" class="icon" viewBox="0 0 1919 1024" version="1.1" xmlns="http://www.w3.org/2000/svg" p-id="12113" width="374.8046875" height="200" xmlns:xlink="http://www.w3.org/1999/xlink"><path d="M0 855.177445h485.681131v-121.581275H160.142116l274.111682-342.07613c34.284889-43.435683 51.427334-93.079224 51.427333-148.930622-0.772762-69.806198-24.348453-127.402751-70.714194-172.77678C369.373959 24.045788 309.954975 0.772762 236.703545 0 171.244135 0.772762 116.113981 23.659407 71.306645 68.647055 26.88569 114.800285 3.116808 173.163161 0 243.755001h121.568396c4.282391-38.78623 17.921647-68.840245 40.911326-90.174925 22.210478-21.328241 50.06856-31.992361 83.574247-31.992361 37.800958 0.772762 67.017814 12.988847 87.669888 36.648254 19.872872 23.659407 29.809307 51.388696 29.809307 83.194305 0 12.022894-1.558404 24.818551-4.675212 38.393409-4.675212 14.347621-13.446065 29.860825-26.299678 46.539612L0 740.57035v114.607095z" p-id="12114" fill="#ce4770"></path><path d="M840.527159 771.847906c-2.337606 85.712223-42.27654 128.954716-119.816801 129.727478-77.926642-0.772762-117.672385-44.021695-119.23079-129.727478v-359.52768c1.558404-84.939461 41.304147-128.175514 119.23079-129.727478 77.533822 1.545525 117.479195 44.794457 119.816801 129.727478v359.52768z m-361.201998 6.980619c0.785642 77.952401 25.913297 138.066872 75.402286 180.343412 46.36574 41.883719 101.695524 63.21196 165.982911 63.991161 66.238612-0.772762 122.547228-22.107443 168.912968-63.991161 47.138503-42.27654 71.493396-102.39101 73.0518-180.343412V404.760035c-1.558404-78.345222-25.906857-138.646443-73.05824-180.929423-46.36574-41.883719-102.667917-62.825578-168.906528-62.825578-64.287387 0-119.617171 20.941859-165.982911 62.825578-49.488988 42.27654-74.616644 102.584201-75.395846 180.929423v374.06849z" p-id="12115" fill="#ce4770"></path><path d="M951.10301 855.177445h485.681131v-121.581275h-325.539015l274.111682-342.07613c34.284889-43.435683 51.433773-93.079224 51.433773-148.930622-0.779202-69.806198-24.354893-127.402751-70.720633-172.77678C1320.476969 24.045788 1261.064425 0.772762 1187.800115 0c-65.45941 0.772762-120.589563 23.659407-165.3969 68.647055-44.420955 46.153231-68.189837 104.516107-71.306645 175.107946h121.568396c4.288831-38.78623 17.921647-68.840245 40.911326-90.174925 22.210478-21.328241 50.06856-31.992361 83.580687-31.992361 37.794518 0.772762 67.017814 12.988847 87.663448 36.648254 19.872872 23.659407 29.809307 51.388696 29.809307 83.194305 0 12.022894-1.558404 24.818551-4.675212 38.393409-4.675212 14.347621-13.439625 29.860825-26.299678 46.539612l-332.558274 414.207055v114.607095z" p-id="12116" fill="#ce4770"></path><path d="M1822.59218 159.253439c0.386381 0-1.461809 4.172917-5.55101 12.51231-4.09564 8.339394-9.64665 19.686121-16.659468 34.033742a5132.339727 5132.339727 0 0 1-24.548083 49.45035l-29.513082 58.755697a9431.84128 9431.84128 0 0 1-31.560902 62.246006 7645.659086 7645.659086 0 0 1-30.974891 59.92128c-9.936436 19.003514-18.997074 36.261873-27.175475 51.775077-8.184841 15.519644-15.004469 27.922479-20.458883 37.234265 11.301649-6.594239 24.058668-10.567525 38.283934-11.926298 14.218827-1.352334 30.678665-1.64856 49.385953-0.875798 26.88569 0.772762 50.358346 5.435095 70.424408 13.96768 20.066062 8.532584 37.305102 19.190265 51.72356 31.992361s26.402713 27.046682 35.946328 42.759516c9.543615 15.712834 17.045849 31.026408 22.500264 45.96004 5.454414 14.933632 9.253829 28.894872 11.398244 41.883719 2.144415 12.995287 3.213403 23.176431 3.213403 30.543431v33.44773c0 7.566631-0.096595 15.223418-0.289785 22.98324a435.64477 435.64477 0 0 1-0.875798 19.776277c-0.392821 2.717548-1.661439 9.794763-3.799415 21.238085-2.144415 11.436883-6.040426 25.011741-11.69447 40.718135-5.647605 15.712834-13.729411 32.584812-24.251858 50.615934-10.522447 18.031121-24.354893 35.09629-41.497338 51.195505s-37.994148 29.95742-62.535792 41.593933c-24.548084 11.636513-53.77138 18.803884-87.669888 21.521431-35.456912 3.103929-66.824623 0.772762-94.096694-6.98062-27.272071-7.753382-50.847762-18.803884-70.720634-33.157944-19.872872-14.347621-36.429305-30.929813-49.675739-49.740136-13.246434-18.803884-23.672286-38.103623-31.271116-57.886339-7.59883-19.776276-12.660423-38.77979-15.197659-57.010542-2.530797-18.224312-3.020213-33.743956-1.461809-46.539612 2.344046-18.997074 4.874842-35.972087 7.59883-50.899279a512.863047 512.863047 0 0 1 9.64665-42.759517 564.277501 564.277501 0 0 1 12.563827-40.145003 1120.19629 1120.19629 0 0 1 16.363243-43.049302c1.558404-3.876691 5.847235-13.085442 12.860053-27.626254 7.019258-14.553691 15.680636-32.488217 26.009893-53.816457a5379.881263 5379.881263 0 0 1 34.774305-70.39221c12.860053-25.597753 25.713667-51.581886 38.57372-77.958841 30.395319-61.273614 64.487017-129.727478 102.281536-205.361592h137.931638z m-24.548084 620.73423c0-14.734002-0.579572-31.026408-1.751594-48.864339a139.567318 139.567318 0 0 0-13.14984-50.905719c-7.59883-16.099215-19.969467-29.95742-37.118351-41.600373-17.142445-11.630073-41.490898-18.610693-73.0518-20.935419-14.811278-1.165583-28.250903 0.386381-40.331754 4.649453-12.074412 4.269512-22.796489 10.084549-32.140474 17.45155a124.56285 124.56285 0 0 0-24.258298 25.307966c-6.819628 9.504977-12.467232 18.906919-16.949254 28.218705-4.482022 9.305347-7.695425 17.934526-9.64021 25.887539-1.951225 7.946573-2.923618 14.057835-2.923617 18.320907 0 9.698167 0.193191 20.458883 0.579571 32.288586 0.392821 11.829704 1.661439 23.659407 3.799415 35.489111a143.489087 143.489087 0 0 0 10.818673 34.323527c5.061593 11.050501 12.267602 20.845264 21.624466 29.377848 9.350424 8.532584 21.328241 15.519644 35.939889 20.94186 14.618088 5.428655 32.82952 8.146203 54.647177 8.146203 17.535265 0.386381 32.82952-1.84175 45.882764-6.690834 13.053244-4.849084 24.155263-11.050501 33.312496-18.610693 9.157234-7.566631 16.659468-16.00262 22.500264-25.307967 5.847235-9.311786 10.425852-18.423942 13.73585-27.342907 3.309999-8.925405 5.551009-16.968573 6.723033-24.148824 1.165583-7.17381 1.751595-12.505871 1.751594-15.99618z" p-id="12117" fill="#ce4770"></path></svg>