<?xml version="1.0" standalone="no"?><!DOCTYPE svg PUBLIC "-//W3C//DTD SVG 1.1//EN" "http://www.w3.org/Graphics/SVG/1.1/DTD/svg11.dtd"><svg t="1743668838662" class="icon" viewBox="0 0 1691 1024" version="1.1" xmlns="http://www.w3.org/2000/svg" p-id="1801" xmlns:xlink="http://www.w3.org/1999/xlink" width="330.2734375" height="200"><path d="M231.513043 934.956522c4.452174 2.226087 11.130435 0 17.808696 0 4.452174-2.226087 11.130435-4.452174 15.582609-8.904348s11.130435-6.678261 17.808695-8.904348c13.356522-4.452174 31.165217-8.904348 48.973914-8.904348 17.808696 0 35.617391-2.226087 53.426086-4.452174 4.452174 0 6.678261-2.226087 8.904348-2.226087H445.217391c2.226087 0 4.452174-2.226087 6.678261-2.226087h57.878261c4.452174 0 6.678261-2.226087 8.904348-2.226087h6.678261c4.452174 0 8.904348-2.226087 13.356521 0h13.356522c2.226087 0 2.226087-2.226087 4.452174-2.226086 0 0 2.226087-2.226087 4.452174-2.226087h13.356522c13.356522-2.226087 26.713043-4.452174 42.295652-4.452174 15.582609-2.226087 26.713043-4.452174 37.843478-6.678261h8.904348c2.226087 0 2.226087 0 2.226087-2.226087v-2.226087c4.452174 0 8.904348-2.226087 13.356522-2.226087 4.452174 0 8.904348 0 11.130435-2.226087 4.452174 0 11.130435-2.226087 15.582608-2.226087 4.452174-2.226087 8.904348-2.226087 11.130435-2.226087 6.678261-2.226087 11.130435-2.226087 11.130435-2.226087 2.226087 0 2.226087-2.226087 4.452174-2.226087s2.226087 0 2.226087-2.226087c-13.356522 0-24.486957 0-35.617392 2.226087-8.904348 4.452174-20.034783 4.452174-31.165217 6.678261-6.678261 0-13.356522 2.226087-22.26087 2.226087s-13.356522 0-17.808695 2.226087c-2.226087 0-6.678261 0-11.130435 2.226087s-8.904348 0-11.130435-2.226087c13.356522-2.226087 31.165217-4.452174 46.747826-6.678261 17.808696-2.226087 31.165217-4.452174 40.069565-8.904348h2.226087c4.452174 0 6.678261 0 6.678261-2.226087s2.226087-2.226087 6.678261-2.226087c2.226087 0 2.226087 0 2.226087-2.226087v-2.226087c4.452174-2.226087 8.904348-2.226087 13.356522-2.226087 4.452174 0 8.904348-2.226087 11.130435-4.452173-4.452174-4.452174-8.904348-6.678261-15.582609-6.678261-6.678261-2.226087-11.130435-4.452174-13.356522-8.904348 0-4.452174 2.226087-8.904348 2.226087-11.130435 0-2.226087 0-4.452174-4.452174-11.130435-4.452174 0-8.904348 0-11.130435-2.226087-2.226087-2.226087-4.452174-2.226087-8.904347-4.452174-2.226087 0-2.226087 0-4.452174 2.226087 0 0-2.226087 2.226087-4.452174 2.226087s-4.452174 2.226087-6.678261 0-4.452174 0-6.678261 0c-4.452174 0-4.452174-2.226087-4.452174-8.904348-4.452174 0-8.904348 0-11.130435-2.226086-2.226087 2.226087-4.452174 4.452174-8.904347 4.452173h-8.904348c-11.130435 2.226087-22.26087 2.226087-35.617392 4.452174-13.356522 0-24.486957 2.226087-31.165217 4.452174-2.226087 0-4.452174 2.226087-6.678261 0s-4.452174 0-6.678261 0l-66.782608 6.678261c-22.26087 2.226087-44.521739 4.452174-64.556522 4.452174 0-4.452174 2.226087-6.678261 4.452174-8.904348 2.226087 0 4.452174-2.226087 6.678261-2.226087l2.226087-2.226087s0-2.226087 2.226087-2.226087c2.226087-2.226087 4.452174-4.452174 6.67826-4.452174 2.226087-2.226087 4.452174-4.452174 6.678261-4.452173h4.452174c4.452174-4.452174 8.904348-8.904348 11.130435-13.356522 2.226087-4.452174 6.678261-8.904348 11.130435-11.130435 2.226087-2.226087 4.452174-2.226087 4.452174-2.226087s4.452174 0 4.452174-2.226087c6.678261-4.452174 11.130435-11.130435 15.582608-17.808696 4.452174-6.678261 8.904348-11.130435 13.356522-17.808695h4.452174c2.226087 0 2.226087 0 2.226087-2.226087s2.226087-2.226087 2.226087-2.226087c4.452174-4.452174 8.904348-8.904348 11.130435-13.356522s6.678261-8.904348 11.130434-11.130435c6.678261-4.452174 11.130435-8.904348 17.808696-13.356521s11.130435-8.904348 15.582609-13.356522c4.452174-4.452174 11.130435-8.904348 15.582608-15.582609 4.452174-6.678261 8.904348-11.130435 15.582609-15.582609 11.130435-8.904348 20.034783-20.034783 31.165218-31.165217L667.826087 578.782609l15.582609-15.582609c4.452174-4.452174 8.904348-8.904348 13.356521-15.582609 8.904348-8.904348 17.808696-17.808696 26.713044-28.93913 8.904348-8.904348 17.808696-20.034783 22.260869-28.939131l11.130435-11.130434c4.452174-2.226087 6.678261-6.678261 8.904348-11.130435v-4.452174c0-2.226087 2.226087-2.226087 4.452174-2.226087s2.226087 0 4.452174-2.226087 2.226087-4.452174 2.226087-4.452174v-2.226087c0-2.226087 2.226087-2.226087 2.226087-4.452174 2.226087-2.226087 4.452174-2.226087 4.452174-4.452174 2.226087 0 2.226087-2.226087 4.452174-4.452174v-4.452173c2.226087 0 4.452174 0 6.67826-2.226087l2.226087-4.452174v-2.226087h2.226087c4.452174-6.678261 11.130435-15.582609 15.582609-24.486957 4.452174-8.904348 8.904348-15.582609 15.582609-20.034782 0-2.226087 2.226087-2.226087 2.226087-4.452174s0-2.226087 2.226087-4.452174c0-2.226087 2.226087-2.226087 2.226087-4.452174s2.226087-2.226087 2.226087-4.452174c4.452174-4.452174 4.452174-8.904348 4.452174-11.130435s0-2.226087 2.226086-2.226087c0 0 2.226087 0 2.226087-2.226087 2.226087-2.226087 2.226087-6.678261 4.452174-8.904348 0-4.452174 2.226087-6.678261 4.452174-6.67826 2.226087-2.226087 2.226087-4.452174 2.226087-8.904348s2.226087-6.678261 2.226087-8.904348c2.226087-11.130435 2.226087-20.034783 2.226087-26.713044s-2.226087-15.582609-4.452174-24.486956c0 0 0-2.226087-2.226087-2.226087 0 0-2.226087 0-2.226087-2.226087-2.226087-4.452174-4.452174-8.904348-4.452174-13.356522s0-6.678261-4.452174-8.904348v-2.226087-2.226087h-2.226086v-13.356521l-2.226087-2.226087s-2.226087 0-2.226087-2.226087c-2.226087-2.226087-2.226087-4.452174-2.226087-6.678261 0-2.226087-2.226087-4.452174-2.226087-4.452174-2.226087-2.226087-4.452174-4.452174-8.904348-6.678261-2.226087-2.226087-4.452174-4.452174-6.678261-4.452174-4.452174-2.226087-6.678261-4.452174-8.904348-6.678261-2.226087-4.452174-4.452174-6.678261-8.904348-8.904347l-2.226087-2.226087s-2.226087 0-2.226087-2.226087c-2.226087 0-2.226087-2.226087-4.452173-2.226087 0-2.226087-2.226087-2.226087-2.226087-2.226087-4.452174-2.226087-11.130435-4.452174-17.808696-6.678261-8.904348-2.226087-15.582609-2.226087-20.034783-2.226087-4.452174-6.678261-8.904348-13.356522-15.582608-17.808696-4.452174-2.226087-6.678261-4.452174-6.678261-4.452174-2.226087 0-4.452174 0-8.904348-2.226087 0 0-2.226087-2.226087-2.226087-4.452174s-2.226087-2.226087-2.226087-4.452173c-2.226087 0-6.678261-2.226087-8.904348-2.226087s-6.678261 0-8.904348-2.226087c-6.678261 0-13.356522-2.226087-22.260869-2.226087s-17.808696 0-24.486957 2.226087c-22.26087 2.226087-44.521739 6.678261-69.008695 17.808695-24.486957 8.904348-44.521739 17.808696-62.330435 28.939131-4.452174 2.226087-6.678261 4.452174-8.904348 4.452174s-6.678261 6.678261-8.904348 6.678261h-2.226087v2.226086c-2.226087 2.226087-2.226087 2.226087-4.452174 2.226087 0 0-2.226087 0-4.452174 2.226087l-2.226087 2.226087c0 2.226087 0 2.226087-2.226087 2.226087-2.226087 2.226087-2.226087 2.226087-4.452173 2.226087h-4.452174c-2.226087 2.226087-2.226087 4.452174-4.452174 4.452174 0 2.226087-2.226087 2.226087-4.452174 4.452174-4.452174 4.452174-8.904348 6.678261-13.356522 8.904348-4.452174 2.226087-8.904348 4.452174-11.130435 6.678261-6.678261 4.452174-13.356522 8.904348-15.582608 15.582608-4.452174 4.452174-8.904348 11.130435-13.356522 15.582609-4.452174 4.452174-8.904348 6.678261-11.130435 8.904348-4.452174 2.226087-6.678261 6.678261-11.130435 8.904348l-20.034782 20.034782c-6.678261 6.678261-11.130435 13.356522-20.034783 20.034783-2.226087 2.226087-4.452174 4.452174-8.904348 11.130435 0 0-2.226087 2.226087-2.226087 4.452174l-2.226087 2.226087-2.226087 2.226087c-2.226087 2.226087-2.226087 4.452174-2.226087 4.452174l-4.452173 4.452173c-2.226087 2.226087-2.226087 2.226087-4.452174 2.226087-2.226087 2.226087-2.226087 4.452174-4.452174 8.904348s0 11.130435-2.226087 11.130435V362.852174l-2.226087 2.226087s-2.226087 0-2.226087 2.226087c-2.226087 2.226087-2.226087 6.678261-2.226087 11.130435s-2.226087 6.678261-4.452174 8.904347c-2.226087 2.226087-2.226087 4.452174-2.226087 8.904348 0 2.226087-2.226087 4.452174-4.452174 8.904348s0 8.904348 4.452174 11.130435c0-4.452174 0-11.130435 2.226087-15.582609 2.226087-4.452174 6.678261-11.130435 8.904348-17.808695 0-2.226087 2.226087-4.452174 2.226087-4.452174s0-2.226087 2.226087-4.452174l2.226087-2.226087s2.226087-2.226087 2.226087-4.452174c2.226087-4.452174 2.226087-6.678261 2.226087-8.904348 0-2.226087 0-4.452174 2.226087-6.678261 2.226087-2.226087 4.452174-4.452174 6.67826-4.452174s4.452174-2.226087 4.452174-4.452174 0-4.452174 2.226087-4.452174c2.226087-2.226087 2.226087-2.226087 2.226087-4.452174 2.226087-4.452174 4.452174-6.678261 8.904348-8.904347 2.226087-2.226087 6.678261-4.452174 8.904348-11.130435 4.452174-4.452174 11.130435-11.130435 15.582609-17.808696 4.452174-6.678261 11.130435-11.130435 17.808695-17.808695l15.582609-15.582609c6.678261-4.452174 11.130435-11.130435 15.582609-15.582609h4.452174c2.226087-2.226087 6.678261-4.452174 8.904347-8.904348 2.226087-2.226087 4.452174-4.452174 4.452174-6.678261h4.452174c2.226087-2.226087 4.452174-2.226087 4.452174-4.452173 2.226087-2.226087 4.452174-2.226087 4.452174-4.452174l8.904348-8.904348h4.452174c2.226087 0 2.226087-2.226087 2.226087-2.226087 0-2.226087 0-2.226087 2.226087-2.226087 4.452174 0 6.678261-2.226087 6.678261-4.452174s2.226087-4.452174 4.452173-4.452174h4.452174v-2.226087h4.452174l2.226087-2.226087c0-2.226087 0-2.226087 2.226087-4.452174h2.226087c2.226087 0 2.226087 0 4.452174-2.226087 2.226087 0 4.452174 0 4.452174-2.226087 2.226087 0 2.226087 0 4.452174-2.226087 0-2.226087 2.226087-2.226087 4.452174-4.452174 4.452174-2.226087 8.904348-4.452174 15.582608-8.904347 6.678261-2.226087 11.130435-4.452174 15.582609-4.452174 2.226087 0 2.226087-2.226087 2.226087-2.226087 13.356522-2.226087 22.26087-6.678261 33.391304-8.904348 11.130435-4.452174 20.034783-6.678261 31.165218-8.904348 11.130435-2.226087 22.26087-4.452174 31.165217-4.452174 11.130435 0 20.034783 0 28.939131 2.226087h6.678261c2.226087 0 2.226087 0 4.452173 2.226087s4.452174 2.226087 8.904348 2.226087 4.452174 0 4.452174 4.452174c2.226087 0 2.226087 2.226087 4.452174 2.226087 0 0 0 2.226087-2.226087 2.226087-13.356522-4.452174-26.713043-4.452174-40.069565-2.226087-13.356522 2.226087-26.713043 4.452174-37.843478 6.678261-4.452174 2.226087-8.904348 4.452174-15.582609 4.452174s-8.904348 0-13.356522 2.226087c-4.452174 2.226087-11.130435 4.452174-17.808695 4.452174-6.678261 2.226087-8.904348 4.452174-11.130435 4.452174 0 0 0 2.226087-2.226087 0h-4.452174v2.226086c0 2.226087 0 2.226087-2.226087 2.226087s-2.226087-2.226087-2.226087-2.226087c-2.226087 2.226087-4.452174 4.452174-8.904348 4.452174-2.226087 2.226087-4.452174 2.226087-6.678261 4.452174 0 0 0 2.226087-2.226087 0h-4.452174v2.226087H534.26087v4.452174h-4.452174c-2.226087 0-2.226087 2.226087-2.226087 2.226087s0 2.226087-2.226087 2.226087-4.452174 2.226087-6.678261 2.226087c-2.226087 0-4.452174 2.226087-6.678261 4.452174s-4.452174 4.452174-6.678261 4.452174c-2.226087 2.226087-4.452174 2.226087-6.678261 2.226087s-2.226087 0-2.226087 2.226087v2.226087c-6.678261 4.452174-8.904348 4.452174-11.130434 4.452174-2.226087 0-4.452174 2.226087-4.452174 2.226087l-2.226087 2.226087-2.226087 2.226087c-4.452174 4.452174-8.904348 6.678261-11.130435 8.904347s-6.678261 4.452174-11.130435 8.904348c-2.226087 2.226087-4.452174 4.452174-4.452174 6.678261l-4.452174 4.452174c-4.452174 0-8.904348 2.226087-11.130434 8.904348s-6.678261 8.904348-8.904348 8.904348c-2.226087 0-2.226087 0-2.226087 2.226087v2.226087c-6.678261 4.452174-15.582609 11.130435-22.26087 17.808695-8.904348 8.904348-13.356522 15.582609-15.582609 22.26087l-8.904347 8.904348c-4.452174 4.452174-6.678261 6.678261-6.678261 8.904347 0 4.452174-2.226087 6.678261-4.452174 6.678261-2.226087 2.226087-4.452174 2.226087-4.452174 6.678261v2.226087s-2.226087 0-2.226087 2.226087c-2.226087 2.226087-2.226087 4.452174-2.226087 4.452174 0 2.226087-2.226087 4.452174-2.226087 4.452174l-2.226087 2.226087-2.226087 2.226087-8.904348 17.808695c-4.452174 8.904348-6.678261 13.356522-6.678261 15.582609l2.226087 2.226087c2.226087 4.452174 4.452174 6.678261 4.452174 8.904348 2.226087 2.226087 4.452174 2.226087 11.130435 2.226087 4.452174-2.226087 6.678261-4.452174 4.452174-11.130435-2.226087-4.452174-2.226087-8.904348 0-13.356522 4.452174-4.452174 6.678261-6.678261 8.904348-11.130434 2.226087-4.452174 4.452174-8.904348 8.904348-13.356522h4.452174v-6.678261s0-2.226087 2.226087-2.226087 2.226087-2.226087 4.452173-2.226087c4.452174-4.452174 6.678261-8.904348 11.130435-11.130435 4.452174-4.452174 6.678261-6.678261 8.904348-11.130435 4.452174-4.452174 6.678261-8.904348 11.130435-13.356521s6.678261-8.904348 11.130435-11.130435c2.226087-2.226087 4.452174-2.226087 6.678261-4.452174 2.226087 0 4.452174-2.226087 8.904347-4.452174 2.226087-2.226087 2.226087-4.452174 4.452174-4.452174 0-2.226087 2.226087-4.452174 4.452174-4.452174l6.678261-6.678261c2.226087-2.226087 4.452174-2.226087 6.678261-4.452173s2.226087-4.452174 2.226087-4.452174c2.226087 0 4.452174-2.226087 4.452174-2.226087s4.452174 0 4.452174-2.226087c2.226087-2.226087 4.452174-4.452174 4.452174-6.678261s4.452174-4.452174 4.452174-6.678261l4.452173-2.226087 4.452174-4.452174 2.226087-2.226087s2.226087-2.226087 4.452174 0c2.226087 0 2.226087 0 4.452174-2.226087 0 0 2.226087 0 2.226087-2.226087s2.226087-2.226087 2.226087-4.452174c2.226087-2.226087 4.452174-2.226087 6.678261-2.226087 2.226087 0 6.678261 0 8.904348-2.226087h-2.226087l-2.226087 2.226087-8.904348 4.452174c-2.226087 2.226087-4.452174 4.452174-6.678261 4.452174l-4.452174 4.452174c-2.226087 2.226087-4.452174 4.452174-4.452174 6.678261-2.226087 2.226087-4.452174 4.452174-6.678261 4.452174-2.226087 2.226087-6.678261 2.226087-8.904347 4.452174l-2.226087 2.226087s0 2.226087-2.226087 2.226087l-2.226087 2.226087s-2.226087 0-4.452174 2.226087c-4.452174 4.452174-8.904348 6.678261-11.130435 13.356521-2.226087 4.452174-6.678261 8.904348-11.130435 11.130435 0 0-2.226087 2.226087-4.452174 2.226087s-2.226087 0-4.452174 2.226087c-4.452174 2.226087-6.678261 4.452174-8.904347 6.678261s-4.452174 6.678261-6.678261 11.130435c-2.226087 2.226087-6.678261 4.452174-8.904348 8.904348-4.452174 2.226087-6.678261 4.452174-8.904348 6.67826 0 2.226087-2.226087 4.452174-2.226087 4.452174s0 2.226087-2.226087 4.452174l-6.678261 6.678261c-2.226087 2.226087-4.452174 2.226087-6.678261 6.678261-4.452174 4.452174-6.678261 8.904348-8.904347 13.356522-2.226087 4.452174-4.452174 8.904348-8.904348 13.356521l-13.356522 20.034783c-4.452174 6.678261-4.452174 13.356522-2.226087 20.034783 0 0 2.226087 2.226087 4.452174 2.226087s2.226087 2.226087 2.226087 2.226087c2.226087 2.226087 2.226087 4.452174 2.226087 8.904347s2.226087 6.678261 6.678261 6.678261c2.226087 2.226087 0 4.452174-2.226087 6.678261-2.226087 2.226087-2.226087 2.226087 2.226087 4.452174 0 0 2.226087-2.226087 2.226087-4.452174s2.226087-2.226087 2.226087-2.226087h13.356521c2.226087 0 2.226087-2.226087 2.226087-4.452174s2.226087-4.452174 2.226087-4.452174c2.226087-2.226087 4.452174-4.452174 4.452174-6.678261 2.226087-2.226087 2.226087-4.452174 2.226087-6.67826s0-4.452174 2.226087-4.452174c2.226087-2.226087 2.226087-2.226087 4.452174-2.226087 2.226087-2.226087 4.452174-2.226087 4.452174-4.452174 2.226087-2.226087 2.226087-2.226087 2.226087-4.452174v-2.226087-2.226087c2.226087 0 4.452174 0 6.678261-2.226087 0-2.226087 2.226087-2.226087 2.226087-2.226087s2.226087 0 4.452174-2.226087V400.695652v-4.452174l8.904348-8.904348 8.904347-8.904347c2.226087-2.226087 4.452174-4.452174 8.904348-6.678261 2.226087-2.226087 2.226087-4.452174 4.452174-4.452174l4.452174-4.452174c2.226087-2.226087 4.452174-2.226087 4.452174-2.226087s4.452174 0 4.452174-2.226087 4.452174-2.226087 4.452174-4.452174c2.226087-2.226087 2.226087-2.226087 6.678261-4.452174 0 0 2.226087 0 2.226087-2.226087h4.452173c2.226087 0 4.452174-2.226087 4.452174-2.226087 0-2.226087 2.226087-4.452174 2.226087-6.678261h17.808696c2.226087-2.226087 4.452174-2.226087 6.678261-4.452174 2.226087-2.226087 2.226087-2.226087 4.452174-2.226086 2.226087-2.226087 2.226087-2.226087 2.226087-4.452174 0 0 0-2.226087 2.226087-2.226087h4.452174s2.226087 0 2.226087-2.226087 0-2.226087 2.226087-4.452174h4.452173c2.226087 0 4.452174-2.226087 6.678261-4.452174l4.452174-4.452174c2.226087-2.226087 4.452174-2.226087 4.452174-2.226087s4.452174 0 4.452174-2.226087c4.452174-4.452174 6.678261-8.904348 8.904348-11.130435 4.452174-2.226087 6.678261-4.452174 11.130435-4.452174 2.226087-2.226087 6.678261-4.452174 8.904347-4.452174 2.226087 0 2.226087-2.226087 4.452174-2.226087 0 0 2.226087-2.226087 2.226087-4.452173h4.452174v-2.226087h4.452174v-2.226087-2.226087h4.452174V267.130435c0-2.226087 0-2.226087 2.226087-2.226087H618.852174v-4.452174h4.452174v-2.226087h4.452174v-2.226087h4.452174V244.869565v-2.226087h6.678261c4.452174-2.226087 6.678261-4.452174 8.904347-4.452174 2.226087-2.226087 6.678261-2.226087 8.904348-2.226087 2.226087 0 4.452174 0 2.226087-2.226087 0-2.226087 0-2.226087 2.226087-2.226087 2.226087-2.226087 4.452174-2.226087 8.904348-2.226086 2.226087 0 4.452174-2.226087 4.452174-2.226087h4.452174c2.226087-2.226087 6.678261-2.226087 8.904348-4.452174 4.452174-2.226087 6.678261 0 8.904347 0-2.226087 8.904348-6.678261 13.356522-13.356521 15.582608-6.678261 2.226087-13.356522 4.452174-17.808696 8.904348 2.226087 0 6.678261-2.226087 11.130435-4.452174s6.678261-2.226087 8.904348 0c0 2.226087-2.226087 4.452174-2.226087 8.904348-2.226087 2.226087-2.226087 4.452174-2.226087 6.678261v2.226087s-2.226087 0-2.226087 2.226087-2.226087 2.226087-2.226087 4.452174 0 2.226087-2.226087 4.452174c0 2.226087-2.226087 2.226087-4.452174 4.452174l-4.452174 4.452174-2.226087 4.452173c0 2.226087-2.226087 4.452174-4.452174 4.452174-2.226087 2.226087-2.226087 4.452174-4.452174 4.452174 0 2.226087 0 4.452174-2.226087 4.452174s-4.452174 2.226087-4.452174 2.226087v4.452174c0 2.226087-2.226087 4.452174-4.452174 6.678261-2.226087 4.452174-4.452174 6.678261-6.67826 8.904348l-6.678261 6.678261c-2.226087 4.452174-4.452174 6.678261-6.678261 6.67826-2.226087 2.226087-4.452174 2.226087-6.678261 4.452174V345.043478c-2.226087 2.226087-4.452174 4.452174-6.678261 4.452174l-4.452174 4.452174c0 4.452174-4.452174 8.904348-8.904348 11.130435 6.678261 8.904348 4.452174 13.356522 4.452174 15.582609v2.226087h-2.226087c-4.452174 4.452174-6.678261 8.904348-11.130434 11.130434s-8.904348 6.678261-11.130435 8.904348v4.452174c-2.226087 2.226087-4.452174 2.226087-6.678261 4.452174-2.226087 0-4.452174 2.226087-6.678261 4.452174-4.452174 4.452174-8.904348 8.904348-13.356522 15.582609s-8.904348 11.130435-13.356521 15.582608c-8.904348 13.356522-20.034783 24.486957-33.391305 35.617392-11.130435 11.130435-24.486957 22.26087-33.391304 31.165217-6.678261 6.678261-11.130435 13.356522-17.808696 17.808696-4.452174 6.678261-11.130435 11.130435-15.582609 15.582608-2.226087 0-4.452174 2.226087-6.67826 4.452174-11.130435 8.904348-20.034783 20.034783-31.165218 28.939131s-20.034783 17.808696-28.93913 28.93913l-20.034783 20.034783c-6.678261 6.678261-11.130435 13.356522-17.808695 17.808695-2.226087 2.226087-4.452174 2.226087-6.678261 4.452174-2.226087 0-4.452174 2.226087-6.678261 4.452174s-2.226087 4.452174-4.452174 4.452174-2.226087 4.452174-4.452174 4.452174c-8.904348 8.904348-17.808696 15.582609-26.713044 22.26087-8.904348 6.678261-17.808696 13.356522-24.486956 20.034782-4.452174 4.452174-6.678261 6.678261-11.130435 8.904348-4.452174 2.226087-6.678261 6.678261-8.904348 8.904348-4.452174 4.452174-8.904348 6.678261-11.130434 8.904348-4.452174 2.226087-6.678261 4.452174-8.904348 8.904347-4.452174 2.226087-8.904348 4.452174-11.130435 8.904348-2.226087 2.226087-6.678261 6.678261-11.130435 8.904348l-8.904348 8.904348c-2.226087 2.226087-2.226087 8.904348-4.452174 13.356522-2.226087 2.226087-4.452174 2.226087-6.67826 4.452174-2.226087 0-4.452174 2.226087-6.678261 4.452174-4.452174 4.452174-8.904348 8.904348-15.582609 13.356521-4.452174 4.452174-11.130435 8.904348-15.582609 13.356522s-6.678261 4.452174-8.904348 6.678261c-2.226087 2.226087-6.678261 4.452174-11.130434 8.904348s-11.130435 8.904348-15.582609 13.356521c-4.452174 4.452174-8.904348 11.130435-13.356522 15.582609-2.226087 0-4.452174 2.226087-4.452174 4.452174s2.226087 4.452174 4.452174 4.452174c2.226087-2.226087 4.452174-4.452174 6.678261-4.452174 4.452174 0 8.904348-4.452174 11.130435-8.904348 2.226087-4.452174 4.452174-8.904348 6.678261-8.904348h4.452174l4.452174-4.452174c2.226087-2.226087 4.452174-4.452174 6.67826-4.452173 2.226087-2.226087 6.678261-4.452174 8.904348-8.904348 4.452174-2.226087 6.678261-4.452174 8.904348-8.904348 4.452174-2.226087 6.678261-4.452174 8.904348-6.678261s4.452174-4.452174 4.452174-6.678261c2.226087-2.226087 2.226087-2.226087 4.452174-2.226087s2.226087 0 4.452174-2.226087c2.226087-4.452174 6.678261-6.678261 8.904348-8.904348s6.678261-6.678261 11.130434-8.904347l6.678261-6.678261c0-2.226087 2.226087-2.226087 2.226087-2.226087 4.452174 0 6.678261-2.226087 6.678261-4.452174l2.226087-4.452174c2.226087-2.226087 4.452174-2.226087 6.678261-2.226087 2.226087 0 4.452174 0 6.678261-2.226087l8.904348-8.904348 4.452173-4.452174 4.452174-4.452174c4.452174-4.452174 8.904348-8.904348 15.582609-11.130434 4.452174-4.452174 8.904348-6.678261 11.130435-11.130435h4.452174l6.678261-6.678261 6.67826-6.678261h4.452174s2.226087 0 4.452174-2.226087l11.130435-11.130435c4.452174-4.452174 8.904348-6.678261 11.130435-6.678261 2.226087 0 4.452174-2.226087 6.678261-6.67826 2.226087-2.226087 2.226087-4.452174 4.452174-6.678261h4.452174c2.226087 0 2.226087 0 2.226087-2.226087 4.452174-2.226087 8.904348-4.452174 11.130434-8.904348s4.452174-6.678261 8.904348-8.904348l6.678261-6.678261c2.226087-2.226087 4.452174-4.452174 6.678261-4.452174 2.226087 0 4.452174 0 4.452174-2.226087s2.226087-4.452174 4.452174-4.452174c2.226087-2.226087 6.678261-4.452174 8.904348-6.67826s6.678261-4.452174 11.130434-8.904348c2.226087-2.226087 4.452174-4.452174 6.678261-8.904348 2.226087-2.226087 4.452174-4.452174 4.452174-6.678261 2.226087 0 2.226087-2.226087 4.452174-2.226087 0 0 2.226087 0 4.452174-2.226087 4.452174-2.226087 6.678261-6.678261 8.904348-8.904348 2.226087-4.452174 6.678261-6.678261 8.904348-8.904347 6.678261-4.452174 13.356522-11.130435 20.034782-17.808696 6.678261-6.678261 11.130435-11.130435 20.034783-17.808696 6.678261-6.678261 15.582609-15.582609 22.260869-24.486956 8.904348-8.904348 15.582609-15.582609 22.26087-20.034783 4.452174-2.226087 8.904348-2.226087 8.904348-2.226087v-2.226087-4.452174h4.452174c6.678261-6.678261 11.130435-13.356522 17.808695-17.808695 4.452174-6.678261 11.130435-13.356522 17.808696-20.034783 4.452174-4.452174 11.130435-8.904348 17.808696-15.582609 6.678261-4.452174 11.130435-11.130435 15.582608-15.582608 0 0 2.226087-2.226087 2.226087-4.452174s0-2.226087 2.226087-4.452174c2.226087-4.452174 4.452174-6.678261 8.904348-8.904348l8.904348-8.904348 8.904348-4.452174c2.226087-2.226087 4.452174-4.452174 6.678261-4.452174s2.226087-4.452174 2.226087-4.452174v-4.452174c2.226087-4.452174 4.452174-6.678261 8.904347-8.904347 2.226087-2.226087 6.678261-4.452174 11.130435-8.904348 8.904348-11.130435 17.808696-20.034783 24.486957-31.165218 8.904348-11.130435 15.582609-20.034783 24.486956-31.165217 0-2.226087 0-4.452174 2.226087-6.678261s4.452174-2.226087 4.452174 2.226087c-2.226087 0-4.452174 2.226087-6.678261 4.452174-2.226087 2.226087-2.226087 4.452174-2.226087 6.678261 0 2.226087-2.226087 4.452174-2.226087 2.226087h-4.452174v4.452174s0 4.452174-2.226087 4.452174c0 0-2.226087 2.226087-4.452174 2.226087s-2.226087 2.226087-4.452173 2.226087c0 2.226087-2.226087 4.452174-2.226087 4.452174 0 2.226087 0 2.226087-2.226087 2.226086 0 0 0 2.226087-2.226087 2.226087 0 0-2.226087 0-2.226087 2.226087l-6.678261 6.678261c-2.226087 2.226087-4.452174 4.452174-6.678261 4.452174v6.678261l-2.226087 2.226087c-2.226087 0-2.226087 2.226087-2.226087 2.226087v4.452174c0 2.226087 0 2.226087-2.226087 4.452174 0 2.226087-2.226087 2.226087-4.452174 2.226087s-2.226087 2.226087-4.452174 2.226087c-2.226087 2.226087-4.452174 4.452174-6.678261 8.904348-2.226087 2.226087-4.452174 6.678261-6.67826 11.130434-2.226087 2.226087-4.452174 2.226087-4.452174 4.452174-2.226087 2.226087-4.452174 2.226087-4.452174 2.226087v4.452174c-4.452174 4.452174-6.678261 8.904348-11.130435 11.130435s-6.678261 6.678261-11.130435 8.904348c-4.452174 4.452174-6.678261 8.904348-11.130435 11.130434-4.452174 2.226087-6.678261 6.678261-8.904347 11.130435l-13.356522 13.356522c-4.452174 4.452174-8.904348 11.130435-13.356522 15.582609-13.356522 13.356522-26.713043 28.93913-42.295652 42.295652-13.356522 13.356522-28.93913 26.713043-42.295652 40.069565-4.452174 4.452174-8.904348 8.904348-15.582609 13.356522s-11.130435 8.904348-15.582609 13.356522c-4.452174 4.452174-8.904348 8.904348-13.356521 15.582608-4.452174 4.452174-8.904348 11.130435-13.356522 15.582609 0 2.226087-2.226087 2.226087-4.452174 2.226087h-4.452174c-2.226087 2.226087-2.226087 4.452174-4.452174 4.452174 0 2.226087 0 4.452174-2.226087 4.452174-4.452174 4.452174-11.130435 8.904348-15.582609 13.356521l-13.356521 13.356522c-4.452174 4.452174-11.130435 8.904348-15.582609 13.356522l-13.356522 13.356522c-2.226087 2.226087-4.452174 4.452174-6.678261 8.904348-2.226087 2.226087-4.452174 4.452174-8.904347 6.67826-2.226087 2.226087-4.452174 2.226087-4.452174 2.226087s-4.452174 0-4.452174 2.226087c0 0-2.226087 0-2.226087 2.226087s0 2.226087-2.226087 2.226087l-11.130435 11.130435H296.069565c-2.226087 2.226087-2.226087 4.452174-4.452174 6.678261s0 8.904348-2.226087 11.130435h-4.452174c-2.226087 0-4.452174 2.226087-6.67826 6.678261-2.226087 4.452174-4.452174 4.452174-6.678261-2.226087 0 0 2.226087 0 4.452174-2.226087l4.452174-2.226087c2.226087 0 2.226087-2.226087 2.226086-2.226087s-2.226087-2.226087-4.452173-2.226087c0 2.226087-2.226087 4.452174-4.452174 4.452174s-4.452174 0-4.452174 2.226087c-2.226087 2.226087-4.452174 4.452174-6.678261 4.452174-2.226087 2.226087-4.452174 2.226087-6.678261 4.452173-2.226087 0-4.452174 0-4.452174 2.226087l-4.452174 4.452174c-2.226087 0-2.226087 2.226087-4.452174 4.452174s-2.226087 4.452174-4.452174 4.452174c-2.226087 2.226087-4.452174 2.226087-6.678261 4.452174-2.226087 0-4.452174 0-6.67826 2.226087l-4.452174 4.452174c0 2.226087-2.226087 2.226087-4.452174 4.452174-4.452174 4.452174-8.904348 8.904348-13.356522 11.130435s-8.904348 6.678261-11.130435 8.904347h-2.226087l-4.452174 4.452174c-2.226087 0-4.452174 2.226087-6.67826 2.226087-4.452174 4.452174-6.678261 6.678261-8.904348 11.130435-2.226087 2.226087-4.452174 6.678261-8.904348 8.904348-4.452174 4.452174-11.130435 8.904348-15.582609 11.130435-4.452174 4.452174-8.904348 6.678261-13.356522 11.130434l-4.452173 4.452174c-2.226087 2.226087-2.226087 4.452174 0 6.678261 2.226087 4.452174 4.452174 4.452174 6.67826 2.226087 2.226087-2.226087 4.452174-2.226087 4.452174 2.226087-2.226087 0-2.226087 4.452174-2.226087 11.130435 4.452174 0 6.678261 2.226087 6.678261 6.678261s2.226087 6.678261 6.678261 4.452174c2.226087 4.452174 4.452174 6.678261 6.678261 11.130435s4.452174 4.452174 8.904348 4.452173c2.226087 0 4.452174 0 8.904348-2.226087 0 0 2.226087-2.226087 2.226087-4.452173S178.086957 890.434783 178.086957 890.434783c2.226087 0 4.452174-2.226087 8.904347-4.452174 2.226087-2.226087 4.452174-2.226087 6.678261 2.226087 0 4.452174 0 6.678261 2.226087 8.904347 2.226087 2.226087 2.226087 4.452174 0 8.904348-4.452174 2.226087-6.678261 8.904348-4.452174 17.808696 4.452174 0 6.678261 2.226087 8.904348 4.452174 2.226087 2.226087 4.452174 2.226087 8.904348-2.226087 4.452174 0 6.678261 0 8.904348-4.452174 2.226087-4.452174 4.452174-4.452174 6.678261-2.226087-2.226087 2.226087-4.452174 2.226087-6.678261 4.452174-2.226087 0-2.226087 4.452174-2.226087 8.904348 4.452174 0 8.904348 2.226087 15.582608 2.226087z m585.46087-712.347826c0-2.226087 2.226087-2.226087 4.452174-2.226087s2.226087 2.226087 2.226087 6.678261c0 4.452174-2.226087 4.452174-6.678261 0 2.226087 0 2.226087 0 0-4.452174zM316.104348 756.869565c-4.452174-2.226087-4.452174-4.452174-2.226087-4.452174 4.452174-2.226087 4.452174-2.226087 4.452174-4.452174 6.678261-4.452174 11.130435-8.904348 17.808695-15.582608 4.452174-4.452174 8.904348-11.130435 15.582609-15.582609 4.452174-4.452174 8.904348-8.904348 15.582609-13.356522 6.678261-4.452174 11.130435-8.904348 15.582609-13.356521 4.452174-2.226087 6.678261-4.452174 8.904347-8.904348 2.226087-2.226087 4.452174-6.678261 6.678261-8.904348 2.226087-2.226087 4.452174-4.452174 6.678261-4.452174 2.226087-2.226087 6.678261-4.452174 8.904348-4.452174 6.678261-6.678261 13.356522-13.356522 17.808696-20.034783 4.452174-6.678261 11.130435-13.356522 17.808695-17.808695 2.226087-2.226087 2.226087-4.452174 2.226087-6.678261h4.452174c2.226087-2.226087 4.452174-4.452174 8.904348-6.678261l6.678261-6.678261c4.452174-4.452174 8.904348-11.130435 15.582608-15.582609 4.452174-4.452174 11.130435-8.904348 15.582609-13.356521 20.034783-20.034783 40.069565-42.295652 57.878261-62.330435l22.26087-22.26087c8.904348-8.904348 15.582609-15.582609 22.260869-24.486956l6.678261-6.678261 6.678261-6.678261 8.904348-8.904348v-2.226087-2.226087c2.226087-2.226087 6.678261-4.452174 11.130435-11.130434l2.226086-2.226087s2.226087 0 4.452174-2.226087v-4.452174-2.226087l6.678261-6.678261 6.678261-6.678261c2.226087-2.226087 4.452174-4.452174 8.904348-6.678261s6.678261-4.452174 8.904348-6.678261v-2.226087-2.226087l4.452174-2.226087c2.226087 0 2.226087-2.226087 2.226087-4.452173 0 0 0-2.226087 2.226087-2.226087v-2.226087-2.226087s2.226087-2.226087 4.452174-2.226087 2.226087 0 2.226086-2.226087c2.226087 0 2.226087-2.226087 2.226087-2.226087l-2.226087-2.226087c4.452174-2.226087 6.678261-2.226087 8.904348-2.226087v-2.226087-4.452174l2.226087-2.226087c2.226087 0 2.226087 0 2.226087-2.226087v-2.226087-4.452174s0-2.226087 2.226087-2.226087 2.226087 0 2.226087-2.226087v-4.452174l2.226087-2.226087s2.226087 0 2.226087-2.226086v-4.452174s2.226087-2.226087 4.452174-2.226087 2.226087-2.226087 2.226087-2.226087c2.226087-2.226087 2.226087-4.452174 2.226087-6.678261V311.652174s2.226087-2.226087 2.226087 0l2.226087-2.226087c0-2.226087 0-2.226087 2.226087-2.226087s2.226087-2.226087 2.226087-2.226087V289.391304c2.226087-4.452174 2.226087-8.904348 4.452174-11.130434 0-2.226087 2.226087-6.678261 4.452174-11.130435h2.226086c2.226087 0 2.226087 0 2.226087-2.226087v-4.452174s0-2.226087 2.226087-2.226087h2.226087c2.226087-2.226087 2.226087-4.452174 2.226087-6.678261V244.869565c2.226087-2.226087 2.226087-6.678261 4.452174-11.130435 0-4.452174 4.452174-6.678261 11.130435-4.452173 4.452174 0 6.678261 2.226087 8.904348 4.452173v8.904348c0 2.226087-2.226087 6.678261-4.452174 8.904348-2.226087 4.452174-2.226087 6.678261-4.452174 8.904348 0 2.226087-2.226087 4.452174-2.226087 4.452174s0 4.452174-2.226087 4.452174c0 0-2.226087 2.226087-2.226087 0v2.226087s0 2.226087-2.226087 4.452174c0 2.226087-2.226087 4.452174-2.226087 4.452174-2.226087 0-4.452174 0-6.678261 2.226086-2.226087 2.226087-2.226087 4.452174-2.226087 6.678261s0 4.452174-2.226087 6.678261c-2.226087 0-2.226087 2.226087-4.452173 0V302.747826l-2.226087 2.226087c-2.226087 2.226087-4.452174 2.226087-4.452174 4.452174l-4.452174 4.452174v4.452174s-2.226087 2.226087-4.452174 2.226087-2.226087 0-2.226087 2.226087V329.46087l-8.904348 8.904347c-4.452174 8.904348-11.130435 17.808696-20.034783 26.713044-8.904348 8.904348-15.582609 17.808696-22.260869 26.713043-2.226087 2.226087-4.452174 4.452174-8.904348 6.678261-4.452174 2.226087-6.678261 4.452174-8.904348 8.904348l-8.904348 8.904348v4.452174c-4.452174 4.452174-11.130435 8.904348-17.808695 17.808695l-17.808696 17.808696c-15.582609 17.808696-33.391304 37.843478-53.426087 55.652174-20.034783 17.808696-37.843478 37.843478-55.652174 55.652174l-11.130435 11.130435c-2.226087 4.452174-6.678261 6.678261-13.356521 11.130434l-17.808696 17.808696-20.034783 20.034783h-4.452173c-4.452174 2.226087-6.678261 6.678261-11.130435 11.130435-2.226087 4.452174-6.678261 6.678261-11.130435 11.130434l-2.226087 2.226087c0 2.226087-2.226087 2.226087-2.226087 2.226087h-2.226087-4.452174c-2.226087 2.226087-4.452174 6.678261-6.678261 8.904348s-4.452174 6.678261-6.678261 8.904348c-2.226087 2.226087-6.678261 4.452174-8.904347 4.452174s-6.678261 4.452174-8.904348 4.452174c-2.226087 2.226087-2.226087 4.452174-4.452174 6.678261-2.226087 2.226087-2.226087 4.452174-6.678261 4.452173-2.226087 0-4.452174 2.226087-11.130435 6.678261l-11.130435 11.130435c-4.452174 4.452174-11.130435 11.130435-17.808695 15.582609s2.226087 24.486957-2.226087 31.165217z m592.13913-258.226087c11.130435-11.130435 24.486957-22.26087 37.843479-33.391304 15.582609-13.356522 31.165217-28.93913 44.521739-44.521739 2.226087 0 2.226087-2.226087 4.452174-4.452174s0-2.226087-2.226087-4.452174c0 2.226087-2.226087 4.452174-2.226087 4.452174s-2.226087 2.226087-4.452174 2.226087l-2.226087 2.226087s-2.226087 2.226087-4.452174 2.226087c-4.452174 2.226087-6.678261 4.452174-11.130435 4.452174 0 0-2.226087 0-2.226087 2.226087 0 0 0 2.226087-2.226087 2.226087s-4.452174 2.226087-4.452174 6.67826c-2.226087 6.678261-2.226087 6.678261-4.452174 6.678261h-4.452174c-2.226087 2.226087-2.226087 4.452174-4.452173 6.678261s-2.226087 4.452174-4.452174 6.678261h-2.226087-2.226087l-2.226087 2.226087-8.904348 6.678261-2.226087 2.226087-6.678261 6.678261-6.678261 6.678261-4.452174 4.452173-4.452174 4.452174c-4.452174 4.452174-11.130435 8.904348-15.582608 11.130435-2.226087 2.226087-4.452174 4.452174-4.452174 6.678261-2.226087 2.226087-4.452174 4.452174-4.452174 6.678261-2.226087 0-4.452174 2.226087-4.452174 2.226087s-4.452174 0-4.452174 2.226087-2.226087 4.452174-2.226087 4.452174c0 2.226087-2.226087 2.226087-2.226087 4.452174-2.226087 2.226087-4.452174 2.226087-6.678261 4.452174-2.226087 0-4.452174 2.226087-6.678261 4.452173-4.452174 2.226087-6.678261 4.452174-6.67826 6.678261-4.452174 4.452174-8.904348 6.678261-11.130435 8.904348-2.226087 2.226087-6.678261 4.452174-8.904348 8.904348-2.226087 2.226087-4.452174 4.452174-8.904348 6.678261-2.226087 2.226087-4.452174 4.452174-8.904348 6.678261l-11.130435 11.130435c-4.452174 4.452174-8.904348 6.678261-11.130434 8.904347-2.226087 2.226087-4.452174 6.678261-6.678261 8.904348-2.226087 4.452174-4.452174 6.678261-6.678261 8.904348-11.130435 0-13.356522 4.452174-13.356522 8.904348 0 2.226087 0 4.452174-2.226087 6.678261s0 2.226087 2.226087 4.452174c4.452174-4.452174 8.904348-8.904348 15.582609-17.808696 4.452174-8.904348 11.130435-11.130435 15.582609-11.130435 2.226087 0 4.452174-2.226087 6.67826-6.678261 2.226087-2.226087 2.226087-2.226087 2.226087 2.226087-6.678261 4.452174-11.130435 6.678261-8.904347 13.356522 0 4.452174 2.226087 8.904348 4.452174 13.356522 2.226087 4.452174 2.226087 6.678261 2.226086 8.904348 0 2.226087 2.226087 4.452174 2.226087 6.67826 2.226087 2.226087 4.452174 4.452174 4.452174 8.904348 2.226087 4.452174 2.226087 6.678261 2.226087 6.678261 2.226087 4.452174 4.452174 8.904348 8.904348 11.130435s4.452174 4.452174 4.452174 6.678261c4.452174 0 8.904348-2.226087 11.130435-4.452174 2.226087-2.226087 6.678261-4.452174 8.904348-8.904348 2.226087-2.226087 4.452174-4.452174 8.904347-6.678261 2.226087-2.226087 6.678261-2.226087 11.130435 0 2.226087 6.678261 2.226087 13.356522-2.226087 15.582609-2.226087 4.452174-4.452174 8.904348-4.452174 15.582609 4.452174 0 6.678261 4.452174 8.904348 8.904347 2.226087 0 4.452174 0 8.904348-2.226087s4.452174-2.226087 6.678261 2.226087c0 2.226087 2.226087 4.452174 4.452174 4.452174s4.452174 2.226087 4.452174 4.452174 0 4.452174-4.452174 6.678261-2.226087 0 4.452174 0c4.452174 4.452174 11.130435 4.452174 15.582608 0 4.452174-4.452174 8.904348-4.452174 13.356522-4.452174h2.226087v-2.226087c8.904348-6.678261 15.582609-8.904348 22.26087-8.904348 4.452174-2.226087 11.130435-2.226087 15.582608 0 4.452174 2.226087 8.904348 2.226087 13.356522 2.226087 2.226087 0 4.452174 0 8.904348-2.226087 2.226087 0 6.678261-2.226087 8.904348-2.226087 13.356522-2.226087 24.486957-2.226087 35.617391-4.452173 11.130435 0 20.034783-2.226087 26.713044-2.226087h8.904347c6.678261 0 13.356522-2.226087 22.26087-2.226087 6.678261 0 13.356522-2.226087 22.26087-2.226087 4.452174 0 8.904348-2.226087 11.130434-2.226087h11.130435c2.226087 0 2.226087 0 2.226087-2.226087v-2.226087c8.904348-2.226087 20.034783-2.226087 28.93913-2.226087 11.130435 0 20.034783-2.226087 28.939131-2.226087 2.226087 0 4.452174-2.226087 4.452174-2.226087h6.678261c8.904348-2.226087 17.808696-2.226087 24.486956-4.452174 6.678261 0 13.356522-2.226087 22.26087-2.226087-8.904348 22.26087-15.582609 44.521739-24.486957 71.234783-8.904348 26.713043-15.582609 51.2-22.260869 75.686956l-6.678261 26.713044c-2.226087 8.904348-4.452174 17.808696-4.452174 26.713043 0 6.678261-2.226087 15.582609-2.226087 28.939131s4.452174 20.034783 15.582609 22.260869c-2.226087-6.678261-4.452174-11.130435-4.452174-17.808696-2.226087-4.452174-2.226087-11.130435-2.226087-17.808695 0-4.452174 0-8.904348 2.226087-13.356522 2.226087-4.452174 2.226087-11.130435 2.226087-15.582609 2.226087-6.678261 4.452174-15.582609 4.452174-26.713043 2.226087-11.130435 4.452174-17.808696 8.904347-22.26087v-8.904347c0-2.226087 0-2.226087 2.226087-2.226087h2.226087c2.226087-4.452174 2.226087-11.130435 2.226087-15.582609 0-4.452174 2.226087-8.904348 2.226087-11.130435 0-2.226087 2.226087-4.452174 2.226087-8.904348 0-2.226087 2.226087-6.678261 2.226087-11.130435 2.226087-4.452174 2.226087-8.904348 4.452174-13.356521s2.226087-8.904348 4.452174-13.356522c4.452174-6.678261 6.678261-13.356522 8.904348-20.034783l6.678261-20.034782c2.226087-4.452174 4.452174-8.904348 4.452174-15.582609 2.226087-6.678261 4.452174-8.904348 13.356521-6.678261-2.226087 6.678261-4.452174 13.356522-6.678261 22.26087-2.226087 6.678261-4.452174 15.582609-8.904347 24.486956-2.226087 8.904348-6.678261 15.582609-11.130435 26.713044-4.452174 8.904348-6.678261 17.808696-8.904348 26.713043 0 2.226087 0 2.226087-2.226087 2.226087h-2.226087c-2.226087 6.678261-2.226087 13.356522-4.452174 17.808696 0 4.452174-2.226087 11.130435-4.452174 17.808696l-6.678261 26.713043c-2.226087 8.904348-4.452174 17.808696-4.452173 24.486957 0 4.452174-2.226087 8.904348-2.226087 15.582608 0 6.678261 0 11.130435 2.226087 15.582609h2.226086v4.452174c4.452174 8.904348 6.678261 13.356522 11.130435 15.582609 4.452174-4.452174 4.452174-11.130435 4.452174-15.582609-2.226087-4.452174-4.452174-11.130435-4.452174-17.808696 0-4.452174 0-8.904348 2.226087-13.356522 2.226087-4.452174 2.226087-8.904348 4.452174-13.356521 2.226087-6.678261 4.452174-11.130435 4.452174-17.808696 2.226087-6.678261 4.452174-8.904348 4.452174-13.356522v-4.452174c2.226087-4.452174 2.226087-6.678261 2.226087-11.130434s0-6.678261 2.226087-11.130435 4.452174-11.130435 6.678261-17.808696c2.226087-6.678261 4.452174-11.130435 4.452174-17.808695 0-2.226087 0-2.226087 2.226087-2.226087h2.226087c2.226087-4.452174 2.226087-6.678261 4.452173-8.904348 0-2.226087 2.226087-4.452174 2.226087-6.678261l2.226087-2.226087c0-2.226087 0-2.226087 2.226087-4.452174 0-2.226087 2.226087-4.452174 2.226087-4.452174 2.226087-4.452174 2.226087-8.904348 4.452174-13.356522 0-4.452174 2.226087-8.904348 4.452174-13.356521h4.452174v-4.452174c4.452174-11.130435 8.904348-22.26087 15.582609-28.939131 4.452174 0 6.678261 0 8.904348-2.226087 2.226087-2.226087 6.678261-2.226087 11.130434-2.226087-6.678261 15.582609-13.356522 33.391304-20.034782 48.973913-6.678261 15.582609-11.130435 33.391304-20.034783 51.2l-6.678261 20.034783-6.678261 20.034783c0 4.452174-2.226087 8.904348-4.452174 13.356521-2.226087 4.452174-4.452174 8.904348-4.452173 13.356522-2.226087 6.678261-4.452174 13.356522-4.452174 22.26087-2.226087 6.678261-2.226087 15.582609-2.226087 22.260869v15.582609c0 4.452174 2.226087 11.130435 2.226087 17.808696v20.034782c0 6.678261 0 13.356522 2.226087 20.034783 4.452174 2.226087 6.678261 4.452174 8.904347 6.678261 2.226087 2.226087 4.452174 4.452174 8.904348 6.678261 2.226087-2.226087 4.452174-2.226087 4.452174-2.226087 2.226087 0 2.226087 2.226087 2.226087 4.452173s2.226087 2.226087 4.452174 2.226087 4.452174 0 4.452174 2.226087H1313.391304c4.452174-4.452174 4.452174-6.678261 0-8.904347-2.226087-2.226087-4.452174-8.904348-4.452174-13.356522 2.226087-11.130435 4.452174-20.034783 8.904348-28.939131 2.226087-8.904348 6.678261-20.034783 8.904348-28.93913 0-4.452174 2.226087-11.130435 6.678261-15.582609v-2.226087c0-2.226087 0-2.226087 2.226087-2.226087h2.226087c2.226087-4.452174 4.452174-8.904348 4.452174-15.582608 2.226087-6.678261 2.226087-8.904348 4.452174-11.130435 2.226087-2.226087 2.226087-4.452174 2.226087-4.452174 2.226087-6.678261 4.452174-13.356522 6.678261-17.808696l6.67826-13.356521c13.356522-37.843478 28.93913-73.46087 44.52174-106.852174s31.165217-69.008696 46.747826-102.4c26.713043-55.652174 51.2-111.304348 77.913043-164.730435 26.713043-53.426087 51.2-109.078261 75.686957-164.730435 0-2.226087-2.226087-2.226087-4.452174-2.226087s-4.452174 2.226087-6.678261 2.226087c-2.226087 2.226087-4.452174 2.226087-6.678261 2.226087s-4.452174 0-4.452174-2.226087c2.226087-6.678261 4.452174-11.130435 8.904348-13.356522 4.452174-2.226087 6.678261-8.904348 6.678261-15.582608-4.452174-2.226087-6.678261-2.226087-13.356522-4.452174s-6.678261-2.226087-11.130435-4.452174c0-11.130435 0-20.034783-4.452174-24.486957 0 0-4.452174 0-8.904348-2.226087-2.226087 0-4.452174-2.226087-4.452173-4.452174-4.452174 0-6.678261 0-11.130435 4.452174-2.226087 2.226087-6.678261 6.678261-8.904348 11.130435-2.226087 4.452174-6.678261 8.904348-8.904348 13.356522-2.226087 4.452174-6.678261 8.904348-8.904348 11.130435v4.452174c0 2.226087-2.226087 2.226087-4.452174 2.226087s-2.226087 0-2.226087 2.226086 0 4.452174-2.226087 4.452174-2.226087 0-2.226086 2.226087c-2.226087 4.452174-2.226087 6.678261-4.452174 8.904348 0 2.226087-2.226087 2.226087-4.452174 4.452174v4.452174h-2.226087V262.678261c0 2.226087 0 2.226087-2.226087 4.452174-2.226087 0-2.226087 2.226087-4.452174 2.226087-4.452174 8.904348-8.904348 17.808696-13.356522 24.486956-4.452174 8.904348-8.904348 15.582609-13.356522 24.486957-8.904348 17.808696-20.034783 35.617391-28.93913 51.2-8.904348 15.582609-17.808696 33.391304-24.486957 51.2-2.226087 4.452174-4.452174 8.904348-8.904347 15.582608s0 8.904348-2.226087 8.904348V451.895652h-2.226087v4.452174h-2.226087l-2.226087 8.904348c0 4.452174-2.226087 6.678261-2.226087 6.678261v4.452174h-4.452174v4.452174H1380.173913v8.904347s0 2.226087-2.226087 2.226087l-2.226087 2.226087v2.226087c0 2.226087-2.226087 6.678261-4.452174 13.356522-4.452174 6.678261-4.452174 11.130435-4.452174 13.356522s0 2.226087-2.226087 2.226087h-2.226087c-2.226087 4.452174-4.452174 11.130435-6.67826 17.808695l-6.678261 13.356522c-2.226087 4.452174-4.452174 11.130435-6.678261 15.582609h-11.130435c-4.452174 0-6.678261 0-6.678261-2.226087 2.226087-8.904348 4.452174-17.808696 8.904348-24.486957 2.226087-2.226087 2.226087-4.452174 4.452174-8.904347l8.904348-17.808696v-4.452174c0-2.226087 0-4.452174 2.226087-6.678261 2.226087-2.226087 2.226087-4.452174 2.226087-4.452174 0-2.226087 2.226087-4.452174 4.452174-4.452174 2.226087-2.226087 2.226087-4.452174 2.226086-6.678261 0-2.226087 0-4.452174 2.226087-6.67826 2.226087-2.226087 4.452174-2.226087 4.452174-4.452174v-2.226087h2.226087c2.226087-4.452174 2.226087-8.904348 4.452174-13.356522 0-4.452174 2.226087-8.904348 4.452174-13.356522h2.226087v-2.226087-4.452174h4.452174s2.226087 0 0-2.226087 0-2.226087 0-4.452174h4.452174v-4.452173h4.452174v-4.452174h2.226087V422.956522h2.226087v-2.226087-4.452174s0 2.226087 2.226087 2.226087c0 0 2.226087 0 2.226087-2.226087v-4.452174h4.452174v-4.452174H1402.434783v-4.452174h2.226087v-4.452174c0-2.226087 2.226087-2.226087 4.452173-2.226087s2.226087-2.226087 2.226087-2.226087c2.226087-2.226087 2.226087-2.226087 4.452174-2.226087s0 0 2.226087-2.226087 0-4.452174 0-4.452174 0-4.452174 2.226087-4.452173h2.226087v-4.452174h2.226087v-4.452174-2.226087h2.226087s2.226087-2.226087 0-2.226087v-4.452174h4.452174v-4.452174h2.226087v-4.452174s2.226087-2.226087 4.452174-2.226087 2.226087-2.226087 2.226087-4.452174 0-4.452174 2.226087-6.678261c2.226087-2.226087 2.226087-2.226087 2.226087-4.452174s2.226087-4.452174 4.452174-6.67826 2.226087-4.452174 2.226087-4.452174v-2.226087s2.226087 0 2.226087-2.226087c2.226087-4.452174 2.226087-6.678261 4.452174-8.904348 0-2.226087 2.226087-4.452174 4.452173-8.904348 4.452174-6.678261 8.904348-11.130435 8.904348-11.130435v-4.452174h2.226087v-4.452174h4.452174v-2.226086-4.452174h2.226087v-6.678261s2.226087-2.226087 4.452174-2.226087 2.226087-2.226087 2.226087-4.452174 2.226087-4.452174 4.452174-6.678261c2.226087-2.226087 4.452174-2.226087 4.452174-4.452174v-2.226087h2.226087c4.452174-6.678261 6.678261-13.356522 8.904348-17.808696 2.226087-4.452174 6.678261-11.130435 11.130434-15.582608 2.226087 2.226087 2.226087 4.452174 4.452174 8.904348s2.226087 4.452174 4.452174 6.67826v-22.260869c0-4.452174 0-6.678261-2.226087-8.904348 0-4.452174 0-6.678261 2.226087-8.904348 2.226087 0 4.452174-4.452174 2.226087-8.904348-4.452174-2.226087-8.904348 0-8.904348 2.226087-2.226087 2.226087-2.226087 4.452174-4.452174 6.678261-2.226087 2.226087-4.452174 2.226087-8.904347 4.452174-2.226087 0-6.678261 2.226087-8.904348 4.452174-2.226087 2.226087-6.678261 4.452174-11.130435 11.130435-4.452174 4.452174-6.678261 8.904348-8.904348 11.130435 0 2.226087-2.226087 6.678261-6.678261 8.904347l-8.904348 8.904348c-4.452174 4.452174-6.678261 8.904348-11.130434 15.582609s-6.678261 8.904348-8.904348 11.130435v4.452174c-2.226087 2.226087-6.678261 4.452174-8.904348 8.904348-4.452174 6.678261-8.904348 13.356522-13.356522 22.260869s-8.904348 15.582609-13.356521 24.486957c0 2.226087-2.226087 2.226087-2.226087 2.226087s-2.226087 0-4.452174 2.226087v4.452173c-2.226087 2.226087-4.452174 2.226087-4.452174 4.452174l-4.452174 4.452174v2.226087c0 2.226087 0 2.226087-2.226087 2.226087h-2.226087c-2.226087 4.452174-2.226087 6.678261-4.452174 6.678261l-4.452174 4.452174v6.678261c0 2.226087-2.226087 2.226087-4.452174 4.452174-2.226087 0-2.226087 2.226087-4.452174 4.452174 0 0-2.226087 2.226087-2.226087 4.452174v4.452173c0 2.226087 0 2.226087-2.226087 2.226087s-2.226087 0-2.226087 2.226087c-4.452174 4.452174-6.678261 8.904348-8.904347 15.582609-2.226087 4.452174-4.452174 11.130435-8.904348 15.582609v4.452174h-2.226087v4.452174h-2.226087v4.452174H1335.652174s-2.226087 2.226087-2.226087 4.452173c0 0 0 2.226087 2.226087 2.226087h-4.452174v4.452174h-2.226087v4.452174h-2.226087v4.452174h-2.226087v4.452174h-4.452174V465.252174c-2.226087 4.452174-4.452174 11.130435-8.904348 17.808696s-6.678261 11.130435-6.67826 15.582608c0 2.226087 0 4.452174-2.226087 6.678261-2.226087 2.226087-2.226087 4.452174-2.226087 4.452174s0 2.226087-2.226087 2.226087h-2.226087c-2.226087 4.452174-2.226087 8.904348-4.452174 8.904348 0 2.226087-2.226087 4.452174-2.226087 4.452174v4.452174h-2.226087v6.678261h-2.226087c-2.226087 2.226087-2.226087 4.452174-2.226087 8.904347s0 4.452174-4.452174 2.226087c-33.391304 2.226087-69.008696 4.452174-102.4 6.678261-35.617391 2.226087-69.008696 6.678261-100.173913 13.356522 11.130435-13.356522 22.26087-24.486957 33.391304-35.617391l33.391305-33.391305c4.452174-4.452174 6.678261-8.904348 11.130434-11.130435s6.678261-6.678261 11.130435-11.130434c15.582609-15.582609 28.93913-31.165217 44.521739-48.973913 13.356522-15.582609 28.93913-31.165217 44.52174-48.973913 6.678261-8.904348 13.356522-17.808696 22.260869-26.713044 6.678261-8.904348 13.356522-17.808696 22.26087-24.486956 2.226087-4.452174 4.452174-8.904348 8.904347-11.130435l2.226087-2.226087 8.904348-8.904348 2.226087-2.226087c2.226087-2.226087 2.226087-4.452174 4.452174-8.904348s2.226087-4.452174 4.452174-6.678261c0-2.226087 2.226087-2.226087 2.226087-2.226087l2.226087-2.226087c0-2.226087 2.226087-2.226087 2.226087-4.452173s0-2.226087 2.226087-4.452174c0-2.226087 2.226087-2.226087 2.226087-2.226087s2.226087 0 2.226087-2.226087 2.226087-4.452174 2.226087-4.452174c0-2.226087 0-2.226087 2.226087-4.452174l4.452174-4.452174c2.226087-2.226087 2.226087-2.226087 2.226087-4.452174V244.869565s2.226087-2.226087 4.452173-2.226087 2.226087-2.226087 4.452174-4.452174 2.226087-2.226087 2.226087-4.452174c0 0 0-2.226087 2.226087-4.452173 0 0 0-2.226087 2.226087-2.226087s2.226087-2.226087 4.452174-2.226087c0-2.226087 2.226087-4.452174 2.226087-4.452174 0-2.226087 0-4.452174 2.226087-4.452174 4.452174-8.904348 11.130435-20.034783 15.582609-33.391305 4.452174-11.130435 6.678261-24.486957 6.678261-40.069565 0-4.452174-2.226087-6.678261-4.452174-8.904348s-15.582609 13.356522-15.582609 8.904348v-17.808695c-4.452174-2.226087-6.678261-6.678261-8.904348-8.904348-2.226087-4.452174-4.452174-6.678261-4.452174-11.130435-2.226087-2.226087-6.678261-4.452174-11.130434-6.678261s-6.678261-4.452174-8.904348-8.904348c-4.452174 0-8.904348 0-11.130435 2.226087-2.226087 2.226087-4.452174 4.452174-8.904348 6.678261 0-4.452174 0-6.678261-2.226087-6.678261s-2.226087-2.226087-2.226087-6.678261c0-4.452174-2.226087-4.452174-4.452174-4.452174s-4.452174-2.226087-4.452174-4.452173c-4.452174 0-8.904348 0-11.130434 4.452173l-6.678261 6.678261c0-2.226087-2.226087 0-4.452174 2.226087-2.226087 0-6.678261 0-11.130435-2.226087 2.226087 4.452174 0 8.904348-4.452174 13.356522-4.452174 2.226087-8.904348 6.678261-8.904348 8.904348 0 2.226087 0 2.226087-2.226087 2.226087 0 0-2.226087 0-2.226087 2.226087l-13.356521 13.356522c0 4.452174 0 8.904348-2.226087 11.130434-2.226087 2.226087-2.226087 6.678261 0 11.130435-2.226087 0-4.452174 2.226087-4.452174 4.452174s-2.226087 4.452174-4.452174 8.904348c-2.226087 2.226087-4.452174 4.452174-6.678261 4.452174s-4.452174 4.452174-6.678261 4.452174v4.452174c0 2.226087 0 2.226087-2.226087 4.452173s-4.452174 4.452174-4.452174 6.678261c-2.226087 2.226087-4.452174 4.452174-4.452174 6.678261-2.226087 2.226087-2.226087 4.452174-2.226087 6.678261-2.226087 0-2.226087 2.226087-4.452174 4.452174 0 2.226087 0 2.226087 2.226087 2.226087 4.452174-4.452174 6.678261-11.130435 13.356522-15.582609s8.904348-8.904348 13.356522-11.130435v-4.452173l6.678261-6.678261 6.678261-6.678261c2.226087-4.452174 4.452174-6.678261 6.67826-8.904348 2.226087-2.226087 4.452174-6.678261 4.452174-11.130435 4.452174 2.226087 6.678261 2.226087 6.678261-2.226087s0-4.452174 2.226087-6.678261l2.226087-2.226087s2.226087 0 2.226087-2.226087c0 0 2.226087-2.226087 2.226087-4.452173s0-2.226087 2.226087-4.452174 4.452174-2.226087 6.678261-4.452174c2.226087 0 4.452174-2.226087 4.452174-2.226087 2.226087-2.226087 4.452174-4.452174 6.678261-8.904348 2.226087-4.452174 4.452174-4.452174 6.678261-2.226087 0 4.452174-2.226087 6.678261-4.452174 8.904348s-2.226087 4.452174-2.226087 4.452174c0 2.226087 0 2.226087-2.226087 2.226087H1291.130435v6.678261c0 2.226087 0 4.452174-2.226087 4.452173 0 2.226087 0 2.226087-2.226087 2.226087s0 2.226087-2.226087 2.226087c0 0 0 2.226087-2.226087 4.452174 0 0-2.226087 2.226087-2.226087 4.452174s0 4.452174-2.226087 4.452174-2.226087 2.226087-2.226087 4.452174c0 4.452174 0 6.678261-4.452174 6.678261-2.226087 0-4.452174 2.226087-4.452174 2.226087v4.452174l-4.452174 4.452174-4.452174 4.452174c0 2.226087-2.226087 4.452174-4.452173 4.452174-2.226087 2.226087-4.452174 2.226087-4.452174 4.452173v4.452174s0 2.226087-2.226087 2.226087-2.226087 0-2.226087 2.226087c-2.226087 2.226087-4.452174 6.678261-4.452174 11.130435-2.226087 0-4.452174 2.226087-4.452174 2.226087-2.226087 0-4.452174 2.226087-4.452174 4.452174s-2.226087 4.452174-2.226087 4.452174-4.452174 6.678261-6.678261 8.904348c0 2.226087-2.226087 2.226087-4.452174 2.226087s-2.226087 2.226087-4.452174 2.226087c-2.226087 2.226087-2.226087 4.452174-2.226087 6.67826s0 4.452174-2.226087 6.678261c-4.452174 2.226087-6.678261 4.452174-11.130434 8.904348s-6.678261 4.452174-8.904348 8.904348c-17.808696 22.26087-37.843478 42.295652-60.104348 64.556522s-44.521739 42.295652-64.556522 60.104348c-2.226087 2.226087-4.452174 4.452174-8.904348 11.130434-6.678261 4.452174-11.130435 6.678261-17.808695 8.904348-4.452174 2.226087-11.130435 4.452174-15.582609 6.678261-2.226087 2.226087-4.452174 4.452174-6.678261 4.452174-2.226087 2.226087-2.226087 2.226087-4.452174 2.226087-6.678261 4.452174-13.356522 11.130435-17.808695 15.582609-6.678261 4.452174-11.130435 11.130435-15.582609 15.582608h-4.452174c-2.226087 2.226087-2.226087 4.452174-4.452174 4.452174s-2.226087 2.226087-2.226087 4.452174c-2.226087 2.226087-4.452174 2.226087-4.452174 2.226087-2.226087 0-4.452174 0-4.452174 2.226087-2.226087 2.226087-6.678261 4.452174-11.130434 8.904348s-8.904348 8.904348-11.130435 8.904348c-2.226087 0-6.678261 2.226087-8.904348 6.678261s-6.678261 6.678261-8.904348 6.67826c-4.452174 4.452174-8.904348 6.678261-11.130435 8.904348-2.226087 2.226087-6.678261 4.452174-8.904348 6.678261l11.130435-8.904348zM1224.347826 267.130435c-4.452174-2.226087-4.452174-4.452174 0-6.678261 4.452174-2.226087 6.678261-4.452174 8.904348-6.678261 0-2.226087 2.226087-2.226087 0-4.452174s0-2.226087 2.226087-4.452174c0 0 0-2.226087 2.226087-2.226087s2.226087 0 2.226087-2.226087c2.226087-2.226087 2.226087-4.452174 4.452174-8.904348 0-4.452174 2.226087-6.678261 4.452174-8.904347l2.226087-2.226087 2.226087-2.226087c2.226087 0 2.226087-2.226087 2.226086-2.226087s0-2.226087 2.226087-2.226087l2.226087-2.226087 8.904348-4.452174v-2.226087V200.347826c0-2.226087 0-2.226087 2.226087-4.452174l2.226087-2.226087s2.226087 0 2.226087-2.226087 2.226087-2.226087 2.226087-4.452174 0-2.226087 2.226087-4.452174 2.226087-2.226087 4.452174-2.226087V178.086957c0-2.226087 2.226087-4.452174 4.452174-6.678261 2.226087-2.226087 4.452174-4.452174 4.452174-8.904348 4.452174 0 4.452174 2.226087 2.226087 6.678261-2.226087 4.452174 0 6.678261 4.452174 4.452174-4.452174 6.678261-8.904348 13.356522-15.582609 20.034782-2.226087 4.452174-4.452174 6.678261-8.904348 8.904348-4.452174 2.226087-6.678261 6.678261-8.904348 8.904348l-8.904348 8.904348c-4.452174 4.452174-6.678261 4.452174-11.130434 8.904348-2.226087 2.226087-2.226087 4.452174-4.452174 6.67826 0 2.226087-2.226087 2.226087-4.452174 4.452174s-2.226087 4.452174-2.226087 4.452174 0 4.452174-2.226087 4.452174c-2.226087 2.226087-4.452174 4.452174-8.904348 4.452174 2.226087 6.678261 0 8.904348 0 13.356522z m-62.330435 164.730435c8.904348-8.904348 15.582609-15.582609 22.26087-24.486957 4.452174-4.452174 8.904348-8.904348 11.130435-13.356522s6.678261-8.904348 11.130434-13.356521c4.452174-4.452174 6.678261-8.904348 11.130435-11.130435 4.452174-2.226087 8.904348-6.678261 13.356522-11.130435l4.452174-4.452174c2.226087-2.226087 4.452174-4.452174 4.452174-6.678261 2.226087-2.226087 2.226087-4.452174 4.452174-6.678261 0-2.226087 2.226087-4.452174 4.452174-6.678261 4.452174-4.452174 8.904348-8.904348 13.356521-11.130434s8.904348-6.678261 11.130435-11.130435c4.452174-4.452174 8.904348-8.904348 11.130435-13.356522s6.678261-8.904348 11.130435-13.356522c4.452174-4.452174 6.678261-8.904348 11.130434-13.356521s6.678261-8.904348 8.904348-13.356522l2.226087-2.226087c2.226087 0 2.226087-2.226087 4.452174-2.226087 0-4.452174 0-6.678261 2.226087-8.904348l6.678261-6.678261 6.678261-6.678261c4.452174-4.452174 6.678261-8.904348 8.904348-15.582608s4.452174-11.130435 8.904348-15.582609c2.226087 0 2.226087 2.226087 0 8.904348 0 2.226087-2.226087 2.226087-2.226087 4.452174-2.226087 0-2.226087 2.226087-4.452174 2.226087 0 2.226087-2.226087 2.226087-2.226087 4.452174s0 2.226087-2.226087 4.452174l-2.226087 2.226087-2.226087 2.226087c-2.226087 2.226087-2.226087 4.452174-4.452174 8.904347-2.226087 2.226087-2.226087 4.452174-4.452174 6.678261-2.226087 2.226087-4.452174 4.452174-6.678261 4.452174-2.226087 2.226087-4.452174 4.452174-6.678261 4.452174v4.452174c0 2.226087-2.226087 4.452174-4.452174 4.452174v4.452174c0 2.226087 0 2.226087-2.226087 4.452174s-4.452174 4.452174-6.67826 4.452174c-2.226087 2.226087-4.452174 4.452174-6.678261 4.452174l-6.678261 6.67826-6.678261 6.678261c-2.226087 2.226087-2.226087 4.452174-4.452174 6.678261 0 2.226087-2.226087 4.452174-4.452174 6.678261 0 2.226087-2.226087 2.226087-4.452174 2.226087s-2.226087 2.226087-4.452174 4.452174c0 2.226087-2.226087 2.226087-2.226087 4.452174s0 2.226087-2.226087 4.452174l-11.130434 11.130434c-4.452174 4.452174-8.904348 6.678261-13.356522 11.130435-8.904348 8.904348-17.808696 20.034783-28.939131 31.165218l-31.165217 31.165217c-2.226087 2.226087-4.452174 4.452174-6.678261 8.904348-2.226087 4.452174-4.452174 6.678261-6.678261 8.904348-2.226087 2.226087-4.452174 2.226087-8.904348 4.452174-2.226087 0-4.452174 2.226087-6.67826 4.452174l13.356521-2.226087z m140.243479 129.113043c-2.226087 2.226087-4.452174 2.226087-8.904348 0-2.226087-2.226087-2.226087-4.452174 0-6.678261 2.226087-2.226087 2.226087-4.452174 4.452174-6.678261 0-4.452174 0-6.678261 2.226087-11.130434l4.452174-11.130435c0-2.226087 2.226087-4.452174 2.226086-8.904348s2.226087-6.678261 4.452174-11.130435h2.226087v-2.226087c0-2.226087 0-4.452174 2.226087-4.452174 2.226087-2.226087 2.226087-4.452174 4.452174-6.678261 2.226087-4.452174 4.452174-8.904348 4.452174-11.130434 2.226087-2.226087 2.226087-6.678261 4.452174-11.130435 0-2.226087 0-2.226087 2.226087-2.226087 0 0 2.226087 0 2.226087-2.226087s0-4.452174 2.226087-4.452174c2.226087-2.226087 4.452174-2.226087 4.452174-6.678261 0-2.226087 0-4.452174 2.226087-4.452174 2.226087-2.226087 2.226087-4.452174 2.226087-6.678261 0-2.226087 0-4.452174 2.226087-6.678261 2.226087-2.226087 2.226087-2.226087 2.226087-6.67826 0 0 0-2.226087 2.226087-2.226087l2.226087-2.226087c2.226087-4.452174 4.452174-6.678261 6.67826-11.130435 2.226087-4.452174 4.452174-6.678261 6.678261-11.130435 15.582609-28.93913 33.391304-60.104348 53.426087-91.269565 20.034783-31.165217 40.069565-62.330435 60.104348-89.043478 2.226087 2.226087 2.226087 2.226087 0 4.452174l-2.226087 2.226087c-2.226087 2.226087-2.226087 4.452174-4.452174 6.67826 0 2.226087-2.226087 4.452174-2.226087 6.678261 0 2.226087-4.452174 4.452174-8.904348 8.904348v4.452174l-2.226087 2.226087-2.226086 2.226087V267.130435h-2.226087v4.452174l-2.226087 2.226087s-2.226087 0-2.226087 2.226087c0 0-2.226087 2.226087-2.226087 4.452174s-2.226087 4.452174-2.226087 4.452173c-2.226087 2.226087-2.226087 4.452174-4.452174 4.452174 0 2.226087-2.226087 4.452174-4.452174 6.678261-4.452174 6.678261-6.678261 13.356522-11.130435 22.26087s-8.904348 17.808696-15.582609 24.486956c0 0 0 2.226087-2.226087 0 0 0-2.226087 0-2.226086 2.226087s0 4.452174-2.226087 4.452174c-2.226087 2.226087-2.226087 4.452174-2.226087 6.678261 0 4.452174-2.226087 8.904348-4.452174 13.356522s-6.678261 11.130435-8.904348 15.582608c-11.130435 20.034783-22.26087 42.295652-33.391304 64.556522s-22.26087 44.521739-31.165218 69.008696c0 2.226087-2.226087 4.452174-4.452174 11.130435 0 2.226087-2.226087 4.452174-2.226087 8.904347s-2.226087 6.678261-2.226087 11.130435H1313.391304c-2.226087 0-2.226087 0-2.226087 2.226087s-6.678261 6.678261-8.904347 8.904348z m-318.330435 35.617391c-2.226087 0-4.452174-2.226087 0 0 0-2.226087 0-4.452174 2.226087-4.452174 4.452174-4.452174 6.678261-8.904348 13.356521-13.356521 4.452174-2.226087 8.904348-6.678261 13.356522-11.130435 4.452174-4.452174 8.904348-6.678261 11.130435-11.130435l11.130435-11.130435c4.452174-4.452174 8.904348-8.904348 13.356522-11.130434 4.452174-2.226087 8.904348-6.678261 13.356521-8.904348 4.452174-4.452174 8.904348-8.904348 11.130435-13.356522 4.452174-4.452174 6.678261-8.904348 11.130435-11.130435 15.582609-15.582609 33.391304-31.165217 48.973913-44.521739l11.130435-11.130435h2.226087l-6.678261 6.678261-4.452174 6.678261c-6.678261 8.904348-15.582609 17.808696-24.486957 26.713044-4.452174 4.452174-8.904348 6.678261-13.356521 8.904347-4.452174 2.226087-8.904348 6.678261-13.356522 11.130435l-6.678261 6.678261-6.678261 6.678261c-2.226087 2.226087-4.452174 4.452174-6.678261 4.452174-2.226087 0-4.452174 2.226087-6.678261 4.452174-4.452174 4.452174-8.904348 6.678261-11.130434 11.130434s-6.678261 8.904348-11.130435 13.356522c-8.904348 6.678261-17.808696 13.356522-26.713044 22.26087-8.904348 6.678261-17.808696 13.356522-24.486956 22.260869z" fill="#333333" p-id="1802"></path></svg>