<?xml version="1.0" standalone="no"?><!DOCTYPE svg PUBLIC "-//W3C//DTD SVG 1.1//EN" "http://www.w3.org/Graphics/SVG/1.1/DTD/svg11.dtd"><svg t="1725412658479" class="icon" viewBox="0 0 1024 1024" version="1.1" xmlns="http://www.w3.org/2000/svg" p-id="49702" xmlns:xlink="http://www.w3.org/1999/xlink" width="200" height="200"><path d="M184.635557 104.769793h210.786845a7.483557 7.483557 0 0 1 7.483557 7.483557v799.4933a7.483557 7.483557 0 0 1-7.483557 7.483557H184.635557V104.769793z" fill="#f38a3a" p-id="49703"></path><path d="M845.075644 24.945189H286.526675c-62.581242 0-113.533038 50.388034-114.098046 112.540219-21.390499 3.338914-41.270568 9.822168-57.869097 19.070597-31.605554 17.585111-49.743201 44.423639-49.743201 73.648175 0 29.2183 18.127669 56.053086 49.743201 73.644434 16.598529 9.237203 36.466124 15.719211 57.859118 19.063113v51.293545c-21.392994 3.355128-41.26059 9.82591-57.860365 19.06436-31.60306 17.586358-49.740706 44.424887-49.740706 73.643187 0 29.223289 18.126421 56.053086 49.740706 73.648175 16.599776 9.238451 36.467371 15.720458 57.860365 19.059371v51.908444c-19.948667 3.492326-38.459245 9.758558-54.083663 18.455698C86.725691 647.564629 68.593033 674.408146 68.593033 703.627693c0 29.207074 18.120185 56.053086 49.741954 73.648175 15.624419 8.693398 34.134996 14.957135 54.083663 18.455698v89.749048c0 62.621155 51.190022 113.574197 114.108025 113.574197h558.547722C907.993647 999.054811 959.183669 948.101769 959.183669 885.480614V138.524375C959.193647 75.895737 908.003625 24.945189 845.075644 24.945189zM156.809199 240.946826c-9.3981-4.207006-14.069086-8.475128-15.857657-10.753871 1.78857-2.278743 6.459557-6.535639 15.857657-10.75886 4.7558-2.12533 10.000526-3.916395 15.609451-5.353238v32.209228c-5.5977-1.421876-10.853652-3.211693-15.609451-5.343259z m0 236.714874c-9.3981-4.213242-14.069086-8.481364-15.857657-10.760107 1.78857-2.277496 6.459557-6.528156 15.857657-10.751376 4.7558-2.132814 10.000526-3.917642 15.609451-5.354485v32.209228c-5.5977-1.426865-10.853652-3.207951-15.609451-5.34326z m3.786679 236.724853c-9.404336-4.21449-14.069086-8.480117-15.858904-10.75886 1.789817-2.27999 6.454568-6.535639 15.858904-10.753871 3.663201-1.643888 7.630733-3.084473 11.822772-4.319259v30.130046c-4.192039-1.21982-8.159571-2.660404-11.822772-4.298056z m723.086188 171.094061c0 21.189691-17.31695 38.426816-38.606422 38.426816H286.526675c-21.290719 0-38.608916-17.237125-38.608916-38.426816v-196.91732c4.18705 1.237281 8.158324 2.666641 11.821525 4.320506 10.88608 4.881773 15.422363 9.832146 16.503737 11.676843 0.490173 20.319104 17.194719 36.65446 37.744565 36.654461 20.847942 0 37.757038-16.821788 37.757038-37.577433 0-29.207074-18.127669-56.053086-49.744449-73.643186-15.628161-8.698387-34.133749-14.962124-54.082416-18.454451V453.02209a88.503035 88.503035 0 0 1 8.047318 3.136858c10.883586 4.881773 15.421116 9.832146 16.501242 11.681832 0.49142 20.314114 17.202202 36.65446 37.745813 36.65446 20.854178 0 37.75579-16.828024 37.75579-37.582421 0-29.208322-18.127669-56.04685-49.741954-73.643187-14.635342-8.140862-31.802621-14.135191-50.308209-17.749749v-159.212667a88.108901 88.108901 0 0 1 8.047318 3.138104c10.883586 4.885515 15.421116 9.837135 16.501242 11.680585 0.49142 20.321598 17.202202 36.655708 37.745813 36.655708 20.854178 0 37.75579-16.828024 37.75579-37.577433 0-29.208322-18.127669-56.051839-49.741954-73.649422-14.635342-8.140862-31.802621-14.128955-50.308209-17.743513v-0.28687c0-21.183454 17.318197-38.424322 38.608916-38.424321h558.547722c21.290719 0 38.608916 17.240867 38.608916 38.424321v746.956239z" fill="#f38a3a" p-id="49704"></path><path d="M762.85256 240.390548H420.220414c-20.628424 0-37.354173-17.074982-37.354173-38.143688 0-21.067459 16.725749-38.143688 37.35542-38.143688H762.85256c20.627177 0 37.346689 17.074982 37.34669 38.143688 0 21.068706-16.719513 38.143688-37.34669 38.143688z m0 193.250378H420.220414c-20.628424 0-37.354173-17.077476-37.354173-38.144936s16.725749-38.144935 37.35542-38.144935H762.85256c20.627177 0 37.346689 17.077476 37.34669 38.144935 0 21.066212-16.719513 38.143688-37.34669 38.143688z m0 193.246636H420.220414c-20.628424 0-37.354173-17.074982-37.354173-38.143689 0-21.067459 16.725749-38.143688 37.35542-38.143688H762.85256c20.627177 0 37.346689 17.074982 37.34669 38.143688 0 21.068706-16.719513 38.143688-37.34669 38.143689z m0 193.24913H420.220414c-20.628424 0-37.354173-17.081218-37.354173-38.143688 0-21.067459 16.725749-38.149924 37.35542-38.149925H762.85256c20.627177 0 37.346689 17.082465 37.34669 38.149925 0 21.06247-16.719513 38.143688-37.34669 38.143688z" fill="#f38a3a" p-id="49705"></path></svg>