<?xml version="1.0" standalone="no"?><!DOCTYPE svg PUBLIC "-//W3C//DTD SVG 1.1//EN" "http://www.w3.org/Graphics/SVG/1.1/DTD/svg11.dtd"><svg t="1726292226412" class="icon" viewBox="0 0 1024 1024" version="1.1" xmlns="http://www.w3.org/2000/svg" p-id="37730" xmlns:xlink="http://www.w3.org/1999/xlink" width="200" height="200"><path d="M115.2 262.4s-128 179.2-38.4 390.4c25.6 19.2 38.4 19.2 51.2-38.4-6.4-64-6.4-140.8 70.4-166.4 70.4-25.6 160 44.8 160 44.8s160 51.2 166.4-134.4c6.4-185.6 108.8-185.6 140.8-185.6 32-6.4 102.4-32 19.2-83.2-76.8-51.2-275.2-51.2-416 25.6-121.6 83.2-153.6 147.2-153.6 147.2zM972.8 576s-12.8-83.2-44.8-19.2c-32 44.8-19.2 83.2-76.8 83.2-57.6 0-102.4-57.6-153.6-19.2-51.2 38.4-12.8 121.6-12.8 121.6s38.4 70.4-12.8 96c-51.2 25.6-89.6 6.4-102.4-57.6-12.8-70.4-32-166.4-160-32l-12.8 19.2s-25.6 57.6-64 76.8c-44.8 19.2-96-57.6-108.8-57.6-12.8-6.4-115.2-12.8-51.2 44.8 64 57.6 179.2 172.8 371.2 147.2s345.6-102.4 422.4-352c6.4-25.6 6.4-51.2 6.4-51.2z m12.8-364.8c6.4-19.2 6.4-25.6 0-38.4-6.4-6.4-19.2-6.4-38.4 0s-32 12.8-44.8 25.6l-38.4 38.4-166.4-38.4h-6.4l-32 32v6.4s0 6.4 6.4 6.4l128 70.4-64 64-51.2-12.8h-6.4l-32 32v6.4s0 6.4 6.4 6.4l64 44.8 44.8 64s6.4 0 6.4 6.4h6.4l25.6-25.6v-6.4l-12.8-51.2 64-64 70.4 128s0 6.4 6.4 6.4h6.4l32-25.6s6.4-6.4 0-6.4l-38.4-172.8 38.4-51.2c12.8-12.8 19.2-25.6 25.6-44.8zM83.2 672s-44.8 89.6 172.8-6.4c224-102.4 313.6-198.4 313.6-198.4s44.8-38.4 64-19.2c19.2 19.2 70.4 51.2 32 96-38.4 44.8-134.4 96-134.4 96s-115.2 70.4-249.6 108.8c-134.4 38.4-243.2 12.8-243.2-12.8 0-19.2-6.4-19.2 25.6-51.2 6.4-19.2 19.2-12.8 19.2-12.8z m0 0" fill="#34AE77" p-id="37731"></path></svg>